{"glyphs":{"0":{"ha":724,"x_min":54,"x_max":671,"o":"m 375 713 q 594 621 517 713 q 671 361 671 529 q 588 85 671 183 q 351 -12 504 -12 q 132 79 210 -12 q 54 336 54 171 q 138 614 54 515 q 375 713 222 713 m 361 542 q 238 495 278 542 q 197 349 197 449 q 238 199 197 247 q 363 150 278 150 q 487 197 446 150 q 528 340 528 243 q 486 492 528 443 q 361 542 444 542 z "},"1":{"ha":500,"x_min":11,"x_max":363,"o":"m 363 690 l 351 289 l 361 0 l 174 0 l 182 269 l 182 500 l 25 458 l 11 468 l 11 617 l 336 710 l 363 690 z "},"2":{"ha":654,"x_min":54,"x_max":621,"o":"m 336 710 q 493 665 432 710 q 554 540 554 619 q 517 417 554 485 q 399 263 481 350 l 294 147 l 297 142 l 485 142 l 610 153 l 621 140 l 599 -8 l 431 0 l 115 0 l 64 -3 l 54 4 l 54 117 l 242 301 q 340 414 308 369 q 372 492 372 458 q 351 536 372 519 q 293 553 331 553 q 200 531 249 553 q 110 471 151 508 l 89 471 l 58 614 q 336 710 201 710 z "},"3":{"ha":599,"x_min":32,"x_max":544,"o":"m 283 713 q 458 660 392 713 q 525 522 525 607 q 493 412 525 465 q 393 321 461 358 l 393 314 q 544 129 544 271 q 501 -7 544 53 q 378 -99 457 -67 q 196 -132 299 -132 q 46 -118 122 -132 l 36 25 l 49 38 q 203 8 131 8 q 324 39 281 8 q 368 125 368 69 q 336 197 368 171 q 242 224 304 222 l 144 224 l 135 236 l 140 363 l 201 365 q 296 399 254 367 q 338 482 338 432 q 313 540 338 519 q 243 561 288 561 q 165 545 204 561 q 79 496 125 529 l 60 496 l 32 631 q 283 713 151 713 z "},"4":{"ha":699,"x_min":29,"x_max":661,"o":"m 653 74 l 538 76 l 544 -111 l 535 -124 l 390 -133 l 381 -122 l 385 78 l 163 78 l 42 74 l 29 90 l 29 207 l 369 703 l 539 703 l 535 219 l 650 219 l 661 203 l 653 74 m 188 219 l 388 219 l 388 493 l 375 493 l 188 219 z "},"5":{"ha":600,"x_min":26,"x_max":556,"o":"m 556 699 l 536 556 l 522 542 l 396 556 l 235 556 l 231 400 l 317 382 q 491 303 438 357 q 544 161 544 250 q 500 6 544 74 q 374 -98 456 -61 q 189 -135 293 -135 q 36 -118 117 -135 l 26 26 l 39 39 q 204 7 131 7 q 325 42 281 7 q 369 136 369 78 q 338 210 369 183 q 233 250 306 238 l 100 274 l 88 289 l 94 685 l 117 706 l 197 703 l 400 703 l 544 710 l 556 699 z "},"6":{"ha":671,"x_min":46,"x_max":625,"o":"m 394 501 q 563 433 501 501 q 625 260 625 364 q 591 122 625 185 q 490 23 557 60 q 331 -14 424 -14 q 119 69 193 -14 q 46 299 46 151 q 151 606 46 468 q 450 828 257 743 l 460 828 l 586 746 l 586 728 q 359 614 440 672 q 243 475 278 556 l 254 463 q 394 501 317 501 m 339 107 q 427 141 396 107 q 458 238 458 175 q 428 338 458 303 q 340 372 399 372 q 214 331 279 372 l 214 301 q 242 155 214 203 q 339 107 271 107 z "},"7":{"ha":600,"x_min":21,"x_max":564,"o":"m 189 703 l 496 703 l 564 706 l 564 569 l 335 69 l 257 -139 l 108 -97 l 97 -68 l 388 549 l 158 549 l 32 536 l 21 551 l 33 707 l 189 703 z "},"8":{"ha":685,"x_min":57,"x_max":621,"o":"m 358 826 q 534 772 471 826 q 597 624 597 718 q 565 517 597 563 q 475 433 533 471 l 475 425 q 582 348 543 392 q 621 231 621 304 q 540 53 621 118 q 324 -12 458 -12 q 127 46 197 -12 q 57 197 57 104 q 97 317 57 269 q 210 396 138 364 l 210 404 q 118 481 153 436 q 83 597 83 526 q 158 765 83 703 q 358 826 233 826 m 346 699 q 264 673 293 699 q 235 603 235 647 q 267 530 235 557 q 358 479 299 503 q 428 532 403 504 q 453 603 453 560 q 424 673 453 647 q 346 699 396 699 m 326 347 q 241 299 271 326 q 211 221 211 271 q 245 141 211 171 q 339 111 279 111 q 434 141 400 111 q 468 217 468 171 q 433 291 468 264 q 326 347 399 318 z "},"9":{"ha":671,"x_min":46,"x_max":625,"o":"m 276 201 q 108 270 169 201 q 46 443 46 339 q 80 581 46 518 q 181 680 114 643 q 340 717 247 717 q 551 634 478 717 q 625 404 625 551 q 519 97 625 235 q 221 -125 414 -40 l 211 -125 l 85 -43 l 85 -25 q 312 89 231 31 q 428 228 393 147 l 417 240 q 276 201 354 201 m 332 596 q 244 562 275 596 q 213 465 213 528 q 242 365 213 400 q 331 331 272 331 q 457 372 392 331 l 457 401 q 428 548 457 500 q 332 596 400 596 z "},"\r":{"ha":210,"x_min":0,"x_max":0,"o":""}," ":{"ha":210,"x_min":0,"x_max":0,"o":""},"A":{"ha":833,"x_min":11,"x_max":811,"o":"m 811 0 l 619 0 l 597 117 l 574 200 l 399 204 l 244 200 l 221 126 l 197 0 l 11 0 l 314 894 l 538 894 l 811 0 m 533 346 l 428 718 l 415 718 l 293 346 l 413 343 l 533 346 z "},"Á":{"ha":833,"x_min":11,"x_max":811,"o":"m 811 0 l 619 0 l 597 117 l 574 200 l 399 204 l 244 200 l 221 126 l 197 0 l 11 0 l 314 894 l 538 894 l 811 0 m 533 346 l 428 718 l 415 718 l 293 346 l 413 343 l 533 346 m 574 1231 l 621 1121 l 615 1104 q 315 996 481 1051 l 299 1001 l 268 1078 q 556 1235 439 1164 l 574 1231 z "},"Ă":{"ha":833,"x_min":11,"x_max":811,"o":"m 811 0 l 619 0 l 597 117 l 574 200 l 399 204 l 244 200 l 221 126 l 197 0 l 11 0 l 314 894 l 538 894 l 811 0 m 533 346 l 428 718 l 415 718 l 293 346 l 413 343 l 533 346 m 626 1147 q 547 1039 601 1076 q 415 1001 493 1001 q 287 1039 340 1001 q 210 1147 233 1076 l 253 1207 l 279 1207 q 334 1150 297 1171 q 421 1129 371 1129 q 505 1149 469 1129 q 558 1207 540 1169 l 585 1207 l 626 1147 z "},"Ắ":{"ha":833,"x_min":11,"x_max":811,"o":"m 811 0 l 619 0 l 597 117 l 574 200 l 399 204 l 244 200 l 221 126 l 197 0 l 11 0 l 314 894 l 538 894 l 811 0 m 533 346 l 428 718 l 415 718 l 293 346 l 413 343 l 533 346 m 569 1328 l 572 1311 l 424 1167 l 407 1163 l 349 1208 q 476 1383 417 1297 l 490 1386 l 569 1328 m 625 1119 q 546 1011 600 1049 q 414 974 492 974 q 285 1011 339 974 q 208 1119 232 1049 l 251 1179 l 278 1179 q 333 1122 296 1143 q 419 1101 369 1101 q 503 1122 468 1101 q 557 1179 539 1142 l 583 1179 l 625 1119 z "},"Ặ":{"ha":833,"x_min":11,"x_max":811,"o":"m 811 0 l 619 0 l 597 117 l 574 200 l 399 204 l 244 200 l 221 126 l 197 0 l 11 0 l 314 894 l 538 894 l 811 0 m 533 346 l 428 718 l 415 718 l 293 346 l 413 343 l 533 346 m 421 -72 q 488 -97 464 -72 q 513 -167 513 -122 q 486 -242 513 -214 q 414 -269 460 -269 q 344 -244 368 -269 q 319 -174 319 -219 q 347 -100 319 -128 q 421 -72 374 -72 m 626 1147 q 547 1039 601 1076 q 415 1001 493 1001 q 287 1039 340 1001 q 210 1147 233 1076 l 253 1207 l 279 1207 q 334 1150 297 1171 q 421 1129 371 1129 q 505 1149 469 1129 q 558 1207 540 1169 l 585 1207 l 626 1147 z "},"Ằ":{"ha":833,"x_min":11,"x_max":811,"o":"m 811 0 l 619 0 l 597 117 l 574 200 l 399 204 l 244 200 l 221 126 l 197 0 l 11 0 l 314 894 l 538 894 l 811 0 m 533 346 l 428 718 l 415 718 l 293 346 l 413 343 l 533 346 m 413 1167 l 263 1311 l 265 1328 l 344 1386 l 358 1383 q 486 1208 418 1297 l 429 1163 l 413 1167 m 625 1119 q 546 1011 600 1049 q 414 974 492 974 q 285 1011 339 974 q 208 1119 232 1049 l 251 1179 l 278 1179 q 333 1122 296 1143 q 419 1101 369 1101 q 503 1122 468 1101 q 557 1179 539 1142 l 583 1179 l 625 1119 z "},"Ẳ":{"ha":833,"x_min":11,"x_max":811,"o":"m 811 0 l 619 0 l 597 117 l 574 200 l 399 204 l 244 200 l 221 126 l 197 0 l 11 0 l 314 894 l 538 894 l 811 0 m 533 346 l 428 718 l 415 718 l 293 346 l 413 343 l 533 346 m 625 1119 q 546 1011 600 1049 q 414 974 492 974 q 285 1011 339 974 q 208 1119 232 1049 l 251 1179 l 278 1179 q 333 1122 296 1143 q 419 1101 369 1101 q 503 1122 468 1101 q 557 1179 539 1142 l 583 1179 l 625 1119 m 364 1248 q 415 1297 396 1272 q 433 1342 433 1323 q 423 1364 433 1357 q 396 1371 413 1371 q 353 1363 377 1371 q 310 1339 330 1354 l 281 1386 q 348 1435 311 1417 q 421 1454 384 1454 q 499 1427 468 1454 q 530 1358 530 1400 q 513 1309 530 1333 q 455 1250 497 1285 l 485 1199 l 421 1161 l 364 1248 z "},"Ẵ":{"ha":833,"x_min":11,"x_max":811,"o":"m 811 0 l 619 0 l 597 117 l 574 200 l 399 204 l 244 200 l 221 126 l 197 0 l 11 0 l 314 894 l 538 894 l 811 0 m 533 346 l 428 718 l 415 718 l 293 346 l 413 343 l 533 346 m 619 1113 q 544 1009 596 1045 q 418 973 492 973 q 295 1009 346 973 q 221 1113 244 1045 l 263 1170 l 288 1170 q 340 1115 305 1135 q 423 1095 375 1095 q 503 1115 470 1095 q 554 1170 537 1134 l 580 1170 l 619 1113 m 636 1357 l 636 1342 l 548 1229 l 533 1224 q 429 1249 506 1228 q 342 1268 360 1268 q 316 1258 329 1268 q 283 1224 304 1247 l 264 1204 l 249 1204 l 201 1253 l 201 1267 l 289 1380 l 304 1386 q 409 1361 329 1383 q 448 1350 415 1360 q 495 1341 481 1341 q 522 1352 509 1341 q 549 1381 535 1364 q 573 1407 564 1398 l 587 1407 l 636 1357 z "},"Ǎ":{"ha":833,"x_min":11,"x_max":811,"o":"m 811 0 l 619 0 l 597 117 l 574 200 l 399 204 l 244 200 l 221 126 l 197 0 l 11 0 l 314 894 l 538 894 l 811 0 m 533 346 l 428 718 l 415 718 l 293 346 l 413 343 l 533 346 m 622 1142 q 438 997 526 1076 l 400 997 q 214 1142 303 1081 l 247 1215 l 265 1215 l 301 1194 q 418 1128 360 1163 q 571 1215 471 1160 l 589 1215 l 622 1142 z "},"Â":{"ha":833,"x_min":11,"x_max":811,"o":"m 811 0 l 619 0 l 597 117 l 574 200 l 399 204 l 244 200 l 221 126 l 197 0 l 11 0 l 314 894 l 538 894 l 811 0 m 533 346 l 428 718 l 415 718 l 293 346 l 413 343 l 533 346 m 215 1085 q 400 1229 311 1150 l 438 1229 q 624 1085 535 1146 l 590 1011 l 572 1011 l 536 1032 q 419 1099 478 1064 q 267 1011 367 1067 l 249 1011 l 215 1085 z "},"Ấ":{"ha":833,"x_min":11,"x_max":811,"o":"m 811 0 l 619 0 l 597 117 l 574 200 l 399 204 l 244 200 l 221 126 l 197 0 l 11 0 l 314 894 l 538 894 l 811 0 m 533 346 l 428 718 l 415 718 l 293 346 l 413 343 l 533 346 m 681 1318 l 686 1304 l 572 1161 l 558 1161 l 494 1208 l 578 1356 l 592 1363 l 681 1318 m 214 1057 q 399 1201 328 1138 l 436 1201 q 622 1057 519 1128 l 589 983 l 571 983 l 418 1071 l 265 983 l 247 983 l 214 1057 z "},"Ậ":{"ha":833,"x_min":11,"x_max":811,"o":"m 811 0 l 619 0 l 597 117 l 574 200 l 399 204 l 244 200 l 221 126 l 197 0 l 11 0 l 314 894 l 538 894 l 811 0 m 533 346 l 428 718 l 415 718 l 293 346 l 413 343 l 533 346 m 421 -72 q 488 -97 464 -72 q 513 -167 513 -122 q 486 -242 513 -214 q 414 -269 460 -269 q 344 -244 368 -269 q 319 -174 319 -219 q 347 -100 319 -128 q 421 -72 374 -72 m 215 1085 q 400 1229 311 1150 l 438 1229 q 624 1085 535 1146 l 590 1011 l 572 1011 l 536 1032 q 419 1099 478 1064 q 267 1011 367 1067 l 249 1011 l 215 1085 z "},"Ầ":{"ha":833,"x_min":11,"x_max":811,"o":"m 811 0 l 619 0 l 597 117 l 574 200 l 399 204 l 244 200 l 221 126 l 197 0 l 11 0 l 314 894 l 538 894 l 811 0 m 533 346 l 428 718 l 415 718 l 293 346 l 413 343 l 533 346 m 453 1304 l 457 1318 l 546 1363 l 560 1356 l 644 1208 l 581 1161 l 567 1161 l 453 1304 m 214 1057 q 399 1201 328 1138 l 436 1201 q 622 1057 519 1128 l 589 983 l 571 983 l 418 1071 l 265 983 l 247 983 l 214 1057 z "},"Ẩ":{"ha":833,"x_min":11,"x_max":811,"o":"m 811 0 l 619 0 l 597 117 l 574 200 l 399 204 l 244 200 l 221 126 l 197 0 l 11 0 l 314 894 l 538 894 l 811 0 m 533 346 l 428 718 l 415 718 l 293 346 l 413 343 l 533 346 m 214 1085 q 399 1229 310 1150 l 436 1229 q 622 1085 533 1146 l 589 1011 l 571 1011 l 535 1032 q 418 1099 476 1064 q 265 1011 365 1067 l 247 1011 l 214 1085 m 531 1263 q 582 1313 564 1287 q 601 1358 601 1339 q 591 1380 601 1373 q 564 1387 581 1387 q 520 1379 544 1387 q 476 1354 496 1370 l 447 1402 q 515 1452 478 1434 q 589 1471 552 1471 q 667 1444 636 1471 q 699 1374 699 1417 q 682 1325 699 1349 q 623 1264 666 1300 l 654 1213 l 589 1175 l 531 1263 z "},"Ẫ":{"ha":833,"x_min":11,"x_max":811,"o":"m 811 0 l 619 0 l 597 117 l 574 200 l 399 204 l 244 200 l 221 126 l 197 0 l 11 0 l 314 894 l 538 894 l 811 0 m 533 346 l 428 718 l 415 718 l 293 346 l 413 343 l 533 346 m 217 1085 q 401 1229 313 1150 l 439 1229 q 625 1085 536 1146 l 592 1011 l 574 1011 l 538 1032 q 421 1099 479 1064 q 268 1011 368 1067 l 250 1011 l 217 1085 m 663 1411 l 663 1394 l 564 1271 l 547 1265 q 431 1293 517 1269 q 333 1314 353 1314 q 304 1302 318 1314 q 267 1265 290 1290 l 246 1243 l 229 1243 l 175 1297 l 175 1313 l 274 1436 l 290 1443 q 408 1415 318 1439 q 452 1403 415 1414 q 504 1393 489 1393 q 534 1406 519 1393 q 565 1437 549 1418 q 592 1465 582 1456 l 607 1465 l 663 1411 z "},"Ȁ":{"ha":833,"x_min":11,"x_max":811,"o":"m 811 0 l 619 0 l 597 117 l 574 200 l 399 204 l 244 200 l 221 126 l 197 0 l 11 0 l 314 894 l 538 894 l 811 0 m 533 346 l 428 718 l 415 718 l 293 346 l 413 343 l 533 346 m 331 993 l 315 997 q 140 1158 211 1090 l 143 1174 l 229 1229 l 243 1226 q 335 1110 271 1189 l 389 1040 l 331 993 m 546 993 l 529 997 q 356 1158 439 1076 l 358 1174 l 443 1229 l 458 1226 q 604 1040 507 1158 l 546 993 z "},"Ä":{"ha":833,"x_min":11,"x_max":811,"o":"m 811 0 l 619 0 l 597 117 l 574 200 l 399 204 l 244 200 l 221 126 l 197 0 l 11 0 l 314 894 l 538 894 l 811 0 m 533 346 l 428 718 l 415 718 l 293 346 l 413 343 l 533 346 m 303 1196 q 364 1174 342 1196 q 386 1111 386 1151 q 362 1043 386 1068 q 296 1018 338 1018 q 233 1040 256 1018 q 211 1104 211 1063 q 235 1171 211 1146 q 303 1196 260 1196 m 543 1196 q 604 1174 582 1196 q 626 1111 626 1151 q 602 1043 626 1068 q 538 1018 578 1018 q 475 1040 497 1018 q 453 1104 453 1063 q 477 1171 453 1146 q 543 1196 501 1196 z "},"Ạ":{"ha":833,"x_min":11,"x_max":811,"o":"m 811 0 l 619 0 l 597 117 l 574 200 l 399 204 l 244 200 l 221 126 l 197 0 l 11 0 l 314 894 l 538 894 l 811 0 m 533 346 l 428 718 l 415 718 l 293 346 l 413 343 l 533 346 m 421 -72 q 488 -97 464 -72 q 513 -167 513 -122 q 486 -242 513 -214 q 414 -269 460 -269 q 344 -244 368 -269 q 319 -174 319 -219 q 347 -100 319 -128 q 421 -72 374 -72 z "},"À":{"ha":833,"x_min":11,"x_max":811,"o":"m 811 0 l 619 0 l 597 117 l 574 200 l 399 204 l 244 200 l 221 126 l 197 0 l 11 0 l 314 894 l 538 894 l 811 0 m 533 346 l 428 718 l 415 718 l 293 346 l 413 343 l 533 346 m 307 1235 q 594 1078 421 1167 l 565 1001 l 547 996 q 249 1104 379 1053 l 243 1121 l 289 1231 l 307 1235 z "},"Ả":{"ha":833,"x_min":11,"x_max":811,"o":"m 811 0 l 619 0 l 597 117 l 574 200 l 399 204 l 244 200 l 221 126 l 197 0 l 11 0 l 314 894 l 538 894 l 811 0 m 533 346 l 428 718 l 415 718 l 293 346 l 413 343 l 533 346 m 361 1044 q 415 1097 396 1069 q 435 1144 435 1124 q 424 1167 435 1160 q 396 1175 414 1175 q 350 1166 375 1175 q 304 1140 325 1157 l 274 1190 q 344 1243 306 1224 q 422 1263 383 1263 q 505 1234 472 1263 q 538 1161 538 1206 q 520 1109 538 1135 q 458 1046 503 1083 l 490 992 l 422 951 l 361 1044 z "},"Ȃ":{"ha":833,"x_min":11,"x_max":811,"o":"m 811 0 l 619 0 l 597 117 l 574 200 l 399 204 l 244 200 l 221 126 l 197 0 l 11 0 l 314 894 l 538 894 l 811 0 m 533 346 l 428 718 l 415 718 l 293 346 l 413 343 l 533 346 m 208 1069 q 283 1196 229 1149 q 422 1243 336 1243 q 556 1194 506 1243 q 626 1069 607 1146 l 581 1007 l 556 1007 q 502 1085 538 1058 q 417 1113 467 1113 q 331 1085 367 1113 q 279 1007 296 1058 l 254 1007 l 208 1069 z "},"Ā":{"ha":833,"x_min":11,"x_max":811,"o":"m 811 0 l 619 0 l 597 117 l 574 200 l 399 204 l 244 200 l 221 126 l 197 0 l 11 0 l 314 894 l 538 894 l 811 0 m 533 346 l 428 718 l 415 718 l 293 346 l 413 343 l 533 346 m 622 1153 l 614 1050 l 225 1050 l 213 1063 l 221 1165 l 610 1165 l 622 1153 z "},"Ą":{"ha":833,"x_min":11,"x_max":836,"o":"m 811 0 l 619 0 l 597 117 l 574 200 l 399 204 l 244 200 l 221 126 l 197 0 l 11 0 l 314 894 l 538 894 l 811 0 m 533 346 l 428 718 l 415 718 l 293 346 l 413 343 l 533 346 m 811 0 q 706 -93 731 -68 q 681 -137 681 -118 q 714 -165 681 -165 q 801 -125 751 -165 l 811 -126 l 836 -208 q 690 -269 771 -269 q 603 -241 636 -269 q 571 -165 571 -212 q 602 -82 571 -121 q 700 0 633 -43 l 811 0 z "},"Å":{"ha":833,"x_min":11,"x_max":811,"o":"m 811 0 l 619 0 l 597 117 l 574 200 l 399 204 l 244 200 l 221 126 l 197 0 l 11 0 l 314 894 l 538 894 l 811 0 m 533 346 l 428 718 l 415 718 l 293 346 l 413 343 l 533 346 m 419 1254 q 517 1221 483 1254 q 550 1128 550 1188 q 513 1027 550 1063 q 413 992 476 992 q 317 1025 351 992 q 283 1122 283 1058 q 319 1219 283 1185 q 419 1254 354 1254 m 415 1175 q 360 1124 360 1175 q 417 1068 360 1068 q 474 1121 474 1068 q 415 1175 474 1175 z "},"Ǻ":{"ha":833,"x_min":11,"x_max":811,"o":"m 299 1106 l 281 1188 q 589 1299 453 1243 l 606 1292 l 636 1176 l 628 1160 q 315 1099 501 1132 l 299 1106 m 811 0 l 619 0 l 597 114 l 574 196 l 399 200 l 244 196 l 221 124 l 197 0 l 11 0 l 317 861 q 293 946 293 896 q 328 1044 293 1010 q 429 1079 364 1079 q 526 1046 493 1079 q 560 953 560 1013 q 533 863 560 900 l 811 0 m 425 1000 q 369 949 369 1000 q 426 893 369 893 q 483 946 483 893 q 425 1000 483 1000 m 532 339 l 428 701 l 415 701 l 293 339 l 413 336 l 532 339 z "},"Ã":{"ha":833,"x_min":11,"x_max":811,"o":"m 811 0 l 619 0 l 597 117 l 574 200 l 399 204 l 244 200 l 221 126 l 197 0 l 11 0 l 314 894 l 538 894 l 811 0 m 533 346 l 428 718 l 415 718 l 293 346 l 413 343 l 533 346 m 660 1168 l 660 1153 l 563 1029 l 544 1022 q 429 1049 507 1026 q 384 1060 422 1050 q 331 1071 346 1071 q 301 1058 315 1071 q 269 1028 286 1046 q 244 1000 253 1010 l 228 1000 l 172 1054 l 172 1069 l 271 1193 l 288 1200 q 406 1172 321 1196 q 501 1151 483 1151 q 534 1165 518 1151 q 567 1197 550 1179 q 589 1222 583 1215 l 606 1222 l 660 1168 z "},"Æ":{"ha":1142,"x_min":-25,"x_max":1131,"o":"m 1131 140 l 1118 0 l 578 0 l 571 117 l 547 307 l 253 229 l 204 126 l 163 0 l -25 0 l 406 894 l 1017 894 l 1029 879 l 1014 739 l 799 746 l 676 746 l 707 494 l 976 564 l 990 553 l 1006 421 l 724 354 l 749 147 l 890 147 l 1119 156 l 1131 140 m 531 449 l 497 718 l 485 718 l 333 397 l 531 449 z "},"Ǽ":{"ha":1142,"x_min":-25,"x_max":1131,"o":"m 1131 140 l 1118 0 l 578 0 l 571 117 l 547 307 l 253 229 l 204 126 l 163 0 l -25 0 l 406 894 l 1017 894 l 1029 879 l 1014 739 l 799 746 l 676 746 l 707 494 l 976 564 l 990 553 l 1006 421 l 724 354 l 749 147 l 890 147 l 1119 156 l 1131 140 m 531 449 l 497 718 l 485 718 l 333 397 l 531 449 m 853 1231 l 900 1121 l 894 1104 q 594 996 760 1051 l 578 1001 l 547 1078 q 835 1235 718 1164 l 853 1231 z "},"B":{"ha":804,"x_min":108,"x_max":760,"o":"m 581 464 q 716 390 672 442 q 760 253 760 338 q 353 -7 760 -7 q 108 0 233 -7 l 118 267 l 108 894 l 426 896 q 640 838 564 896 q 717 672 717 781 q 681 546 717 600 q 581 464 646 492 m 524 647 q 488 734 524 708 q 361 760 451 760 l 293 760 l 289 517 l 419 513 q 498 558 472 526 q 524 647 524 590 m 385 128 q 520 163 472 128 q 568 263 568 197 q 440 385 568 361 l 286 382 l 285 283 l 289 133 q 385 128 338 128 z "},"C":{"ha":718,"x_min":39,"x_max":701,"o":"m 467 906 q 701 851 597 906 l 668 694 l 653 688 q 561 733 611 717 q 458 750 511 750 q 238 460 238 750 q 295 224 238 303 q 464 146 353 146 q 570 162 515 146 q 669 206 625 178 l 686 196 l 671 36 q 449 -12 565 -12 q 144 104 249 -12 q 39 439 39 221 q 151 783 39 661 q 467 906 263 906 z "},"Ć":{"ha":718,"x_min":39,"x_max":701,"o":"m 467 906 q 701 851 597 906 l 668 694 l 653 688 q 561 733 611 717 q 458 750 511 750 q 238 460 238 750 q 295 224 238 303 q 464 146 353 146 q 570 162 515 146 q 669 206 625 178 l 686 196 l 671 36 q 449 -12 565 -12 q 144 104 249 -12 q 39 439 39 221 q 151 783 39 661 q 467 906 263 906 m 593 1231 l 640 1121 l 635 1104 q 335 996 500 1051 l 318 1001 l 288 1078 q 575 1235 458 1164 l 593 1231 z "},"Č":{"ha":718,"x_min":39,"x_max":701,"o":"m 467 906 q 701 851 597 906 l 668 694 l 653 688 q 561 733 611 717 q 458 750 511 750 q 238 460 238 750 q 295 224 238 303 q 464 146 353 146 q 570 162 515 146 q 669 206 625 178 l 686 196 l 671 36 q 449 -12 565 -12 q 144 104 249 -12 q 39 439 39 221 q 151 783 39 661 q 467 906 263 906 m 642 1142 q 457 997 546 1076 l 419 997 q 233 1142 322 1081 l 267 1215 l 285 1215 l 321 1194 q 438 1128 379 1163 q 590 1215 490 1160 l 608 1215 l 642 1142 z "},"Ç":{"ha":718,"x_min":39,"x_max":701,"o":"m 467 906 q 701 851 597 906 l 668 694 l 653 688 q 561 733 611 717 q 458 750 511 750 q 238 460 238 750 q 295 224 238 303 q 464 146 353 146 q 570 162 515 146 q 669 206 625 178 l 686 196 l 671 36 q 449 -12 565 -12 q 144 104 249 -12 q 39 439 39 221 q 151 783 39 661 q 467 906 263 906 m 463 -67 l 510 -93 q 553 -130 540 -110 q 567 -175 567 -150 q 531 -250 567 -221 q 436 -279 494 -279 q 322 -240 374 -279 l 335 -162 l 343 -158 q 425 -200 385 -200 q 458 -171 458 -200 q 453 -155 458 -161 q 435 -143 447 -149 l 367 -104 l 399 36 l 488 36 l 463 -67 z "},"Ḉ":{"ha":718,"x_min":39,"x_max":701,"o":"m 467 906 q 701 851 597 906 l 668 694 l 653 688 q 561 733 611 717 q 458 750 511 750 q 238 460 238 750 q 295 224 238 303 q 464 146 353 146 q 570 162 515 146 q 669 206 625 178 l 686 196 l 671 36 q 449 -12 565 -12 q 144 104 249 -12 q 39 439 39 221 q 151 783 39 661 q 467 906 263 906 m 463 -67 l 510 -93 q 553 -130 540 -110 q 567 -175 567 -150 q 531 -250 567 -221 q 436 -279 494 -279 q 322 -240 374 -279 l 335 -162 l 343 -158 q 425 -200 385 -200 q 458 -171 458 -200 q 453 -155 458 -161 q 435 -143 447 -149 l 367 -104 l 399 36 l 488 36 l 463 -67 m 593 1231 l 640 1121 l 635 1104 q 335 996 500 1051 l 318 1001 l 288 1078 q 575 1235 458 1164 l 593 1231 z "},"Ĉ":{"ha":718,"x_min":39,"x_max":701,"o":"m 467 906 q 701 851 597 906 l 668 694 l 653 688 q 561 733 611 717 q 458 750 511 750 q 238 460 238 750 q 295 224 238 303 q 464 146 353 146 q 570 162 515 146 q 669 206 625 178 l 686 196 l 671 36 q 449 -12 565 -12 q 144 104 249 -12 q 39 439 39 221 q 151 783 39 661 q 467 906 263 906 m 235 1085 q 419 1229 331 1150 l 457 1229 q 643 1085 554 1146 l 610 1011 l 592 1011 l 556 1032 q 439 1099 497 1064 q 286 1011 386 1067 l 268 1011 l 235 1085 z "},"Ċ":{"ha":718,"x_min":39,"x_max":701,"o":"m 467 906 q 701 851 597 906 l 668 694 l 653 688 q 561 733 611 717 q 458 750 511 750 q 238 460 238 750 q 295 224 238 303 q 464 146 353 146 q 570 162 515 146 q 669 206 625 178 l 686 196 l 671 36 q 449 -12 565 -12 q 144 104 249 -12 q 39 439 39 221 q 151 783 39 661 q 467 906 263 906 m 442 1211 q 509 1186 485 1211 q 533 1117 533 1161 q 507 1042 533 1069 q 435 1014 481 1014 q 365 1039 389 1014 q 340 1110 340 1064 q 367 1183 340 1156 q 442 1211 394 1211 z "},"D":{"ha":910,"x_min":108,"x_max":871,"o":"m 468 900 q 767 792 663 900 q 871 481 871 683 q 754 117 871 243 q 421 -10 638 -10 q 265 -7 356 -10 q 108 0 174 -4 l 118 267 l 108 894 l 468 900 m 454 136 q 675 438 675 136 q 622 676 675 601 q 454 750 568 750 q 297 743 381 750 l 289 283 l 293 146 q 454 136 390 136 z "},"Ǆ":{"ha":1669,"x_min":108,"x_max":1632,"o":"m 468 900 q 767 792 663 900 q 871 481 871 683 q 754 117 871 243 q 421 -10 638 -10 q 265 -7 356 -10 q 108 0 174 -4 l 118 267 l 108 894 l 468 900 m 454 136 q 675 438 675 136 q 622 676 675 601 q 454 750 568 750 q 297 743 381 750 l 289 283 l 293 146 q 454 136 390 136 m 1618 758 l 1174 143 l 1474 143 l 1625 156 l 1632 144 l 1617 -4 l 1415 0 l 1058 0 l 951 -6 l 951 129 l 1400 750 l 1117 750 l 965 738 l 957 747 l 971 896 l 1532 894 l 1618 896 l 1618 758 m 1494 1142 q 1310 997 1399 1076 l 1272 997 q 1086 1142 1175 1081 l 1119 1215 l 1138 1215 l 1174 1194 q 1290 1128 1232 1163 q 1443 1215 1343 1160 l 1461 1215 l 1494 1142 z "},"Ð":{"ha":944,"x_min":18,"x_max":906,"o":"m 503 900 q 801 792 697 900 q 906 481 906 683 q 789 117 906 243 q 456 -10 672 -10 q 299 -7 390 -10 q 143 0 208 -4 l 153 267 l 143 894 l 503 900 m 489 136 q 710 438 710 136 q 656 676 710 601 q 489 750 603 750 q 332 743 415 750 l 324 283 l 328 146 q 489 136 425 136 m 497 493 l 491 382 l 26 382 l 18 394 l 24 507 l 489 507 l 497 493 z "},"Ď":{"ha":910,"x_min":108,"x_max":871,"o":"m 468 900 q 767 792 663 900 q 871 481 871 683 q 754 117 871 243 q 421 -10 638 -10 q 265 -7 356 -10 q 108 0 174 -4 l 118 267 l 108 894 l 468 900 m 454 136 q 675 438 675 136 q 622 676 675 601 q 454 750 568 750 q 297 743 381 750 l 289 283 l 293 146 q 454 136 390 136 m 660 1142 q 475 997 564 1076 l 438 997 q 251 1142 340 1081 l 285 1215 l 303 1215 l 339 1194 q 456 1128 397 1163 q 608 1215 508 1160 l 626 1215 l 660 1142 z "},"Đ":{"ha":944,"x_min":18,"x_max":906,"o":"m 503 900 q 801 792 697 900 q 906 481 906 683 q 789 117 906 243 q 456 -10 672 -10 q 299 -7 390 -10 q 143 0 208 -4 l 153 267 l 143 894 l 503 900 m 489 136 q 710 438 710 136 q 656 676 710 601 q 489 750 603 750 q 332 743 415 750 l 324 283 l 328 146 q 489 136 425 136 m 497 493 l 491 382 l 26 382 l 18 394 l 24 507 l 489 507 l 497 493 z "},"Ḍ":{"ha":910,"x_min":108,"x_max":871,"o":"m 468 900 q 767 792 663 900 q 871 481 871 683 q 754 117 871 243 q 421 -10 638 -10 q 265 -7 356 -10 q 108 0 174 -4 l 118 267 l 108 894 l 468 900 m 454 136 q 675 438 675 136 q 622 676 675 601 q 454 750 568 750 q 297 743 381 750 l 289 283 l 293 146 q 454 136 390 136 m 460 -72 q 527 -97 503 -72 q 551 -167 551 -122 q 525 -242 551 -214 q 453 -269 499 -269 q 383 -244 407 -269 q 358 -174 358 -219 q 385 -100 358 -128 q 460 -72 413 -72 z "},"Ḏ":{"ha":910,"x_min":108,"x_max":871,"o":"m 468 900 q 767 792 663 900 q 871 481 871 683 q 754 117 871 243 q 421 -10 638 -10 q 265 -7 356 -10 q 108 0 174 -4 l 118 267 l 108 894 l 468 900 m 454 136 q 675 438 675 136 q 622 676 675 601 q 454 750 568 750 q 297 743 381 750 l 289 283 l 293 146 q 454 136 390 136 m 636 -133 l 628 -237 l 286 -237 l 274 -224 l 282 -121 l 624 -121 l 636 -133 z "},"ǅ":{"ha":1499,"x_min":108,"x_max":1465,"o":"m 468 900 q 767 792 663 900 q 871 481 871 683 q 754 117 871 243 q 421 -10 638 -10 q 265 -7 356 -10 q 108 0 174 -4 l 118 267 l 108 894 l 468 900 m 454 136 q 675 438 675 136 q 622 676 675 601 q 454 750 568 750 q 297 743 381 750 l 289 283 l 293 146 q 454 136 390 136 m 1101 646 l 1382 646 l 1453 647 l 1454 538 l 1142 118 l 1338 118 l 1456 129 l 1465 117 l 1453 -3 l 1292 0 l 1036 0 l 947 -4 l 947 104 l 1263 526 l 1076 526 l 961 517 l 950 529 l 964 649 l 1101 646 m 1419 924 q 1224 728 1340 851 l 1183 728 q 989 924 1075 847 l 1035 994 l 1053 994 q 1204 867 1144 922 q 1354 994 1258 918 l 1372 994 l 1419 924 z "},"E":{"ha":707,"x_min":108,"x_max":686,"o":"m 671 156 l 682 140 l 669 0 l 108 0 l 118 267 l 108 894 l 675 894 l 686 879 l 672 739 l 458 746 l 297 744 l 293 529 l 447 526 l 593 531 l 604 517 l 592 376 l 433 381 l 290 379 l 289 283 l 293 149 l 450 147 l 671 156 z "},"É":{"ha":707,"x_min":108,"x_max":686,"o":"m 671 156 l 682 140 l 669 0 l 108 0 l 118 267 l 108 894 l 675 894 l 686 879 l 672 739 l 458 746 l 297 744 l 293 529 l 447 526 l 593 531 l 604 517 l 592 376 l 433 381 l 290 379 l 289 283 l 293 149 l 450 147 l 671 156 m 547 1231 l 594 1121 l 589 1104 q 289 996 454 1051 l 272 1001 l 242 1078 q 529 1235 413 1164 l 547 1231 z "},"Ĕ":{"ha":707,"x_min":108,"x_max":686,"o":"m 671 156 l 682 140 l 669 0 l 108 0 l 118 267 l 108 894 l 675 894 l 686 879 l 672 739 l 458 746 l 297 744 l 293 529 l 447 526 l 593 531 l 604 517 l 592 376 l 433 381 l 290 379 l 289 283 l 293 149 l 450 147 l 671 156 m 600 1147 q 521 1039 575 1076 q 389 1001 467 1001 q 260 1039 314 1001 q 183 1147 207 1076 l 226 1207 l 253 1207 q 308 1150 271 1171 q 394 1129 344 1129 q 478 1149 443 1129 q 532 1207 514 1169 l 558 1207 l 600 1147 z "},"Ě":{"ha":707,"x_min":108,"x_max":686,"o":"m 671 156 l 682 140 l 669 0 l 108 0 l 118 267 l 108 894 l 675 894 l 686 879 l 672 739 l 458 746 l 297 744 l 293 529 l 447 526 l 593 531 l 604 517 l 592 376 l 433 381 l 290 379 l 289 283 l 293 149 l 450 147 l 671 156 m 596 1142 q 411 997 500 1076 l 374 997 q 188 1142 276 1081 l 221 1215 l 239 1215 l 275 1194 q 392 1128 333 1163 q 544 1215 444 1160 l 563 1215 l 596 1142 z "},"Ḝ":{"ha":707,"x_min":108,"x_max":686,"o":"m 671 156 l 682 140 l 669 0 l 108 0 l 118 267 l 108 894 l 675 894 l 686 879 l 672 739 l 458 746 l 297 744 l 293 529 l 447 526 l 593 531 l 604 517 l 592 376 l 433 381 l 290 379 l 289 283 l 293 149 l 450 147 l 671 156 m 436 -67 l 483 -93 q 527 -130 514 -110 q 540 -175 540 -150 q 504 -250 540 -221 q 410 -279 468 -279 q 296 -240 347 -279 l 308 -162 l 317 -158 q 399 -200 358 -200 q 432 -171 432 -200 q 426 -155 432 -161 q 408 -143 421 -149 l 340 -104 l 372 36 l 461 36 l 436 -67 m 600 1147 q 521 1039 575 1076 q 389 1001 467 1001 q 260 1039 314 1001 q 183 1147 207 1076 l 226 1207 l 253 1207 q 308 1150 271 1171 q 394 1129 344 1129 q 478 1149 443 1129 q 532 1207 514 1169 l 558 1207 l 600 1147 z "},"Ê":{"ha":707,"x_min":108,"x_max":686,"o":"m 671 156 l 682 140 l 669 0 l 108 0 l 118 267 l 108 894 l 675 894 l 686 879 l 672 739 l 458 746 l 297 744 l 293 529 l 447 526 l 593 531 l 604 517 l 592 376 l 433 381 l 290 379 l 289 283 l 293 149 l 450 147 l 671 156 m 189 1085 q 374 1229 285 1150 l 411 1229 q 597 1085 508 1146 l 564 1011 l 546 1011 l 510 1032 q 393 1099 451 1064 q 240 1011 340 1067 l 222 1011 l 189 1085 z "},"Ế":{"ha":707,"x_min":108,"x_max":686,"o":"m 671 156 l 682 140 l 669 0 l 108 0 l 118 267 l 108 894 l 675 894 l 686 879 l 672 739 l 458 746 l 297 744 l 293 529 l 447 526 l 593 531 l 604 517 l 592 376 l 433 381 l 290 379 l 289 283 l 293 149 l 450 147 l 671 156 m 654 1318 l 660 1304 l 546 1161 l 532 1161 l 468 1208 l 551 1356 l 565 1363 l 654 1318 m 188 1057 q 372 1201 301 1138 l 410 1201 q 596 1057 493 1128 l 563 983 l 544 983 l 392 1071 l 239 983 l 221 983 l 188 1057 z "},"Ệ":{"ha":707,"x_min":108,"x_max":686,"o":"m 671 156 l 682 140 l 669 0 l 108 0 l 118 267 l 108 894 l 675 894 l 686 879 l 672 739 l 458 746 l 297 744 l 293 529 l 447 526 l 593 531 l 604 517 l 592 376 l 433 381 l 290 379 l 289 283 l 293 149 l 450 147 l 671 156 m 413 -72 q 480 -97 456 -72 q 504 -167 504 -122 q 478 -242 504 -214 q 406 -269 451 -269 q 335 -244 360 -269 q 311 -174 311 -219 q 338 -100 311 -128 q 413 -72 365 -72 m 189 1085 q 374 1229 285 1150 l 411 1229 q 597 1085 508 1146 l 564 1011 l 546 1011 l 510 1032 q 393 1099 451 1064 q 240 1011 340 1067 l 222 1011 l 189 1085 z "},"Ề":{"ha":707,"x_min":108,"x_max":686,"o":"m 671 156 l 682 140 l 669 0 l 108 0 l 118 267 l 108 894 l 675 894 l 686 879 l 672 739 l 458 746 l 297 744 l 293 529 l 447 526 l 593 531 l 604 517 l 592 376 l 433 381 l 290 379 l 289 283 l 293 149 l 450 147 l 671 156 m 426 1304 l 431 1318 l 519 1363 l 533 1356 l 618 1208 l 554 1161 l 540 1161 l 426 1304 m 188 1057 q 372 1201 301 1138 l 410 1201 q 596 1057 493 1128 l 563 983 l 544 983 l 392 1071 l 239 983 l 221 983 l 188 1057 z "},"Ể":{"ha":707,"x_min":108,"x_max":686,"o":"m 671 156 l 682 140 l 669 0 l 108 0 l 118 267 l 108 894 l 675 894 l 686 879 l 672 739 l 458 746 l 297 744 l 293 529 l 447 526 l 593 531 l 604 517 l 592 376 l 433 381 l 290 379 l 289 283 l 293 149 l 450 147 l 671 156 m 188 1085 q 372 1229 283 1150 l 410 1229 q 596 1085 507 1146 l 563 1011 l 544 1011 l 508 1032 q 392 1099 450 1064 q 239 1011 339 1067 l 221 1011 l 188 1085 m 504 1263 q 556 1313 537 1287 q 574 1358 574 1339 q 564 1380 574 1373 q 537 1387 555 1387 q 494 1379 517 1387 q 450 1354 470 1370 l 421 1402 q 488 1452 451 1434 q 562 1471 525 1471 q 641 1444 610 1471 q 672 1374 672 1417 q 656 1325 672 1349 q 597 1264 639 1300 l 627 1213 l 562 1175 l 504 1263 z "},"Ễ":{"ha":707,"x_min":108,"x_max":686,"o":"m 671 156 l 682 140 l 669 0 l 108 0 l 118 267 l 108 894 l 675 894 l 686 879 l 672 739 l 458 746 l 297 744 l 293 529 l 447 526 l 593 531 l 604 517 l 592 376 l 433 381 l 290 379 l 289 283 l 293 149 l 450 147 l 671 156 m 189 1085 q 374 1229 285 1150 l 411 1229 q 597 1085 508 1146 l 564 1011 l 546 1011 l 510 1032 q 393 1099 451 1064 q 240 1011 340 1067 l 222 1011 l 189 1085 m 633 1411 l 633 1394 l 535 1271 l 518 1265 q 401 1293 488 1269 q 304 1314 324 1314 q 275 1302 289 1314 q 238 1265 261 1290 l 217 1243 l 200 1243 l 146 1297 l 146 1313 l 244 1436 l 261 1443 q 379 1415 289 1439 q 423 1403 386 1414 q 475 1393 460 1393 q 505 1406 490 1393 q 536 1437 519 1418 q 563 1465 553 1456 l 578 1465 l 633 1411 z "},"Ȅ":{"ha":707,"x_min":108,"x_max":686,"o":"m 671 156 l 682 140 l 669 0 l 108 0 l 118 267 l 108 894 l 675 894 l 686 879 l 672 739 l 458 746 l 297 744 l 293 529 l 447 526 l 593 531 l 604 517 l 592 376 l 433 381 l 290 379 l 289 283 l 293 149 l 450 147 l 671 156 m 304 993 l 289 997 q 114 1158 185 1090 l 117 1174 l 203 1229 l 217 1226 q 308 1110 244 1189 l 363 1040 l 304 993 m 519 993 l 503 997 q 329 1158 413 1076 l 332 1174 l 417 1229 l 432 1226 q 578 1040 481 1158 l 519 993 z "},"Ë":{"ha":707,"x_min":108,"x_max":686,"o":"m 671 156 l 682 140 l 669 0 l 108 0 l 118 267 l 108 894 l 675 894 l 686 879 l 672 739 l 458 746 l 297 744 l 293 529 l 447 526 l 593 531 l 604 517 l 592 376 l 433 381 l 290 379 l 289 283 l 293 149 l 450 147 l 671 156 m 276 1196 q 338 1174 315 1196 q 360 1111 360 1151 q 335 1043 360 1068 q 269 1018 311 1018 q 207 1040 229 1018 q 185 1104 185 1063 q 209 1171 185 1146 q 276 1196 233 1196 m 517 1196 q 578 1174 556 1196 q 600 1111 600 1151 q 576 1043 600 1068 q 511 1018 551 1018 q 449 1040 471 1018 q 426 1104 426 1063 q 451 1171 426 1146 q 517 1196 475 1196 z "},"Ė":{"ha":707,"x_min":108,"x_max":686,"o":"m 671 156 l 682 140 l 669 0 l 108 0 l 118 267 l 108 894 l 675 894 l 686 879 l 672 739 l 458 746 l 297 744 l 293 529 l 447 526 l 593 531 l 604 517 l 592 376 l 433 381 l 290 379 l 289 283 l 293 149 l 450 147 l 671 156 m 396 1211 q 463 1186 439 1211 q 488 1117 488 1161 q 461 1042 488 1069 q 389 1014 435 1014 q 319 1039 343 1014 q 294 1110 294 1064 q 322 1183 294 1156 q 396 1211 349 1211 z "},"Ẹ":{"ha":707,"x_min":108,"x_max":686,"o":"m 671 156 l 682 140 l 669 0 l 108 0 l 118 267 l 108 894 l 675 894 l 686 879 l 672 739 l 458 746 l 297 744 l 293 529 l 447 526 l 593 531 l 604 517 l 592 376 l 433 381 l 290 379 l 289 283 l 293 149 l 450 147 l 671 156 m 413 -72 q 480 -97 456 -72 q 504 -167 504 -122 q 478 -242 504 -214 q 406 -269 451 -269 q 335 -244 360 -269 q 311 -174 311 -219 q 338 -100 311 -128 q 413 -72 365 -72 z "},"È":{"ha":707,"x_min":108,"x_max":686,"o":"m 671 156 l 682 140 l 669 0 l 108 0 l 118 267 l 108 894 l 675 894 l 686 879 l 672 739 l 458 746 l 297 744 l 293 529 l 447 526 l 593 531 l 604 517 l 592 376 l 433 381 l 290 379 l 289 283 l 293 149 l 450 147 l 671 156 m 281 1235 q 568 1078 394 1167 l 539 1001 l 521 996 q 222 1104 353 1053 l 217 1121 l 263 1231 l 281 1235 z "},"Ẻ":{"ha":707,"x_min":108,"x_max":686,"o":"m 671 156 l 682 140 l 669 0 l 108 0 l 118 267 l 108 894 l 675 894 l 686 879 l 672 739 l 458 746 l 297 744 l 293 529 l 447 526 l 593 531 l 604 517 l 592 376 l 433 381 l 290 379 l 289 283 l 293 149 l 450 147 l 671 156 m 335 1044 q 389 1097 369 1069 q 408 1144 408 1124 q 398 1167 408 1160 q 369 1175 388 1175 q 324 1166 349 1175 q 278 1140 299 1157 l 247 1190 q 318 1243 279 1224 q 396 1263 357 1263 q 478 1234 446 1263 q 511 1161 511 1206 q 494 1109 511 1135 q 432 1046 476 1083 l 464 992 l 396 951 l 335 1044 z "},"Ȇ":{"ha":707,"x_min":108,"x_max":686,"o":"m 671 156 l 682 140 l 669 0 l 108 0 l 118 267 l 108 894 l 675 894 l 686 879 l 672 739 l 458 746 l 297 744 l 293 529 l 447 526 l 593 531 l 604 517 l 592 376 l 433 381 l 290 379 l 289 283 l 293 149 l 450 147 l 671 156 m 182 1069 q 256 1196 203 1149 q 396 1243 310 1243 q 530 1194 479 1243 q 600 1069 581 1146 l 554 1007 l 529 1007 q 476 1085 511 1058 q 390 1113 440 1113 q 305 1085 340 1113 q 253 1007 269 1058 l 228 1007 l 182 1069 z "},"Ē":{"ha":707,"x_min":108,"x_max":686,"o":"m 671 156 l 682 140 l 669 0 l 108 0 l 118 267 l 108 894 l 675 894 l 686 879 l 672 739 l 458 746 l 297 744 l 293 529 l 447 526 l 593 531 l 604 517 l 592 376 l 433 381 l 290 379 l 289 283 l 293 149 l 450 147 l 671 156 m 596 1153 l 588 1050 l 199 1050 l 186 1063 l 194 1165 l 583 1165 l 596 1153 z "},"Ḗ":{"ha":707,"x_min":108,"x_max":686,"o":"m 671 156 l 682 140 l 669 0 l 108 0 l 118 267 l 108 894 l 675 894 l 686 879 l 672 739 l 458 746 l 297 744 l 293 529 l 447 526 l 593 531 l 604 517 l 592 376 l 433 381 l 290 379 l 289 283 l 293 149 l 450 147 l 671 156 m 540 1388 l 567 1272 l 558 1256 q 244 1203 361 1218 l 228 1210 l 213 1292 q 524 1396 381 1342 l 540 1388 m 558 1121 l 549 1017 l 236 1017 l 224 1031 l 233 1133 l 546 1133 l 558 1121 z "},"Ḕ":{"ha":707,"x_min":108,"x_max":686,"o":"m 671 156 l 682 140 l 669 0 l 108 0 l 118 267 l 108 894 l 675 894 l 686 879 l 672 739 l 458 746 l 297 744 l 293 529 l 447 526 l 593 531 l 604 517 l 592 376 l 433 381 l 290 379 l 289 283 l 293 149 l 450 147 l 671 156 m 538 1203 q 225 1256 426 1218 l 215 1272 l 242 1388 l 258 1396 q 569 1292 401 1342 l 554 1210 l 538 1203 m 558 1121 l 549 1017 l 236 1017 l 224 1031 l 233 1133 l 546 1133 l 558 1121 z "},"Ę":{"ha":707,"x_min":108,"x_max":686,"o":"m 671 156 l 682 140 l 669 0 l 108 0 l 118 267 l 108 894 l 675 894 l 686 879 l 672 739 l 458 746 l 297 744 l 293 529 l 447 526 l 593 531 l 604 517 l 592 376 l 433 381 l 290 379 l 289 283 l 293 149 l 450 147 l 671 156 m 510 -306 q 406 -274 444 -306 q 367 -187 367 -242 q 401 -97 367 -142 q 531 18 435 -51 l 631 18 q 510 -109 538 -75 q 483 -164 483 -143 q 524 -199 483 -199 q 625 -157 567 -199 l 635 -160 l 657 -246 q 510 -306 583 -306 z "},"Ẽ":{"ha":707,"x_min":108,"x_max":686,"o":"m 671 156 l 682 140 l 669 0 l 108 0 l 118 267 l 108 894 l 675 894 l 686 879 l 672 739 l 458 746 l 297 744 l 293 529 l 447 526 l 593 531 l 604 517 l 592 376 l 433 381 l 290 379 l 289 283 l 293 149 l 450 147 l 671 156 m 633 1168 l 633 1153 l 536 1029 l 518 1022 q 403 1049 481 1026 q 358 1060 396 1050 q 304 1071 319 1071 q 274 1058 289 1071 q 243 1028 260 1046 q 218 1000 226 1010 l 201 1000 l 146 1054 l 146 1069 l 244 1193 l 261 1200 q 379 1172 294 1196 q 475 1151 457 1151 q 508 1165 492 1151 q 540 1197 524 1179 q 563 1222 557 1215 l 579 1222 l 633 1168 z "},"F":{"ha":633,"x_min":108,"x_max":651,"o":"m 297 744 l 293 503 l 418 501 l 569 506 l 582 492 l 568 351 l 403 356 l 290 354 l 289 283 l 297 0 l 108 0 l 118 267 l 108 894 l 640 894 l 651 879 l 638 738 l 425 746 l 297 744 z "},"G":{"ha":831,"x_min":39,"x_max":768,"o":"m 506 906 q 768 851 651 906 l 728 682 l 710 679 q 588 735 642 718 q 474 753 535 753 q 293 679 350 753 q 236 438 236 606 q 260 261 236 326 q 336 166 285 196 q 472 136 388 136 q 527 140 501 136 q 590 156 553 144 l 593 232 l 590 374 l 764 386 l 760 261 l 764 43 q 457 -12 597 -12 q 144 101 249 -12 q 39 428 39 215 q 160 783 39 660 q 506 906 282 906 z "},"Ğ":{"ha":831,"x_min":39,"x_max":768,"o":"m 506 906 q 768 851 651 906 l 728 682 l 710 679 q 588 735 642 718 q 474 753 535 753 q 293 679 350 753 q 236 438 236 606 q 260 261 236 326 q 336 166 285 196 q 472 136 388 136 q 527 140 501 136 q 590 156 553 144 l 593 232 l 590 374 l 764 386 l 760 261 l 764 43 q 457 -12 597 -12 q 144 101 249 -12 q 39 428 39 215 q 160 783 39 660 q 506 906 282 906 m 663 1147 q 583 1039 638 1076 q 451 1001 529 1001 q 323 1039 376 1001 q 246 1147 269 1076 l 289 1207 l 315 1207 q 370 1150 333 1171 q 457 1129 407 1129 q 541 1149 506 1129 q 594 1207 576 1169 l 621 1207 l 663 1147 z "},"Ǧ":{"ha":831,"x_min":39,"x_max":768,"o":"m 506 906 q 768 851 651 906 l 728 682 l 710 679 q 588 735 642 718 q 474 753 535 753 q 293 679 350 753 q 236 438 236 606 q 260 261 236 326 q 336 166 285 196 q 472 136 388 136 q 527 140 501 136 q 590 156 553 144 l 593 232 l 590 374 l 764 386 l 760 261 l 764 43 q 457 -12 597 -12 q 144 101 249 -12 q 39 428 39 215 q 160 783 39 660 q 506 906 282 906 m 658 1142 q 474 997 563 1076 l 436 997 q 250 1142 339 1081 l 283 1215 l 301 1215 l 338 1194 q 454 1128 396 1163 q 607 1215 507 1160 l 625 1215 l 658 1142 z "},"Ĝ":{"ha":831,"x_min":39,"x_max":768,"o":"m 506 906 q 768 851 651 906 l 728 682 l 710 679 q 588 735 642 718 q 474 753 535 753 q 293 679 350 753 q 236 438 236 606 q 260 261 236 326 q 336 166 285 196 q 472 136 388 136 q 527 140 501 136 q 590 156 553 144 l 593 232 l 590 374 l 764 386 l 760 261 l 764 43 q 457 -12 597 -12 q 144 101 249 -12 q 39 428 39 215 q 160 783 39 660 q 506 906 282 906 m 251 1085 q 436 1229 347 1150 l 474 1229 q 660 1085 571 1146 l 626 1011 l 608 1011 l 572 1032 q 456 1099 514 1064 q 303 1011 403 1067 l 285 1011 l 251 1085 z "},"Ģ":{"ha":831,"x_min":39,"x_max":768,"o":"m 506 906 q 768 851 651 906 l 728 682 l 710 679 q 588 735 642 718 q 474 753 535 753 q 293 679 350 753 q 236 438 236 606 q 260 261 236 326 q 336 166 285 196 q 472 136 388 136 q 527 140 501 136 q 590 156 553 144 l 593 232 l 590 374 l 764 386 l 760 261 l 764 43 q 457 -12 597 -12 q 144 101 249 -12 q 39 428 39 215 q 160 783 39 660 q 506 906 282 906 m 468 -56 q 524 -162 524 -99 q 487 -271 524 -218 q 374 -378 450 -324 l 321 -331 l 319 -318 q 388 -196 388 -260 q 347 -121 388 -153 l 349 -107 q 468 -56 404 -74 z "},"Ġ":{"ha":831,"x_min":39,"x_max":768,"o":"m 506 906 q 768 851 651 906 l 728 682 l 710 679 q 588 735 642 718 q 474 753 535 753 q 293 679 350 753 q 236 438 236 606 q 260 261 236 326 q 336 166 285 196 q 472 136 388 136 q 527 140 501 136 q 590 156 553 144 l 593 232 l 590 374 l 764 386 l 760 261 l 764 43 q 457 -12 597 -12 q 144 101 249 -12 q 39 428 39 215 q 160 783 39 660 q 506 906 282 906 m 458 1211 q 526 1186 501 1211 q 550 1117 550 1161 q 524 1042 550 1069 q 451 1014 497 1014 q 381 1039 406 1014 q 357 1110 357 1064 q 384 1183 357 1156 q 458 1211 411 1211 z "},"Ḡ":{"ha":831,"x_min":39,"x_max":768,"o":"m 506 906 q 768 851 651 906 l 728 682 l 710 679 q 588 735 642 718 q 474 753 535 753 q 293 679 350 753 q 236 438 236 606 q 260 261 236 326 q 336 166 285 196 q 472 136 388 136 q 527 140 501 136 q 590 156 553 144 l 593 232 l 590 374 l 764 386 l 760 261 l 764 43 q 457 -12 597 -12 q 144 101 249 -12 q 39 428 39 215 q 160 783 39 660 q 506 906 282 906 m 658 1153 l 650 1050 l 261 1050 l 249 1063 l 257 1165 l 646 1165 l 658 1153 z "},"H":{"ha":967,"x_min":114,"x_max":864,"o":"m 854 283 l 860 0 l 672 0 l 681 267 l 679 371 l 478 372 l 296 369 l 294 283 l 301 0 l 114 0 l 124 267 l 114 894 l 304 894 l 299 525 l 490 522 l 678 525 l 672 894 l 864 894 l 854 283 z "},"Ħ":{"ha":1011,"x_min":36,"x_max":975,"o":"m 872 660 l 867 283 l 874 0 l 686 0 l 694 267 l 693 371 l 492 372 l 310 369 l 308 283 l 315 0 l 128 0 l 136 267 l 131 660 l 46 660 l 36 669 l 43 768 l 129 768 l 128 894 l 318 894 l 317 768 l 688 768 l 686 894 l 876 894 l 875 768 l 967 768 l 975 757 l 969 660 l 872 660 m 689 660 l 314 660 l 313 525 l 504 522 l 692 525 l 689 660 z "},"Ḫ":{"ha":967,"x_min":114,"x_max":864,"o":"m 854 283 l 860 0 l 672 0 l 681 267 l 679 371 l 478 372 l 296 369 l 294 283 l 301 0 l 114 0 l 124 267 l 114 894 l 304 894 l 299 525 l 490 522 l 678 525 l 672 894 l 864 894 l 854 283 m 693 -136 q 619 -262 672 -215 q 479 -310 565 -310 q 345 -261 396 -310 q 275 -136 294 -212 l 321 -74 l 346 -74 q 399 -152 364 -125 q 485 -179 435 -179 q 570 -152 535 -179 q 622 -74 606 -125 l 647 -74 l 693 -136 z "},"Ĥ":{"ha":967,"x_min":114,"x_max":864,"o":"m 854 283 l 860 0 l 672 0 l 681 267 l 679 371 l 478 372 l 296 369 l 294 283 l 301 0 l 114 0 l 124 267 l 114 894 l 304 894 l 299 525 l 490 522 l 678 525 l 672 894 l 864 894 l 854 283 m 282 1085 q 467 1229 378 1150 l 504 1229 q 690 1085 601 1146 l 657 1011 l 639 1011 l 603 1032 q 486 1099 544 1064 q 333 1011 433 1067 l 315 1011 l 282 1085 z "},"Ḥ":{"ha":967,"x_min":114,"x_max":864,"o":"m 854 283 l 860 0 l 672 0 l 681 267 l 679 371 l 478 372 l 296 369 l 294 283 l 301 0 l 114 0 l 124 267 l 114 894 l 304 894 l 299 525 l 490 522 l 678 525 l 672 894 l 864 894 l 854 283 m 489 -72 q 556 -97 532 -72 q 581 -167 581 -122 q 554 -242 581 -214 q 482 -269 528 -269 q 412 -244 436 -269 q 388 -174 388 -219 q 415 -100 388 -128 q 489 -72 442 -72 z "},"I":{"ha":410,"x_min":108,"x_max":300,"o":"m 289 283 l 297 0 l 108 0 l 118 267 l 108 894 l 300 894 l 289 283 z "},"Ĳ":{"ha":875,"x_min":108,"x_max":768,"o":"m 289 283 l 297 0 l 108 0 l 118 267 l 108 894 l 300 894 l 289 283 m 758 294 l 761 168 q 735 33 761 89 q 649 -65 708 -22 q 488 -147 590 -108 l 431 -47 l 431 -31 q 552 58 517 14 q 588 171 588 101 l 588 276 l 579 756 l 432 751 l 418 765 l 428 894 l 768 894 l 758 294 z "},"Í":{"ha":410,"x_min":54,"x_max":407,"o":"m 289 283 l 297 0 l 108 0 l 118 267 l 108 894 l 300 894 l 289 283 m 360 1231 l 407 1121 l 401 1104 q 101 996 267 1051 l 85 1001 l 54 1078 q 342 1235 225 1164 l 360 1231 z "},"Ĭ":{"ha":410,"x_min":-4,"x_max":413,"o":"m 289 283 l 297 0 l 108 0 l 118 267 l 108 894 l 300 894 l 289 283 m 413 1147 q 333 1039 388 1076 q 201 1001 279 1001 q 73 1039 126 1001 q -4 1147 19 1076 l 39 1207 l 65 1207 q 120 1150 83 1171 q 207 1129 157 1129 q 291 1149 256 1129 q 344 1207 326 1169 l 371 1207 l 413 1147 z "},"Ǐ":{"ha":410,"x_min":0,"x_max":408,"o":"m 289 283 l 297 0 l 108 0 l 118 267 l 108 894 l 300 894 l 289 283 m 408 1142 q 224 997 313 1076 l 186 997 q 0 1142 89 1081 l 33 1215 l 51 1215 l 88 1194 q 204 1128 146 1163 q 357 1215 257 1160 l 375 1215 l 408 1142 z "},"Î":{"ha":410,"x_min":1,"x_max":410,"o":"m 289 283 l 297 0 l 108 0 l 118 267 l 108 894 l 300 894 l 289 283 m 1 1085 q 186 1229 97 1150 l 224 1229 q 410 1085 321 1146 l 376 1011 l 358 1011 l 322 1032 q 206 1099 264 1064 q 53 1011 153 1067 l 35 1011 l 1 1085 z "},"Ȉ":{"ha":410,"x_min":-74,"x_max":390,"o":"m 289 283 l 297 0 l 108 0 l 118 267 l 108 894 l 300 894 l 289 283 m 117 993 l 101 997 q -74 1158 -3 1090 l -71 1174 l 15 1229 l 29 1226 q 121 1110 57 1189 l 175 1040 l 117 993 m 332 993 l 315 997 q 142 1158 225 1076 l 144 1174 l 229 1229 l 244 1226 q 390 1040 293 1158 l 332 993 z "},"Ï":{"ha":410,"x_min":29,"x_max":381,"o":"m 289 283 l 297 0 l 108 0 l 118 267 l 108 894 l 300 894 l 289 283 m 115 1190 q 173 1169 153 1190 q 193 1110 193 1149 q 171 1046 193 1069 q 110 1022 149 1022 q 50 1043 71 1022 q 29 1104 29 1064 q 52 1167 29 1144 q 115 1190 75 1190 m 303 1190 q 360 1169 339 1190 q 381 1110 381 1149 q 358 1046 381 1069 q 296 1022 335 1022 q 236 1044 257 1022 q 215 1104 215 1065 q 239 1167 215 1144 q 303 1190 263 1190 z "},"Ḯ":{"ha":410,"x_min":-3,"x_max":408,"o":"m 289 283 l 297 0 l 108 0 l 118 267 l 108 894 l 300 894 l 289 283 m 349 1415 l 376 1300 l 367 1283 q 56 1231 165 1246 l 39 1238 l 22 1319 q 332 1424 207 1375 l 349 1415 m 86 1165 q 146 1144 125 1165 q 167 1082 167 1122 q 143 1017 167 1042 q 81 992 119 992 q 19 1014 40 992 q -3 1076 -3 1036 q 22 1141 -3 1117 q 86 1165 46 1165 m 328 1165 q 388 1144 367 1165 q 408 1082 408 1122 q 385 1017 408 1042 q 322 992 361 992 q 260 1014 282 992 q 239 1076 239 1036 q 263 1141 239 1117 q 328 1165 288 1165 z "},"İ":{"ha":410,"x_min":107,"x_max":300,"o":"m 289 283 l 297 0 l 108 0 l 118 267 l 108 894 l 300 894 l 289 283 m 208 1211 q 276 1186 251 1211 q 300 1117 300 1161 q 274 1042 300 1069 q 201 1014 247 1014 q 131 1039 156 1014 q 107 1110 107 1064 q 134 1183 107 1156 q 208 1211 161 1211 z "},"Ị":{"ha":410,"x_min":99,"x_max":300,"o":"m 289 283 l 297 0 l 108 0 l 118 267 l 108 894 l 300 894 l 289 283 m 200 -72 q 267 -97 243 -72 q 292 -167 292 -122 q 265 -242 292 -214 q 193 -269 239 -269 q 123 -244 147 -269 q 99 -174 99 -219 q 126 -100 99 -128 q 200 -72 153 -72 z "},"Ì":{"ha":410,"x_min":29,"x_max":381,"o":"m 289 283 l 297 0 l 108 0 l 118 267 l 108 894 l 300 894 l 289 283 m 93 1235 q 381 1078 207 1167 l 351 1001 l 333 996 q 35 1104 165 1053 l 29 1121 l 75 1231 l 93 1235 z "},"Ỉ":{"ha":410,"x_min":60,"x_max":324,"o":"m 289 283 l 297 0 l 108 0 l 118 267 l 108 894 l 300 894 l 289 283 m 147 1044 q 201 1097 182 1069 q 221 1144 221 1124 q 210 1167 221 1160 q 182 1175 200 1175 q 136 1166 161 1175 q 90 1140 111 1157 l 60 1190 q 131 1243 92 1224 q 208 1263 169 1263 q 291 1234 258 1263 q 324 1161 324 1206 q 306 1109 324 1135 q 244 1046 289 1083 l 276 992 l 208 951 l 147 1044 z "},"Ȋ":{"ha":410,"x_min":-6,"x_max":413,"o":"m 289 283 l 297 0 l 108 0 l 118 267 l 108 894 l 300 894 l 289 283 m -6 1069 q 69 1196 15 1149 q 208 1243 122 1243 q 342 1194 292 1243 q 413 1069 393 1146 l 367 1007 l 342 1007 q 288 1085 324 1058 q 203 1113 253 1113 q 117 1085 153 1113 q 65 1007 82 1058 l 40 1007 l -6 1069 z "},"Ī":{"ha":410,"x_min":36,"x_max":371,"o":"m 289 283 l 297 0 l 108 0 l 118 267 l 108 894 l 300 894 l 289 283 m 371 1153 l 361 1050 l 49 1050 l 36 1063 l 46 1165 l 358 1165 l 371 1153 z "},"Į":{"ha":410,"x_min":57,"x_max":322,"o":"m 289 283 l 297 0 l 108 0 l 118 267 l 108 894 l 300 894 l 289 283 m 297 0 q 192 -93 217 -68 q 167 -137 167 -118 q 200 -165 167 -165 q 288 -125 238 -165 l 297 -126 l 322 -208 q 176 -269 257 -269 q 90 -241 122 -269 q 57 -165 57 -212 q 88 -82 57 -121 q 186 0 119 -43 l 297 0 z "},"Ĩ":{"ha":410,"x_min":-10,"x_max":418,"o":"m 289 283 l 297 0 l 108 0 l 118 267 l 108 894 l 300 894 l 289 283 m 418 1164 l 418 1149 l 331 1025 l 314 1019 q 217 1046 281 1025 q 136 1067 151 1067 q 106 1053 121 1067 q 78 1021 92 1039 q 60 997 64 1003 l 44 997 l -10 1051 l -10 1068 l 76 1189 l 94 1196 q 192 1169 128 1190 q 272 1149 257 1149 q 301 1161 288 1149 q 328 1192 314 1174 q 349 1218 342 1210 l 364 1218 l 418 1164 z "},"J":{"ha":465,"x_min":8,"x_max":358,"o":"m 349 294 l 351 168 q 325 33 351 89 q 240 -65 299 -22 q 78 -147 181 -108 l 21 -47 l 21 -31 q 142 58 107 14 q 178 171 178 101 l 178 276 l 169 756 l 22 751 l 8 765 l 18 894 l 358 894 l 349 294 z "},"Ĵ":{"ha":465,"x_min":3,"x_max":411,"o":"m 349 294 l 351 168 q 325 33 351 89 q 240 -65 299 -22 q 78 -147 181 -108 l 21 -47 l 21 -31 q 142 58 107 14 q 178 171 178 101 l 178 276 l 169 756 l 22 751 l 8 765 l 18 894 l 358 894 l 349 294 m 3 1085 q 188 1229 99 1150 l 225 1229 q 411 1085 322 1146 l 378 1011 l 360 1011 l 324 1032 q 207 1099 265 1064 q 54 1011 154 1067 l 36 1011 l 3 1085 z "},"K":{"ha":811,"x_min":108,"x_max":824,"o":"m 481 472 q 824 39 629 265 l 821 18 q 638 -14 743 -1 l 615 -3 q 292 461 433 239 l 289 283 l 296 0 l 108 0 l 118 267 l 108 894 l 299 894 l 292 479 l 543 808 l 594 894 l 797 894 l 481 472 z "},"Ķ":{"ha":811,"x_min":108,"x_max":824,"o":"m 481 472 q 824 39 629 265 l 821 18 q 638 -14 743 -1 l 615 -3 q 292 461 433 239 l 289 283 l 296 0 l 108 0 l 118 267 l 108 894 l 299 894 l 292 479 l 543 808 l 594 894 l 797 894 l 481 472 m 463 -56 q 518 -162 518 -99 q 481 -271 518 -218 q 368 -378 444 -324 l 315 -331 l 314 -318 q 382 -196 382 -260 q 342 -121 382 -153 l 343 -107 q 463 -56 399 -74 z "},"L":{"ha":601,"x_min":103,"x_max":599,"o":"m 599 140 l 586 0 l 103 0 l 113 267 l 103 894 l 294 894 l 283 283 l 288 156 l 588 156 l 599 140 z "},"Ǉ":{"ha":1054,"x_min":103,"x_max":947,"o":"m 599 140 l 586 0 l 103 0 l 113 267 l 103 894 l 294 894 l 283 283 l 288 156 l 588 156 l 599 140 m 938 294 l 940 168 q 914 33 940 89 q 828 -65 888 -22 q 667 -147 769 -108 l 610 -47 l 610 -31 q 731 58 696 14 q 767 171 767 101 l 767 276 l 758 756 l 611 751 l 597 765 l 607 894 l 947 894 l 938 294 z "},"Ĺ":{"ha":601,"x_min":54,"x_max":599,"o":"m 599 140 l 586 0 l 103 0 l 113 267 l 103 894 l 294 894 l 283 283 l 288 156 l 588 156 l 599 140 m 360 1231 l 407 1121 l 401 1104 q 101 996 267 1051 l 85 1001 l 54 1078 q 342 1235 225 1164 l 360 1231 z "},"Ľ":{"ha":667,"x_min":103,"x_max":601,"o":"m 588 156 l 599 140 l 586 0 l 103 0 l 113 267 l 103 894 l 294 894 l 283 283 l 288 156 l 588 156 m 461 529 l 458 813 l 590 821 l 601 808 l 556 531 l 475 518 l 461 529 z "},"Ļ":{"ha":601,"x_min":103,"x_max":599,"o":"m 599 140 l 586 0 l 103 0 l 113 267 l 103 894 l 294 894 l 283 283 l 288 156 l 588 156 l 599 140 m 372 -56 q 428 -162 428 -99 q 391 -271 428 -218 q 278 -378 354 -324 l 225 -331 l 224 -318 q 292 -196 292 -260 q 251 -121 292 -153 l 253 -107 q 372 -56 308 -74 z "},"Ŀ":{"ha":632,"x_min":103,"x_max":603,"o":"m 599 140 l 586 0 l 103 0 l 113 267 l 103 894 l 294 894 l 283 283 l 288 156 l 588 156 l 599 140 m 511 638 q 578 613 554 638 q 603 543 603 588 q 576 468 603 496 q 504 440 550 440 q 434 465 458 440 q 410 536 410 490 q 437 610 410 582 q 511 638 464 638 z "},"Ḷ":{"ha":601,"x_min":103,"x_max":599,"o":"m 599 140 l 586 0 l 103 0 l 113 267 l 103 894 l 294 894 l 283 283 l 288 156 l 588 156 l 599 140 m 329 -72 q 397 -97 372 -72 q 421 -167 421 -122 q 394 -242 421 -214 q 322 -269 368 -269 q 252 -244 276 -269 q 228 -174 228 -219 q 255 -100 228 -128 q 329 -72 282 -72 z "},"ǈ":{"ha":997,"x_min":103,"x_max":907,"o":"m 599 140 l 586 0 l 103 0 l 113 267 l 103 894 l 294 894 l 283 283 l 288 156 l 588 156 l 599 140 m 907 646 l 896 285 l 904 38 q 851 -144 904 -72 q 678 -271 799 -217 l 614 -189 l 614 -172 q 703 -90 676 -137 q 729 32 729 -43 l 732 267 l 726 529 l 614 529 l 603 540 l 613 640 l 729 640 l 901 650 l 907 646 m 800 963 q 867 938 843 963 q 892 868 892 913 q 865 793 892 821 q 793 765 839 765 q 723 790 747 765 q 699 861 699 815 q 726 935 699 907 q 800 963 753 963 z "},"Ḻ":{"ha":601,"x_min":103,"x_max":599,"o":"m 599 140 l 586 0 l 103 0 l 113 267 l 103 894 l 294 894 l 283 283 l 288 156 l 588 156 l 599 140 m 506 -133 l 497 -237 l 156 -237 l 143 -224 l 151 -121 l 493 -121 l 506 -133 z "},"Ł":{"ha":624,"x_min":-1,"x_max":622,"o":"m 622 140 l 610 0 l 125 0 l 136 267 l 135 346 l 50 301 l 32 310 l -1 419 l 132 488 l 125 894 l 318 894 l 313 581 l 453 653 l 471 644 l 504 536 l 310 436 l 307 283 l 311 156 l 611 156 l 622 140 z "},"M":{"ha":1107,"x_min":61,"x_max":1040,"o":"m 1040 0 l 874 0 l 860 271 l 828 615 l 814 615 l 614 94 l 468 94 l 286 615 l 274 615 l 239 289 l 219 0 l 61 0 l 151 894 l 368 894 l 404 763 l 546 339 l 558 339 l 707 763 l 747 894 l 960 894 l 1040 0 z "},"Ṃ":{"ha":1107,"x_min":61,"x_max":1040,"o":"m 1040 0 l 874 0 l 860 271 l 828 615 l 814 615 l 614 94 l 468 94 l 286 615 l 274 615 l 239 289 l 219 0 l 61 0 l 151 894 l 368 894 l 404 763 l 546 339 l 558 339 l 707 763 l 747 894 l 960 894 l 1040 0 m 557 -72 q 624 -97 600 -72 q 649 -167 649 -122 q 622 -242 649 -214 q 550 -269 596 -269 q 480 -244 504 -269 q 456 -174 456 -219 q 483 -100 456 -128 q 557 -72 510 -72 z "},"N":{"ha":965,"x_min":108,"x_max":858,"o":"m 847 276 l 854 0 l 651 0 l 286 606 l 275 606 l 274 308 l 279 0 l 108 0 l 118 264 l 110 894 l 311 894 l 676 289 l 689 289 l 685 886 l 858 897 l 847 276 z "},"Ǌ":{"ha":1431,"x_min":108,"x_max":1324,"o":"m 847 276 l 854 0 l 651 0 l 286 606 l 275 606 l 274 308 l 279 0 l 108 0 l 118 264 l 110 894 l 311 894 l 676 289 l 689 289 l 685 886 l 858 897 l 847 276 m 1314 294 l 1317 168 q 1290 33 1317 89 q 1205 -65 1264 -22 q 1043 -147 1146 -108 l 986 -47 l 986 -31 q 1108 58 1072 14 q 1143 171 1143 101 l 1143 276 l 1135 756 l 988 751 l 974 765 l 983 894 l 1324 894 l 1314 294 z "},"Ń":{"ha":965,"x_min":108,"x_max":858,"o":"m 847 276 l 854 0 l 651 0 l 286 606 l 275 606 l 274 308 l 279 0 l 108 0 l 118 264 l 110 894 l 311 894 l 676 289 l 689 289 l 685 886 l 858 897 l 847 276 m 638 1231 l 685 1121 l 679 1104 q 379 996 544 1051 l 363 1001 l 332 1078 q 619 1235 503 1164 l 638 1231 z "},"Ň":{"ha":965,"x_min":108,"x_max":858,"o":"m 847 276 l 854 0 l 651 0 l 286 606 l 275 606 l 274 308 l 279 0 l 108 0 l 118 264 l 110 894 l 311 894 l 676 289 l 689 289 l 685 886 l 858 897 l 847 276 m 686 1142 q 501 997 590 1076 l 464 997 q 278 1142 367 1081 l 311 1215 l 329 1215 l 365 1194 q 482 1128 424 1163 q 635 1215 535 1160 l 653 1215 l 686 1142 z "},"Ņ":{"ha":965,"x_min":108,"x_max":858,"o":"m 847 276 l 854 0 l 651 0 l 286 606 l 275 606 l 274 308 l 279 0 l 108 0 l 118 264 l 110 894 l 311 894 l 676 289 l 689 289 l 685 886 l 858 897 l 847 276 m 528 -56 q 583 -162 583 -99 q 547 -271 583 -218 q 433 -378 510 -324 l 381 -331 l 379 -318 q 447 -196 447 -260 q 407 -121 447 -153 l 408 -107 q 528 -56 464 -74 z "},"Ṅ":{"ha":965,"x_min":108,"x_max":858,"o":"m 847 276 l 854 0 l 651 0 l 286 606 l 275 606 l 274 308 l 279 0 l 108 0 l 118 264 l 110 894 l 311 894 l 676 289 l 689 289 l 685 886 l 858 897 l 847 276 m 486 1211 q 553 1186 529 1211 q 578 1117 578 1161 q 551 1042 578 1069 q 479 1014 525 1014 q 409 1039 433 1014 q 385 1110 385 1064 q 412 1183 385 1156 q 486 1211 439 1211 z "},"Ṇ":{"ha":965,"x_min":108,"x_max":858,"o":"m 847 276 l 854 0 l 651 0 l 286 606 l 275 606 l 274 308 l 279 0 l 108 0 l 118 264 l 110 894 l 311 894 l 676 289 l 689 289 l 685 886 l 858 897 l 847 276 m 485 -72 q 552 -97 528 -72 q 576 -167 576 -122 q 550 -242 576 -214 q 478 -269 524 -269 q 408 -244 432 -269 q 383 -174 383 -219 q 410 -100 383 -128 q 485 -72 438 -72 z "},"Ŋ":{"ha":965,"x_min":108,"x_max":858,"o":"m 847 276 l 851 78 q 826 -56 851 0 q 741 -155 800 -111 q 579 -237 682 -199 l 522 -137 l 522 -119 q 613 -62 579 -90 q 663 1 646 -33 l 288 606 l 275 606 l 274 308 l 281 0 l 108 0 l 118 264 l 110 894 l 313 894 l 676 301 l 689 301 l 683 886 l 858 897 l 847 276 z "},"ǋ":{"ha":1361,"x_min":108,"x_max":1271,"o":"m 847 276 l 854 0 l 651 0 l 286 606 l 275 606 l 274 308 l 279 0 l 108 0 l 118 264 l 110 894 l 311 894 l 676 289 l 689 289 l 685 886 l 858 897 l 847 276 m 1271 646 l 1260 285 l 1268 38 q 1215 -144 1268 -72 q 1042 -271 1163 -217 l 978 -189 l 978 -172 q 1067 -90 1040 -137 q 1093 32 1093 -43 l 1096 267 l 1090 529 l 978 529 l 967 540 l 976 640 l 1093 640 l 1265 650 l 1271 646 m 1164 963 q 1231 938 1207 963 q 1256 868 1256 913 q 1229 793 1256 821 q 1157 765 1203 765 q 1087 790 1111 765 q 1063 861 1063 815 q 1090 935 1063 907 q 1164 963 1117 963 z "},"Ṉ":{"ha":965,"x_min":108,"x_max":858,"o":"m 847 276 l 854 0 l 651 0 l 286 606 l 275 606 l 274 308 l 279 0 l 108 0 l 118 264 l 110 894 l 311 894 l 676 289 l 689 289 l 685 886 l 858 897 l 847 276 m 661 -133 l 653 -237 l 311 -237 l 299 -224 l 307 -121 l 649 -121 l 661 -133 z "},"Ñ":{"ha":965,"x_min":108,"x_max":858,"o":"m 847 276 l 854 0 l 651 0 l 286 606 l 275 606 l 274 308 l 279 0 l 108 0 l 118 264 l 110 894 l 311 894 l 676 289 l 689 289 l 685 886 l 858 897 l 847 276 m 724 1168 l 724 1153 l 626 1029 l 608 1022 q 493 1049 571 1026 q 448 1060 486 1050 q 394 1071 410 1071 q 365 1058 379 1071 q 333 1028 350 1046 q 308 1000 317 1010 l 292 1000 l 236 1054 l 236 1069 l 335 1193 l 351 1200 q 469 1172 385 1196 q 565 1151 547 1151 q 598 1165 582 1151 q 631 1197 614 1179 q 653 1222 647 1215 l 669 1222 l 724 1168 z "},"O":{"ha":893,"x_min":39,"x_max":856,"o":"m 463 907 q 753 792 651 907 q 856 467 856 678 q 744 111 856 236 q 431 -14 633 -14 q 141 103 243 -14 q 39 436 39 221 q 149 785 39 663 q 463 907 260 907 m 446 756 q 285 686 335 756 q 235 460 235 617 q 284 204 235 281 q 447 128 333 128 q 608 198 558 128 q 658 428 658 268 q 609 680 658 604 q 446 756 560 756 z "},"Ó":{"ha":893,"x_min":39,"x_max":856,"o":"m 463 907 q 753 792 651 907 q 856 467 856 678 q 744 111 856 236 q 431 -14 633 -14 q 141 103 243 -14 q 39 436 39 221 q 149 785 39 663 q 463 907 260 907 m 446 756 q 285 686 335 756 q 235 460 235 617 q 284 204 235 281 q 447 128 333 128 q 608 198 558 128 q 658 428 658 268 q 609 680 658 604 q 446 756 560 756 m 603 1231 l 650 1121 l 644 1104 q 344 996 510 1051 l 328 1001 l 297 1078 q 585 1235 468 1164 l 603 1231 z "},"Ŏ":{"ha":893,"x_min":39,"x_max":856,"o":"m 463 907 q 753 792 651 907 q 856 467 856 678 q 744 111 856 236 q 431 -14 633 -14 q 141 103 243 -14 q 39 436 39 221 q 149 785 39 663 q 463 907 260 907 m 446 756 q 285 686 335 756 q 235 460 235 617 q 284 204 235 281 q 447 128 333 128 q 608 198 558 128 q 658 428 658 268 q 609 680 658 604 q 446 756 560 756 m 656 1147 q 576 1039 631 1076 q 444 1001 522 1001 q 316 1039 369 1001 q 239 1147 263 1076 l 282 1207 l 308 1207 q 363 1150 326 1171 q 450 1129 400 1129 q 534 1149 499 1129 q 588 1207 569 1169 l 614 1207 l 656 1147 z "},"Ǒ":{"ha":893,"x_min":39,"x_max":856,"o":"m 463 907 q 753 792 651 907 q 856 467 856 678 q 744 111 856 236 q 431 -14 633 -14 q 141 103 243 -14 q 39 436 39 221 q 149 785 39 663 q 463 907 260 907 m 446 756 q 285 686 335 756 q 235 460 235 617 q 284 204 235 281 q 447 128 333 128 q 608 198 558 128 q 658 428 658 268 q 609 680 658 604 q 446 756 560 756 m 651 1142 q 467 997 556 1076 l 429 997 q 243 1142 332 1081 l 276 1215 l 294 1215 l 331 1194 q 447 1128 389 1163 q 600 1215 500 1160 l 618 1215 l 651 1142 z "},"Ô":{"ha":893,"x_min":39,"x_max":856,"o":"m 463 907 q 753 792 651 907 q 856 467 856 678 q 744 111 856 236 q 431 -14 633 -14 q 141 103 243 -14 q 39 436 39 221 q 149 785 39 663 q 463 907 260 907 m 446 756 q 285 686 335 756 q 235 460 235 617 q 284 204 235 281 q 447 128 333 128 q 608 198 558 128 q 658 428 658 268 q 609 680 658 604 q 446 756 560 756 m 244 1085 q 429 1229 340 1150 l 467 1229 q 653 1085 564 1146 l 619 1011 l 601 1011 l 565 1032 q 449 1099 507 1064 q 296 1011 396 1067 l 278 1011 l 244 1085 z "},"Ố":{"ha":893,"x_min":39,"x_max":856,"o":"m 463 907 q 753 792 651 907 q 856 467 856 678 q 744 111 856 236 q 431 -14 633 -14 q 141 103 243 -14 q 39 436 39 221 q 149 785 39 663 q 463 907 260 907 m 446 756 q 285 686 335 756 q 235 460 235 617 q 284 204 235 281 q 447 128 333 128 q 608 198 558 128 q 658 428 658 268 q 609 680 658 604 q 446 756 560 756 m 710 1318 l 715 1304 l 601 1161 l 588 1161 l 524 1208 l 607 1356 l 621 1363 l 710 1318 m 243 1057 q 428 1201 357 1138 l 465 1201 q 651 1057 549 1128 l 618 983 l 600 983 l 447 1071 l 294 983 l 276 983 l 243 1057 z "},"Ộ":{"ha":893,"x_min":39,"x_max":856,"o":"m 253 1079 q 438 1224 349 1144 l 475 1224 q 661 1079 572 1140 l 628 1006 l 610 1006 l 574 1026 q 457 1093 515 1058 q 304 1006 404 1061 l 286 1006 l 253 1079 m 463 907 q 753 792 651 907 q 856 467 856 678 q 744 111 856 236 q 431 -14 633 -14 q 141 103 243 -14 q 39 436 39 221 q 149 785 39 663 q 463 907 260 907 m 446 756 q 285 686 335 756 q 235 460 235 617 q 284 204 235 281 q 447 128 333 128 q 608 198 558 128 q 658 428 658 268 q 609 680 658 604 q 446 756 560 756 m 451 -72 q 519 -97 494 -72 q 543 -167 543 -122 q 517 -242 543 -214 q 444 -269 490 -269 q 374 -244 399 -269 q 350 -174 350 -219 q 377 -100 350 -128 q 451 -72 404 -72 z "},"Ồ":{"ha":893,"x_min":39,"x_max":856,"o":"m 463 907 q 753 792 651 907 q 856 467 856 678 q 744 111 856 236 q 431 -14 633 -14 q 141 103 243 -14 q 39 436 39 221 q 149 785 39 663 q 463 907 260 907 m 446 756 q 285 686 335 756 q 235 460 235 617 q 284 204 235 281 q 447 128 333 128 q 608 198 558 128 q 658 428 658 268 q 609 680 658 604 q 446 756 560 756 m 482 1304 l 486 1318 l 575 1363 l 589 1356 l 674 1208 l 610 1161 l 596 1161 l 482 1304 m 243 1057 q 428 1201 357 1138 l 465 1201 q 651 1057 549 1128 l 618 983 l 600 983 l 447 1071 l 294 983 l 276 983 l 243 1057 z "},"Ổ":{"ha":893,"x_min":39,"x_max":856,"o":"m 463 907 q 753 792 651 907 q 856 467 856 678 q 744 111 856 236 q 431 -14 633 -14 q 141 103 243 -14 q 39 436 39 221 q 149 785 39 663 q 463 907 260 907 m 446 756 q 285 686 335 756 q 235 460 235 617 q 284 204 235 281 q 447 128 333 128 q 608 198 558 128 q 658 428 658 268 q 609 680 658 604 q 446 756 560 756 m 243 1085 q 428 1229 339 1150 l 465 1229 q 651 1085 563 1146 l 618 1011 l 600 1011 l 564 1032 q 447 1099 506 1064 q 294 1011 394 1067 l 276 1011 l 243 1085 m 560 1263 q 611 1313 593 1287 q 630 1358 630 1339 q 620 1380 630 1373 q 593 1387 610 1387 q 549 1379 573 1387 q 506 1354 525 1370 l 477 1402 q 544 1452 507 1434 q 618 1471 581 1471 q 697 1444 666 1471 q 728 1374 728 1417 q 711 1325 728 1349 q 652 1264 695 1300 l 683 1213 l 618 1175 l 560 1263 z "},"Ỗ":{"ha":893,"x_min":39,"x_max":856,"o":"m 463 907 q 753 792 651 907 q 856 467 856 678 q 744 111 856 236 q 431 -14 633 -14 q 141 103 243 -14 q 39 436 39 221 q 149 785 39 663 q 463 907 260 907 m 446 756 q 285 686 335 756 q 235 460 235 617 q 284 204 235 281 q 447 128 333 128 q 608 198 558 128 q 658 428 658 268 q 609 680 658 604 q 446 756 560 756 m 246 1085 q 431 1229 342 1150 l 468 1229 q 654 1085 565 1146 l 621 1011 l 603 1011 l 567 1032 q 450 1099 508 1064 q 297 1011 397 1067 l 279 1011 l 246 1085 m 692 1411 l 692 1394 l 593 1271 l 576 1265 q 460 1293 546 1269 q 363 1314 382 1314 q 333 1302 347 1314 q 296 1265 319 1290 l 275 1243 l 258 1243 l 204 1297 l 204 1313 l 303 1436 l 319 1443 q 438 1415 347 1439 q 481 1403 444 1414 q 533 1393 518 1393 q 563 1406 549 1393 q 594 1437 578 1418 q 621 1465 611 1456 l 636 1465 l 692 1411 z "},"Ȍ":{"ha":893,"x_min":39,"x_max":856,"o":"m 463 907 q 753 792 651 907 q 856 467 856 678 q 744 111 856 236 q 431 -14 633 -14 q 141 103 243 -14 q 39 436 39 221 q 149 785 39 663 q 463 907 260 907 m 446 756 q 285 686 335 756 q 235 460 235 617 q 284 204 235 281 q 447 128 333 128 q 608 198 558 128 q 658 428 658 268 q 609 680 658 604 q 446 756 560 756 m 360 993 l 344 997 q 169 1158 240 1090 l 172 1174 l 258 1229 l 272 1226 q 364 1110 300 1189 l 418 1040 l 360 993 m 575 993 l 558 997 q 385 1158 468 1076 l 388 1174 l 472 1229 l 488 1226 q 633 1040 536 1158 l 575 993 z "},"Ö":{"ha":893,"x_min":39,"x_max":856,"o":"m 463 907 q 753 792 651 907 q 856 467 856 678 q 744 111 856 236 q 431 -14 633 -14 q 141 103 243 -14 q 39 436 39 221 q 149 785 39 663 q 463 907 260 907 m 446 756 q 285 686 335 756 q 235 460 235 617 q 284 204 235 281 q 447 128 333 128 q 608 198 558 128 q 658 428 658 268 q 609 680 658 604 q 446 756 560 756 m 332 1196 q 393 1174 371 1196 q 415 1111 415 1151 q 391 1043 415 1068 q 325 1018 367 1018 q 263 1040 285 1018 q 240 1104 240 1063 q 265 1171 240 1146 q 332 1196 289 1196 m 572 1196 q 633 1174 611 1196 q 656 1111 656 1151 q 631 1043 656 1068 q 567 1018 607 1018 q 504 1040 526 1018 q 482 1104 482 1063 q 506 1171 482 1146 q 572 1196 531 1196 z "},"Ȫ":{"ha":893,"x_min":39,"x_max":856,"o":"m 463 907 q 753 792 651 907 q 856 467 856 678 q 744 111 856 236 q 431 -14 633 -14 q 141 103 243 -14 q 39 436 39 221 q 149 785 39 663 q 463 907 260 907 m 446 756 q 285 686 335 756 q 235 460 235 617 q 284 204 235 281 q 447 128 333 128 q 608 198 558 128 q 658 428 658 268 q 609 680 658 604 q 446 756 560 756 m 644 1349 l 633 1244 l 265 1244 l 253 1258 l 261 1363 l 631 1363 l 644 1349 m 329 1165 q 389 1144 368 1165 q 410 1082 410 1122 q 386 1017 410 1042 q 324 992 363 992 q 262 1014 283 992 q 240 1076 240 1036 q 265 1141 240 1117 q 329 1165 289 1165 m 571 1165 q 631 1144 610 1165 q 651 1082 651 1122 q 628 1017 651 1042 q 565 992 604 992 q 503 1014 525 992 q 482 1076 482 1036 q 506 1141 482 1117 q 571 1165 531 1165 z "},"Ȱ":{"ha":893,"x_min":39,"x_max":856,"o":"m 463 907 q 753 792 651 907 q 856 467 856 678 q 744 111 856 236 q 431 -14 633 -14 q 141 103 243 -14 q 39 436 39 221 q 149 785 39 663 q 463 907 260 907 m 446 756 q 285 686 335 756 q 235 460 235 617 q 284 204 235 281 q 447 128 333 128 q 608 198 558 128 q 658 428 658 268 q 609 680 658 604 q 446 756 560 756 m 451 1186 q 519 1161 494 1186 q 543 1092 543 1136 q 517 1017 543 1044 q 444 989 490 989 q 374 1014 399 989 q 350 1085 350 1039 q 377 1158 350 1131 q 451 1186 404 1186 m 614 1343 l 604 1240 l 292 1240 l 279 1253 l 289 1356 l 601 1356 l 614 1343 z "},"Ọ":{"ha":893,"x_min":39,"x_max":856,"o":"m 463 907 q 753 792 651 907 q 856 467 856 678 q 744 111 856 236 q 431 -14 633 -14 q 141 103 243 -14 q 39 436 39 221 q 149 785 39 663 q 463 907 260 907 m 446 756 q 285 686 335 756 q 235 460 235 617 q 284 204 235 281 q 447 128 333 128 q 608 198 558 128 q 658 428 658 268 q 609 680 658 604 q 446 756 560 756 m 451 -72 q 519 -97 494 -72 q 543 -167 543 -122 q 517 -242 543 -214 q 444 -269 490 -269 q 374 -244 399 -269 q 350 -174 350 -219 q 377 -100 350 -128 q 451 -72 404 -72 z "},"Ò":{"ha":893,"x_min":39,"x_max":856,"o":"m 463 907 q 753 792 651 907 q 856 467 856 678 q 744 111 856 236 q 431 -14 633 -14 q 141 103 243 -14 q 39 436 39 221 q 149 785 39 663 q 463 907 260 907 m 446 756 q 285 686 335 756 q 235 460 235 617 q 284 204 235 281 q 447 128 333 128 q 608 198 558 128 q 658 428 658 268 q 609 680 658 604 q 446 756 560 756 m 336 1235 q 624 1078 450 1167 l 594 1001 l 576 996 q 278 1104 408 1053 l 272 1121 l 318 1231 l 336 1235 z "},"Ỏ":{"ha":893,"x_min":39,"x_max":856,"o":"m 463 907 q 753 792 651 907 q 856 467 856 678 q 744 111 856 236 q 431 -14 633 -14 q 141 103 243 -14 q 39 436 39 221 q 149 785 39 663 q 463 907 260 907 m 446 756 q 285 686 335 756 q 235 460 235 617 q 284 204 235 281 q 447 128 333 128 q 608 198 558 128 q 658 428 658 268 q 609 680 658 604 q 446 756 560 756 m 390 1044 q 444 1097 425 1069 q 464 1144 464 1124 q 453 1167 464 1160 q 425 1175 443 1175 q 379 1166 404 1175 q 333 1140 354 1157 l 303 1190 q 374 1243 335 1224 q 451 1263 413 1263 q 534 1234 501 1263 q 567 1161 567 1206 q 549 1109 567 1135 q 488 1046 532 1083 l 519 992 l 451 951 l 390 1044 z "},"Ơ":{"ha":942,"x_min":46,"x_max":906,"o":"m 906 932 q 869 835 906 876 q 774 775 833 793 q 861 465 861 660 q 751 111 861 236 q 439 -14 640 -14 q 149 103 251 -14 q 46 435 46 221 q 96 690 46 583 q 237 851 146 796 q 449 907 328 907 q 542 899 501 907 q 631 879 582 892 q 700 865 676 865 q 764 921 764 865 q 714 1015 764 972 l 715 1031 q 803 1065 765 1065 q 874 1026 843 1065 q 906 932 906 986 m 454 128 q 615 198 565 128 q 665 428 665 268 q 644 619 665 547 q 576 723 622 690 q 453 756 529 756 q 292 686 342 756 q 242 460 242 617 q 292 204 242 281 q 454 128 342 128 z "},"Ớ":{"ha":942,"x_min":46,"x_max":906,"o":"m 906 932 q 869 835 906 876 q 774 775 833 793 q 861 465 861 660 q 751 111 861 236 q 439 -14 640 -14 q 149 103 251 -14 q 46 435 46 221 q 96 690 46 583 q 237 851 146 796 q 449 907 328 907 q 542 899 501 907 q 631 879 582 892 q 700 865 676 865 q 764 921 764 865 q 714 1015 764 972 l 715 1031 q 803 1065 765 1065 q 874 1026 843 1065 q 906 932 906 986 m 454 128 q 615 198 565 128 q 665 428 665 268 q 644 619 665 547 q 576 723 622 690 q 453 756 529 756 q 292 686 342 756 q 242 460 242 617 q 292 204 242 281 q 454 128 342 128 m 611 1231 l 658 1121 l 653 1104 q 353 996 518 1051 l 336 1001 l 306 1078 q 593 1235 476 1164 l 611 1231 z "},"Ợ":{"ha":903,"x_min":46,"x_max":906,"o":"m 906 932 q 869 835 906 876 q 774 775 833 793 q 861 465 861 660 q 751 111 861 236 q 439 -14 640 -14 q 149 103 251 -14 q 46 435 46 221 q 96 690 46 583 q 237 851 146 796 q 449 907 328 907 q 542 899 501 907 q 631 879 582 892 q 700 865 676 865 q 764 921 764 865 q 714 1015 764 972 l 715 1031 q 803 1065 765 1065 q 874 1026 843 1065 q 906 932 906 986 m 454 128 q 615 198 565 128 q 665 428 665 268 q 644 619 665 547 q 576 723 622 690 q 453 756 529 756 q 292 686 342 756 q 242 460 242 617 q 292 204 242 281 q 454 128 342 128 m 454 -72 q 522 -97 497 -72 q 546 -167 546 -122 q 519 -242 546 -214 q 447 -269 493 -269 q 377 -244 401 -269 q 353 -174 353 -219 q 380 -100 353 -128 q 454 -72 407 -72 z "},"Ờ":{"ha":942,"x_min":46,"x_max":906,"o":"m 906 932 q 869 835 906 876 q 774 775 833 793 q 861 465 861 660 q 751 111 861 236 q 439 -14 640 -14 q 149 103 251 -14 q 46 435 46 221 q 96 690 46 583 q 237 851 146 796 q 449 907 328 907 q 542 899 501 907 q 631 879 582 892 q 700 865 676 865 q 764 921 764 865 q 714 1015 764 972 l 715 1031 q 803 1065 765 1065 q 874 1026 843 1065 q 906 932 906 986 m 454 128 q 615 198 565 128 q 665 428 665 268 q 644 619 665 547 q 576 723 622 690 q 453 756 529 756 q 292 686 342 756 q 242 460 242 617 q 292 204 242 281 q 454 128 342 128 m 344 1235 q 632 1078 458 1167 l 603 1001 l 585 996 q 286 1104 417 1053 l 281 1121 l 326 1231 l 344 1235 z "},"Ở":{"ha":942,"x_min":46,"x_max":906,"o":"m 906 932 q 869 835 906 876 q 774 775 833 793 q 861 465 861 660 q 751 111 861 236 q 439 -14 640 -14 q 149 103 251 -14 q 46 435 46 221 q 96 690 46 583 q 237 851 146 796 q 449 907 328 907 q 542 899 501 907 q 631 879 582 892 q 700 865 676 865 q 764 921 764 865 q 714 1015 764 972 l 715 1031 q 803 1065 765 1065 q 874 1026 843 1065 q 906 932 906 986 m 454 128 q 615 198 565 128 q 665 428 665 268 q 644 619 665 547 q 576 723 622 690 q 453 756 529 756 q 292 686 342 756 q 242 460 242 617 q 292 204 242 281 q 454 128 342 128 m 399 1044 q 453 1097 433 1069 q 472 1144 472 1124 q 462 1167 472 1160 q 433 1175 451 1175 q 388 1166 413 1175 q 342 1140 363 1157 l 311 1190 q 382 1243 343 1224 q 460 1263 421 1263 q 542 1234 510 1263 q 575 1161 575 1206 q 558 1109 575 1135 q 496 1046 540 1083 l 528 992 l 460 951 l 399 1044 z "},"Ỡ":{"ha":942,"x_min":46,"x_max":906,"o":"m 906 932 q 869 835 906 876 q 774 775 833 793 q 861 465 861 660 q 751 111 861 236 q 439 -14 640 -14 q 149 103 251 -14 q 46 435 46 221 q 96 690 46 583 q 237 851 146 796 q 449 907 328 907 q 542 899 501 907 q 631 879 582 892 q 700 865 676 865 q 764 921 764 865 q 714 1015 764 972 l 715 1031 q 803 1065 765 1065 q 874 1026 843 1065 q 906 932 906 986 m 454 128 q 615 198 565 128 q 665 428 665 268 q 644 619 665 547 q 576 723 622 690 q 453 756 529 756 q 292 686 342 756 q 242 460 242 617 q 292 204 242 281 q 454 128 342 128 m 697 1168 l 697 1153 l 600 1029 l 582 1022 q 467 1049 544 1026 q 422 1060 460 1050 q 368 1071 383 1071 q 338 1058 353 1071 q 307 1028 324 1046 q 282 1000 290 1010 l 265 1000 l 210 1054 l 210 1069 l 308 1193 l 325 1200 q 443 1172 358 1196 q 539 1151 521 1151 q 572 1165 556 1151 q 604 1197 588 1179 q 626 1222 621 1215 l 643 1222 l 697 1168 z "},"Ő":{"ha":893,"x_min":39,"x_max":856,"o":"m 463 907 q 753 792 651 907 q 856 467 856 678 q 744 111 856 236 q 431 -14 633 -14 q 141 103 243 -14 q 39 436 39 221 q 149 785 39 663 q 463 907 260 907 m 446 756 q 285 686 335 756 q 235 460 235 617 q 284 204 235 281 q 447 128 333 128 q 608 198 558 128 q 658 428 658 268 q 609 680 658 604 q 446 756 560 756 m 283 1068 q 407 1226 350 1150 l 422 1229 l 506 1174 l 508 1158 q 336 997 432 1082 l 319 993 l 261 1040 l 283 1068 m 494 1063 q 621 1226 581 1171 l 636 1229 l 722 1174 l 724 1158 q 550 997 640 1076 l 535 993 l 476 1040 l 494 1063 z "},"Ȏ":{"ha":893,"x_min":39,"x_max":856,"o":"m 463 907 q 753 792 651 907 q 856 467 856 678 q 744 111 856 236 q 431 -14 633 -14 q 141 103 243 -14 q 39 436 39 221 q 149 785 39 663 q 463 907 260 907 m 446 756 q 285 686 335 756 q 235 460 235 617 q 284 204 235 281 q 447 128 333 128 q 608 198 558 128 q 658 428 658 268 q 609 680 658 604 q 446 756 560 756 m 238 1069 q 312 1196 258 1149 q 451 1243 365 1243 q 585 1194 535 1243 q 656 1069 636 1146 l 610 1007 l 585 1007 q 531 1085 567 1058 q 446 1113 496 1113 q 360 1085 396 1113 q 308 1007 325 1058 l 283 1007 l 238 1069 z "},"Ō":{"ha":893,"x_min":39,"x_max":856,"o":"m 463 907 q 753 792 651 907 q 856 467 856 678 q 744 111 856 236 q 431 -14 633 -14 q 141 103 243 -14 q 39 436 39 221 q 149 785 39 663 q 463 907 260 907 m 446 756 q 285 686 335 756 q 235 460 235 617 q 284 204 235 281 q 447 128 333 128 q 608 198 558 128 q 658 428 658 268 q 609 680 658 604 q 446 756 560 756 m 651 1153 l 643 1050 l 254 1050 l 242 1063 l 250 1165 l 639 1165 l 651 1153 z "},"Ṓ":{"ha":893,"x_min":39,"x_max":856,"o":"m 463 907 q 753 792 651 907 q 856 467 856 678 q 744 111 856 236 q 431 -14 633 -14 q 141 103 243 -14 q 39 436 39 221 q 149 785 39 663 q 463 907 260 907 m 446 756 q 285 686 335 756 q 235 460 235 617 q 284 204 235 281 q 447 128 333 128 q 608 198 558 128 q 658 428 658 268 q 609 680 658 604 q 446 756 560 756 m 596 1388 l 622 1272 l 614 1256 q 300 1203 417 1218 l 283 1210 l 268 1292 q 579 1396 436 1342 l 596 1388 m 614 1121 l 604 1017 l 292 1017 l 279 1031 l 289 1133 l 601 1133 l 614 1121 z "},"Ṑ":{"ha":893,"x_min":39,"x_max":856,"o":"m 463 907 q 753 792 651 907 q 856 467 856 678 q 744 111 856 236 q 431 -14 633 -14 q 141 103 243 -14 q 39 436 39 221 q 149 785 39 663 q 463 907 260 907 m 446 756 q 285 686 335 756 q 235 460 235 617 q 284 204 235 281 q 447 128 333 128 q 608 198 558 128 q 658 428 658 268 q 609 680 658 604 q 446 756 560 756 m 593 1203 q 281 1256 482 1218 l 271 1272 l 297 1388 l 314 1396 q 625 1292 457 1342 l 610 1210 l 593 1203 m 614 1121 l 604 1017 l 292 1017 l 279 1031 l 289 1133 l 601 1133 l 614 1121 z "},"Ǫ":{"ha":893,"x_min":39,"x_max":856,"o":"m 463 907 q 753 792 651 907 q 856 467 856 678 q 744 111 856 236 q 431 -14 633 -14 q 141 103 243 -14 q 39 436 39 221 q 149 785 39 663 q 463 907 260 907 m 446 756 q 285 686 335 756 q 235 460 235 617 q 284 204 235 281 q 447 128 333 128 q 608 198 558 128 q 658 428 658 268 q 609 680 658 604 q 446 756 560 756 m 536 -274 q 432 -242 471 -274 q 393 -156 393 -210 q 427 -65 393 -110 q 557 50 461 -19 l 657 50 q 537 -77 564 -43 q 510 -132 510 -111 q 550 -167 510 -167 q 651 -125 593 -167 l 661 -128 l 683 -214 q 536 -274 610 -274 z "},"Ø":{"ha":893,"x_min":39,"x_max":856,"o":"m 711 832 q 819 684 782 776 q 856 467 856 592 q 744 111 856 236 q 431 -14 633 -14 q 313 0 364 -14 l 233 -165 l 115 -122 l 108 -106 l 188 60 q 76 212 114 117 q 39 436 39 307 q 149 785 39 663 q 463 907 260 907 q 585 892 526 907 l 656 1039 l 771 997 l 782 978 l 711 832 m 447 128 q 608 198 558 128 q 658 428 658 268 q 609 680 658 604 q 446 756 560 756 q 285 686 335 756 q 235 460 235 617 q 284 204 235 281 q 447 128 333 128 z "},"Ǿ":{"ha":893,"x_min":39,"x_max":856,"o":"m 711 832 q 819 684 782 776 q 856 467 856 592 q 744 111 856 236 q 431 -14 633 -14 q 313 0 364 -14 l 233 -165 l 115 -122 l 108 -106 l 188 60 q 76 212 114 117 q 39 436 39 307 q 149 785 39 663 q 463 907 260 907 q 585 892 526 907 l 656 1039 l 771 997 l 782 978 l 711 832 m 447 128 q 608 198 558 128 q 658 428 658 268 q 609 680 658 604 q 446 756 560 756 q 285 686 335 756 q 235 460 235 617 q 284 204 235 281 q 447 128 333 128 m 601 1232 l 649 1122 l 643 1106 q 343 997 508 1053 l 326 1003 l 296 1079 q 583 1236 467 1165 l 601 1232 z "},"Õ":{"ha":893,"x_min":39,"x_max":856,"o":"m 463 907 q 753 792 651 907 q 856 467 856 678 q 744 111 856 236 q 431 -14 633 -14 q 141 103 243 -14 q 39 436 39 221 q 149 785 39 663 q 463 907 260 907 m 446 756 q 285 686 335 756 q 235 460 235 617 q 284 204 235 281 q 447 128 333 128 q 608 198 558 128 q 658 428 658 268 q 609 680 658 604 q 446 756 560 756 m 689 1168 l 689 1153 l 592 1029 l 574 1022 q 458 1049 536 1026 q 413 1060 451 1050 q 360 1071 375 1071 q 330 1058 344 1071 q 299 1028 315 1046 q 274 1000 282 1010 l 257 1000 l 201 1054 l 201 1069 l 300 1193 l 317 1200 q 435 1172 350 1196 q 531 1151 513 1151 q 563 1165 547 1151 q 596 1197 579 1179 q 618 1222 613 1215 l 635 1222 l 689 1168 z "},"Ṍ":{"ha":893,"x_min":39,"x_max":856,"o":"m 463 907 q 753 792 651 907 q 856 467 856 678 q 744 111 856 236 q 431 -14 633 -14 q 141 103 243 -14 q 39 436 39 221 q 149 785 39 663 q 463 907 260 907 m 446 756 q 285 686 335 756 q 235 460 235 617 q 284 204 235 281 q 447 128 333 128 q 608 198 558 128 q 658 428 658 268 q 609 680 658 604 q 446 756 560 756 m 592 1411 l 618 1294 l 610 1279 q 297 1225 418 1243 l 281 1233 l 265 1315 q 575 1418 407 1358 l 592 1411 m 661 1146 l 661 1129 l 574 1007 l 557 1001 q 460 1028 524 1007 q 379 1049 394 1049 q 349 1035 364 1049 q 321 1003 335 1021 q 303 979 307 985 l 288 979 l 233 1033 l 233 1049 l 319 1171 l 338 1178 q 435 1151 371 1172 q 515 1131 500 1131 q 544 1143 531 1131 q 571 1174 557 1156 q 592 1200 585 1192 l 607 1200 l 661 1146 z "},"Ṏ":{"ha":893,"x_min":39,"x_max":856,"o":"m 463 907 q 753 792 651 907 q 856 467 856 678 q 744 111 856 236 q 431 -14 633 -14 q 141 103 243 -14 q 39 436 39 221 q 149 785 39 663 q 463 907 260 907 m 446 756 q 285 686 335 756 q 235 460 235 617 q 284 204 235 281 q 447 128 333 128 q 608 198 558 128 q 658 428 658 268 q 609 680 658 604 q 446 756 560 756 m 661 1146 l 661 1131 l 574 1007 l 557 1001 q 460 1028 524 1007 q 379 1049 394 1049 q 349 1035 364 1049 q 321 1003 335 1021 q 303 979 307 985 l 288 979 l 233 1033 l 233 1050 l 319 1171 l 338 1178 q 435 1151 371 1172 q 515 1131 500 1131 q 544 1143 531 1131 q 571 1174 557 1156 q 592 1200 585 1192 l 607 1200 l 661 1146 m 331 1418 q 392 1396 369 1418 q 414 1333 414 1374 q 390 1265 414 1290 q 324 1240 365 1240 q 261 1263 283 1240 q 239 1326 239 1285 q 263 1393 239 1368 q 331 1418 288 1418 m 571 1418 q 632 1396 610 1418 q 654 1333 654 1374 q 630 1265 654 1290 q 565 1240 606 1240 q 503 1263 525 1240 q 481 1326 481 1285 q 505 1393 481 1368 q 571 1418 529 1418 z "},"Ȭ":{"ha":893,"x_min":39,"x_max":856,"o":"m 463 907 q 753 792 651 907 q 856 467 856 678 q 744 111 856 236 q 431 -14 633 -14 q 141 103 243 -14 q 39 436 39 221 q 149 785 39 663 q 463 907 260 907 m 446 756 q 285 686 335 756 q 235 460 235 617 q 284 204 235 281 q 447 128 333 128 q 608 198 558 128 q 658 428 658 268 q 609 680 658 604 q 446 756 560 756 m 661 1146 l 661 1131 l 574 1007 l 557 1001 q 460 1028 524 1007 q 379 1049 394 1049 q 349 1035 364 1049 q 321 1003 335 1021 q 303 979 307 985 l 288 979 l 233 1033 l 233 1050 l 319 1171 l 338 1178 q 435 1151 371 1172 q 515 1131 500 1131 q 544 1143 531 1131 q 571 1174 557 1156 q 592 1200 585 1192 l 607 1200 l 661 1146 m 614 1375 l 604 1272 l 292 1272 l 279 1285 l 289 1388 l 601 1388 l 614 1375 z "},"Œ":{"ha":1207,"x_min":39,"x_max":1185,"o":"m 489 911 q 631 903 542 911 q 744 894 708 894 l 1174 894 l 1185 879 l 1171 739 l 963 746 l 794 746 l 793 529 l 942 526 l 1093 531 l 1104 517 l 1090 376 l 929 381 l 789 379 l 789 281 l 790 150 l 946 147 l 1169 156 l 1181 140 l 1168 0 l 744 0 q 603 -8 693 1 q 461 -17 511 -17 q 149 103 260 -17 q 39 438 39 222 q 158 787 39 663 q 489 911 276 911 m 474 758 q 292 685 349 758 q 235 451 235 613 q 292 206 235 283 q 476 128 350 128 q 546 133 515 128 q 590 146 576 138 q 612 167 606 153 q 617 206 618 181 l 611 679 q 593 739 610 726 q 548 753 581 747 q 474 758 515 758 z "},"P":{"ha":768,"x_min":108,"x_max":743,"o":"m 451 896 q 667 825 592 896 q 743 622 743 754 q 699 445 743 521 q 572 328 654 369 q 378 286 489 286 l 289 286 l 289 283 l 297 0 l 108 0 l 118 267 l 108 894 l 451 896 m 419 424 q 547 606 547 460 q 509 717 547 681 q 392 757 471 754 l 297 751 l 292 429 l 419 424 z "},"Þ":{"ha":779,"x_min":108,"x_max":750,"o":"m 457 754 q 675 685 600 754 q 750 479 750 615 q 655 236 750 322 q 383 150 560 150 l 294 149 l 299 0 l 108 0 l 118 267 l 111 751 l 110 753 l 111 753 l 108 894 l 301 894 l 299 754 l 457 754 m 422 289 q 519 349 486 306 q 551 465 551 392 q 514 577 551 542 q 397 615 476 613 l 297 611 l 292 294 l 422 289 z "},"Q":{"ha":901,"x_min":39,"x_max":1022,"o":"m 1022 -153 q 935 -274 985 -226 l 919 -279 q 463 -14 661 -183 l 433 -14 q 142 103 244 -14 q 39 436 39 221 q 149 785 39 663 q 463 907 260 907 q 753 792 651 907 q 856 464 856 678 q 797 190 856 303 q 631 26 739 78 q 1015 -133 813 -85 l 1022 -153 m 235 457 q 285 207 235 282 q 449 132 335 132 q 608 203 557 132 q 658 432 658 274 q 608 680 658 606 q 444 754 558 754 q 284 685 333 754 q 235 457 235 615 z "},"R":{"ha":819,"x_min":108,"x_max":793,"o":"m 578 356 q 793 44 686 183 l 790 24 q 606 -14 700 -8 l 586 1 q 424 301 486 174 l 289 301 l 289 283 l 297 0 l 108 0 l 118 267 l 108 894 l 451 896 q 668 827 592 896 q 744 631 744 758 q 701 473 744 544 q 578 356 657 401 m 292 447 l 429 442 q 547 613 547 482 q 509 719 547 683 q 392 757 471 754 l 297 751 l 292 447 z "},"Ŕ":{"ha":819,"x_min":108,"x_max":793,"o":"m 578 356 q 793 44 686 183 l 790 24 q 606 -14 700 -8 l 586 1 q 424 301 486 174 l 289 301 l 289 283 l 297 0 l 108 0 l 118 267 l 108 894 l 451 896 q 668 827 592 896 q 744 631 744 758 q 701 473 744 544 q 578 356 657 401 m 292 447 l 429 442 q 547 613 547 482 q 509 719 547 683 q 392 757 471 754 l 297 751 l 292 447 m 546 1253 l 613 1153 l 610 1135 q 564 1107 579 1115 q 339 971 390 1000 l 321 972 l 276 1042 q 528 1254 438 1171 l 546 1253 z "},"Ř":{"ha":819,"x_min":108,"x_max":793,"o":"m 578 356 q 793 44 686 183 l 790 24 q 606 -14 700 -8 l 586 1 q 424 301 486 174 l 289 301 l 289 283 l 297 0 l 108 0 l 118 267 l 108 894 l 451 896 q 668 827 592 896 q 744 631 744 758 q 701 473 744 544 q 578 356 657 401 m 292 447 l 429 442 q 547 613 547 482 q 509 719 547 683 q 392 757 471 754 l 297 751 l 292 447 m 615 1142 q 431 997 519 1076 l 393 997 q 207 1142 296 1081 l 240 1215 l 258 1215 l 294 1194 q 411 1128 353 1163 q 564 1215 464 1160 l 582 1215 l 615 1142 z "},"Ŗ":{"ha":819,"x_min":108,"x_max":793,"o":"m 578 356 q 793 44 686 183 l 790 24 q 606 -14 700 -8 l 586 1 q 424 301 486 174 l 289 301 l 289 283 l 297 0 l 108 0 l 118 267 l 108 894 l 451 896 q 668 827 592 896 q 744 631 744 758 q 701 473 744 544 q 578 356 657 401 m 292 447 l 429 442 q 547 613 547 482 q 509 719 547 683 q 392 757 471 754 l 297 751 l 292 447 m 458 -56 q 514 -162 514 -99 q 477 -271 514 -218 q 364 -378 440 -324 l 311 -331 l 310 -318 q 378 -196 378 -260 q 338 -121 378 -153 l 339 -107 q 458 -56 394 -74 z "},"Ȑ":{"ha":819,"x_min":108,"x_max":793,"o":"m 578 356 q 793 44 686 183 l 790 24 q 606 -14 700 -8 l 586 1 q 424 301 486 174 l 289 301 l 289 283 l 297 0 l 108 0 l 118 267 l 108 894 l 451 896 q 668 827 592 896 q 744 631 744 758 q 701 473 744 544 q 578 356 657 401 m 292 447 l 429 442 q 547 613 547 482 q 509 719 547 683 q 392 757 471 754 l 297 751 l 292 447 m 324 993 l 308 997 q 133 1158 204 1090 l 136 1174 l 222 1229 l 236 1226 q 328 1110 264 1189 l 382 1040 l 324 993 m 539 993 l 522 997 q 349 1158 432 1076 l 351 1174 l 436 1229 l 451 1226 q 597 1040 500 1158 l 539 993 z "},"Ṛ":{"ha":819,"x_min":108,"x_max":793,"o":"m 578 356 q 793 44 686 183 l 790 24 q 606 -14 700 -8 l 586 1 q 424 301 486 174 l 289 301 l 289 283 l 297 0 l 108 0 l 118 267 l 108 894 l 451 896 q 668 827 592 896 q 744 631 744 758 q 701 473 744 544 q 578 356 657 401 m 292 447 l 429 442 q 547 613 547 482 q 509 719 547 683 q 392 757 471 754 l 297 751 l 292 447 m 415 -72 q 483 -97 458 -72 q 507 -167 507 -122 q 481 -242 507 -214 q 408 -269 454 -269 q 338 -244 363 -269 q 314 -174 314 -219 q 341 -100 314 -128 q 415 -72 368 -72 z "},"Ȓ":{"ha":819,"x_min":108,"x_max":793,"o":"m 578 356 q 793 44 686 183 l 790 24 q 606 -14 700 -8 l 586 1 q 424 301 486 174 l 289 301 l 289 283 l 297 0 l 108 0 l 118 267 l 108 894 l 451 896 q 668 827 592 896 q 744 631 744 758 q 701 473 744 544 q 578 356 657 401 m 292 447 l 429 442 q 547 613 547 482 q 509 719 547 683 q 392 757 471 754 l 297 751 l 292 447 m 201 1069 q 276 1196 222 1149 q 415 1243 329 1243 q 549 1194 499 1243 q 619 1069 600 1146 l 574 1007 l 549 1007 q 495 1085 531 1058 q 410 1113 460 1113 q 324 1085 360 1113 q 272 1007 289 1058 l 247 1007 l 201 1069 z "},"Ṟ":{"ha":819,"x_min":108,"x_max":793,"o":"m 578 356 q 793 44 686 183 l 790 24 q 606 -14 700 -8 l 586 1 q 424 301 486 174 l 289 301 l 289 283 l 297 0 l 108 0 l 118 267 l 108 894 l 451 896 q 668 827 592 896 q 744 631 744 758 q 701 473 744 544 q 578 356 657 401 m 292 447 l 429 442 q 547 613 547 482 q 509 719 547 683 q 392 757 471 754 l 297 751 l 292 447 m 592 -133 l 583 -237 l 242 -237 l 229 -224 l 238 -121 l 579 -121 l 592 -133 z "},"S":{"ha":692,"x_min":43,"x_max":644,"o":"m 396 906 q 622 860 510 906 l 592 697 l 564 686 q 466 739 517 719 q 374 758 415 758 q 285 728 318 758 q 251 660 251 699 q 288 592 251 619 q 404 526 325 564 q 528 462 481 492 q 610 383 576 432 q 644 264 644 335 q 603 124 644 188 q 485 24 561 61 q 308 -12 408 -12 q 43 44 176 -12 l 69 219 l 90 231 q 212 156 146 182 q 329 131 278 131 q 424 160 390 131 q 458 232 458 190 q 422 304 458 276 q 303 371 385 332 q 181 433 228 404 q 100 511 133 463 q 67 629 67 560 q 108 770 67 707 q 225 869 150 833 q 396 906 300 906 z "},"Ś":{"ha":692,"x_min":43,"x_max":644,"o":"m 396 906 q 622 860 510 906 l 592 697 l 564 686 q 466 739 517 719 q 374 758 415 758 q 285 728 318 758 q 251 660 251 699 q 288 592 251 619 q 404 526 325 564 q 528 462 481 492 q 610 383 576 432 q 644 264 644 335 q 603 124 644 188 q 485 24 561 61 q 308 -12 408 -12 q 43 44 176 -12 l 69 219 l 90 231 q 212 156 146 182 q 329 131 278 131 q 424 160 390 131 q 458 232 458 190 q 422 304 458 276 q 303 371 385 332 q 181 433 228 404 q 100 511 133 463 q 67 629 67 560 q 108 770 67 707 q 225 869 150 833 q 396 906 300 906 m 496 1253 l 563 1153 l 560 1135 q 514 1107 529 1115 q 289 971 340 1000 l 271 972 l 226 1042 q 478 1254 388 1171 l 496 1253 z "},"Ṥ":{"ha":692,"x_min":43,"x_max":644,"o":"m 396 906 q 622 860 510 906 l 592 697 l 564 686 q 466 739 517 719 q 374 758 415 758 q 285 728 318 758 q 251 660 251 699 q 288 592 251 619 q 404 526 325 564 q 528 462 481 492 q 610 383 576 432 q 644 264 644 335 q 603 124 644 188 q 485 24 561 61 q 308 -12 408 -12 q 43 44 176 -12 l 69 219 l 90 231 q 212 156 146 182 q 329 131 278 131 q 424 160 390 131 q 458 232 458 190 q 422 304 458 276 q 303 371 385 332 q 181 433 228 404 q 100 511 133 463 q 67 629 67 560 q 108 770 67 707 q 225 869 150 833 q 396 906 300 906 m 517 1231 l 564 1121 l 558 1104 q 258 996 424 1051 l 242 1001 l 211 1078 q 499 1235 382 1164 l 517 1231 m 346 1443 q 413 1418 389 1443 q 438 1349 438 1393 q 411 1274 438 1301 q 339 1246 385 1246 q 269 1271 293 1246 q 244 1342 244 1296 q 272 1415 244 1388 q 346 1443 299 1443 z "},"Ꞌ":{"ha":201,"x_min":33,"x_max":188,"o":"m 188 840 l 139 433 l 51 417 l 38 432 l 33 846 l 176 858 l 188 840 z "},"Š":{"ha":692,"x_min":43,"x_max":644,"o":"m 396 906 q 622 860 510 906 l 592 697 l 564 686 q 466 739 517 719 q 374 758 415 758 q 285 728 318 758 q 251 660 251 699 q 288 592 251 619 q 404 526 325 564 q 528 462 481 492 q 610 383 576 432 q 644 264 644 335 q 603 124 644 188 q 485 24 561 61 q 308 -12 408 -12 q 43 44 176 -12 l 69 219 l 90 231 q 212 156 146 182 q 329 131 278 131 q 424 160 390 131 q 458 232 458 190 q 422 304 458 276 q 303 371 385 332 q 181 433 228 404 q 100 511 133 463 q 67 629 67 560 q 108 770 67 707 q 225 869 150 833 q 396 906 300 906 m 565 1142 q 381 997 469 1076 l 343 997 q 157 1142 246 1081 l 190 1215 l 208 1215 l 244 1194 q 361 1128 303 1163 q 514 1215 414 1160 l 532 1215 l 565 1142 z "},"Ṧ":{"ha":692,"x_min":43,"x_max":644,"o":"m 396 906 q 622 860 510 906 l 592 697 l 564 686 q 466 739 517 719 q 374 758 415 758 q 285 728 318 758 q 251 660 251 699 q 288 592 251 619 q 404 526 325 564 q 528 462 481 492 q 610 383 576 432 q 644 264 644 335 q 603 124 644 188 q 485 24 561 61 q 308 -12 408 -12 q 43 44 176 -12 l 69 219 l 90 231 q 212 156 146 182 q 329 131 278 131 q 424 160 390 131 q 458 232 458 190 q 422 304 458 276 q 303 371 385 332 q 181 433 228 404 q 100 511 133 463 q 67 629 67 560 q 108 770 67 707 q 225 869 150 833 q 396 906 300 906 m 565 1142 q 381 997 469 1076 l 343 997 q 157 1142 246 1081 l 190 1215 l 208 1215 l 244 1194 q 361 1128 303 1163 q 514 1215 414 1160 l 532 1215 l 565 1142 m 365 1432 q 433 1407 408 1432 q 457 1338 457 1382 q 431 1263 457 1290 q 358 1235 404 1235 q 288 1260 313 1235 q 264 1331 264 1285 q 291 1404 264 1376 q 365 1432 318 1432 z "},"Ş":{"ha":692,"x_min":43,"x_max":644,"o":"m 396 906 q 622 860 510 906 l 592 697 l 564 686 q 466 739 517 719 q 374 758 415 758 q 285 728 318 758 q 251 660 251 699 q 288 592 251 619 q 404 526 325 564 q 528 462 481 492 q 610 383 576 432 q 644 264 644 335 q 603 124 644 188 q 485 24 561 61 q 308 -12 408 -12 q 43 44 176 -12 l 69 219 l 90 231 q 212 156 146 182 q 329 131 278 131 q 424 160 390 131 q 458 232 458 190 q 422 304 458 276 q 303 371 385 332 q 181 433 228 404 q 100 511 133 463 q 67 629 67 560 q 108 770 67 707 q 225 869 150 833 q 396 906 300 906 m 363 -67 l 410 -93 q 453 -130 440 -110 q 467 -175 467 -150 q 431 -250 467 -221 q 336 -279 394 -279 q 222 -240 274 -279 l 235 -162 l 243 -158 q 325 -200 285 -200 q 358 -171 358 -200 q 353 -155 358 -161 q 335 -143 347 -149 l 267 -104 l 299 36 l 388 36 l 363 -67 z "},"Ŝ":{"ha":692,"x_min":43,"x_max":644,"o":"m 396 906 q 622 860 510 906 l 592 697 l 564 686 q 466 739 517 719 q 374 758 415 758 q 285 728 318 758 q 251 660 251 699 q 288 592 251 619 q 404 526 325 564 q 528 462 481 492 q 610 383 576 432 q 644 264 644 335 q 603 124 644 188 q 485 24 561 61 q 308 -12 408 -12 q 43 44 176 -12 l 69 219 l 90 231 q 212 156 146 182 q 329 131 278 131 q 424 160 390 131 q 458 232 458 190 q 422 304 458 276 q 303 371 385 332 q 181 433 228 404 q 100 511 133 463 q 67 629 67 560 q 108 770 67 707 q 225 869 150 833 q 396 906 300 906 m 146 1050 q 342 1246 225 1122 l 382 1246 q 576 1050 490 1126 l 531 979 l 513 979 q 361 1107 421 1051 q 211 979 307 1056 l 193 979 l 146 1050 z "},"Ș":{"ha":692,"x_min":43,"x_max":644,"o":"m 396 906 q 622 860 510 906 l 592 697 l 564 686 q 466 739 517 719 q 374 758 415 758 q 285 728 318 758 q 251 660 251 699 q 288 592 251 619 q 404 526 325 564 q 528 462 481 492 q 610 383 576 432 q 644 264 644 335 q 603 124 644 188 q 485 24 561 61 q 308 -12 408 -12 q 43 44 176 -12 l 69 219 l 90 231 q 212 156 146 182 q 329 131 278 131 q 424 160 390 131 q 458 232 458 190 q 422 304 458 276 q 303 371 385 332 q 181 433 228 404 q 100 511 133 463 q 67 629 67 560 q 108 770 67 707 q 225 869 150 833 q 396 906 300 906 m 382 -56 q 438 -162 438 -99 q 401 -271 438 -218 q 288 -378 364 -324 l 235 -331 l 233 -318 q 301 -196 301 -260 q 261 -121 301 -153 l 263 -107 q 382 -56 318 -74 z "},"Ṡ":{"ha":692,"x_min":43,"x_max":644,"o":"m 396 906 q 622 860 510 906 l 592 697 l 564 686 q 466 739 517 719 q 374 758 415 758 q 285 728 318 758 q 251 660 251 699 q 288 592 251 619 q 404 526 325 564 q 528 462 481 492 q 610 383 576 432 q 644 264 644 335 q 603 124 644 188 q 485 24 561 61 q 308 -12 408 -12 q 43 44 176 -12 l 69 219 l 90 231 q 212 156 146 182 q 329 131 278 131 q 424 160 390 131 q 458 232 458 190 q 422 304 458 276 q 303 371 385 332 q 181 433 228 404 q 100 511 133 463 q 67 629 67 560 q 108 770 67 707 q 225 869 150 833 q 396 906 300 906 m 365 1211 q 433 1186 408 1211 q 457 1117 457 1161 q 431 1042 457 1069 q 358 1014 404 1014 q 288 1039 313 1014 q 264 1110 264 1064 q 291 1183 264 1156 q 365 1211 318 1211 z "},"Ṣ":{"ha":692,"x_min":43,"x_max":644,"o":"m 396 906 q 622 860 510 906 l 592 697 l 564 686 q 466 739 517 719 q 374 758 415 758 q 285 728 318 758 q 251 660 251 699 q 288 592 251 619 q 404 526 325 564 q 528 462 481 492 q 610 383 576 432 q 644 264 644 335 q 603 124 644 188 q 485 24 561 61 q 308 -12 408 -12 q 43 44 176 -12 l 69 219 l 90 231 q 212 156 146 182 q 329 131 278 131 q 424 160 390 131 q 458 232 458 190 q 422 304 458 276 q 303 371 385 332 q 181 433 228 404 q 100 511 133 463 q 67 629 67 560 q 108 770 67 707 q 225 869 150 833 q 396 906 300 906 m 339 -72 q 406 -97 382 -72 q 431 -167 431 -122 q 404 -242 431 -214 q 332 -269 378 -269 q 262 -244 286 -269 q 238 -174 238 -219 q 265 -100 238 -128 q 339 -72 292 -72 z "},"Ṩ":{"ha":692,"x_min":43,"x_max":644,"o":"m 396 906 q 622 860 510 906 l 592 697 l 564 686 q 466 739 517 719 q 374 758 415 758 q 285 728 318 758 q 251 660 251 699 q 288 592 251 619 q 404 526 325 564 q 528 462 481 492 q 610 383 576 432 q 644 264 644 335 q 603 124 644 188 q 485 24 561 61 q 308 -12 408 -12 q 43 44 176 -12 l 69 219 l 90 231 q 212 156 146 182 q 329 131 278 131 q 424 160 390 131 q 458 232 458 190 q 422 304 458 276 q 303 371 385 332 q 181 433 228 404 q 100 511 133 463 q 67 629 67 560 q 108 770 67 707 q 225 869 150 833 q 396 906 300 906 m 339 -72 q 406 -97 382 -72 q 431 -167 431 -122 q 404 -242 431 -214 q 332 -269 378 -269 q 262 -244 286 -269 q 238 -174 238 -219 q 265 -100 238 -128 q 339 -72 292 -72 m 365 1211 q 433 1186 408 1211 q 457 1117 457 1161 q 431 1042 457 1069 q 358 1014 404 1014 q 288 1039 313 1014 q 264 1110 264 1064 q 291 1183 264 1156 q 365 1211 318 1211 z "},"ẞ":{"ha":928,"x_min":83,"x_max":901,"o":"m 471 906 q 647 883 563 906 q 832 813 732 860 l 840 785 l 640 524 q 791 441 738 476 q 873 359 844 406 q 901 247 901 313 q 860 106 901 164 q 751 17 819 47 q 597 -12 682 -12 q 472 2 536 -12 q 353 44 408 17 l 379 219 l 400 231 q 508 158 451 185 q 610 132 564 132 q 686 158 657 132 q 715 226 715 185 q 650 325 715 279 q 421 436 585 371 l 414 465 l 607 722 q 458 754 529 754 q 269 576 269 754 l 265 285 l 274 0 l 83 0 l 94 264 l 89 576 q 188 816 88 726 q 471 906 289 906 z "},"Ə":{"ha":875,"x_min":54,"x_max":836,"o":"m 407 904 q 637 849 540 904 q 785 692 733 794 q 836 449 836 589 q 785 204 836 308 q 640 44 735 100 q 419 -12 546 -12 q 228 30 311 -12 q 100 149 146 72 q 54 326 54 225 q 64 431 54 368 l 89 460 l 647 463 q 389 747 638 747 q 119 675 256 747 l 100 689 l 132 844 q 407 904 264 904 m 421 128 q 565 183 510 128 q 639 342 621 239 l 240 335 l 238 306 q 288 176 238 224 q 421 128 338 128 z "},"T":{"ha":699,"x_min":21,"x_max":679,"o":"m 679 879 l 668 739 l 500 747 l 444 747 l 438 283 l 446 0 l 257 0 l 267 267 l 260 747 l 204 747 l 33 739 l 21 754 l 33 894 l 668 894 l 679 879 z "},"Ŧ":{"ha":699,"x_min":21,"x_max":679,"o":"m 444 747 l 440 474 l 576 474 l 589 461 l 582 371 l 439 371 l 438 283 l 446 0 l 257 0 l 267 267 l 265 371 l 142 371 l 129 383 l 138 474 l 264 474 l 260 747 l 204 747 l 33 739 l 21 754 l 33 894 l 668 894 l 679 879 l 668 739 l 500 747 l 444 747 z "},"Ť":{"ha":699,"x_min":21,"x_max":679,"o":"m 679 879 l 668 739 l 500 747 l 444 747 l 438 283 l 446 0 l 257 0 l 267 267 l 260 747 l 204 747 l 33 739 l 21 754 l 33 894 l 668 894 l 679 879 m 557 1142 q 372 997 461 1076 l 335 997 q 149 1142 238 1081 l 182 1215 l 200 1215 l 236 1194 q 353 1128 294 1163 q 506 1215 406 1160 l 524 1215 l 557 1142 z "},"Ţ":{"ha":699,"x_min":21,"x_max":679,"o":"m 679 879 l 668 739 l 500 747 l 444 747 l 438 283 l 446 0 l 392 0 l 375 -65 l 422 -93 q 466 -130 453 -110 q 479 -175 479 -150 q 443 -250 479 -221 q 347 -279 407 -279 q 233 -240 288 -279 l 247 -161 l 256 -158 q 336 -200 300 -200 q 361 -192 351 -200 q 371 -171 371 -185 q 365 -155 371 -161 q 347 -143 360 -149 l 279 -104 l 303 0 l 257 0 l 267 267 l 260 747 l 204 747 l 33 739 l 21 754 l 33 894 l 668 894 l 679 879 z "},"Ț":{"ha":699,"x_min":21,"x_max":679,"o":"m 679 879 l 668 739 l 500 747 l 444 747 l 438 283 l 446 0 l 257 0 l 267 267 l 260 747 l 204 747 l 33 739 l 21 754 l 33 894 l 668 894 l 679 879 m 394 -56 q 450 -162 450 -99 q 413 -271 450 -218 q 300 -378 376 -324 l 247 -331 l 246 -318 q 314 -196 314 -260 q 274 -121 314 -153 l 275 -107 q 394 -56 331 -74 z "},"Ṭ":{"ha":699,"x_min":21,"x_max":679,"o":"m 679 879 l 668 739 l 500 747 l 444 747 l 438 283 l 446 0 l 257 0 l 267 267 l 260 747 l 204 747 l 33 739 l 21 754 l 33 894 l 668 894 l 679 879 m 351 -72 q 419 -97 394 -72 q 443 -167 443 -122 q 417 -242 443 -214 q 344 -269 390 -269 q 274 -244 299 -269 q 250 -174 250 -219 q 277 -100 250 -128 q 351 -72 304 -72 z "},"Ṯ":{"ha":699,"x_min":21,"x_max":679,"o":"m 679 879 l 668 739 l 500 747 l 444 747 l 438 283 l 446 0 l 257 0 l 267 267 l 260 747 l 204 747 l 33 739 l 21 754 l 33 894 l 668 894 l 679 879 m 528 -133 l 519 -237 l 178 -237 l 165 -224 l 174 -121 l 515 -121 l 528 -133 z "},"U":{"ha":886,"x_min":83,"x_max":803,"o":"m 796 440 l 794 322 q 701 75 796 163 q 431 -12 607 -12 q 172 72 261 -12 q 88 315 83 157 l 89 444 l 85 894 l 274 894 l 264 340 q 307 190 263 239 q 442 142 351 142 q 621 331 622 142 l 611 894 l 803 894 l 796 440 z "},"Ú":{"ha":886,"x_min":85,"x_max":803,"o":"m 796 440 l 794 322 q 701 75 796 163 q 431 -12 607 -12 q 172 72 261 -12 q 88 315 83 157 l 89 444 l 85 894 l 274 894 l 264 340 q 307 190 263 239 q 442 142 351 142 q 621 331 622 142 l 611 894 l 803 894 l 796 440 m 601 1231 l 649 1121 l 643 1104 q 343 996 508 1051 l 326 1001 l 296 1078 q 583 1235 467 1164 l 601 1231 z "},"Ŭ":{"ha":886,"x_min":85,"x_max":803,"o":"m 796 440 l 794 322 q 701 75 796 163 q 431 -12 607 -12 q 172 72 261 -12 q 88 315 83 157 l 89 444 l 85 894 l 274 894 l 264 340 q 307 190 263 239 q 442 142 351 142 q 621 331 622 142 l 611 894 l 803 894 l 796 440 m 656 1158 q 581 1032 635 1079 q 442 985 528 985 q 308 1033 358 985 q 238 1158 257 1082 l 283 1221 l 308 1221 q 362 1142 326 1169 q 447 1115 397 1115 q 533 1142 497 1115 q 585 1221 568 1169 l 610 1221 l 656 1158 z "},"Ǔ":{"ha":886,"x_min":85,"x_max":803,"o":"m 796 440 l 794 322 q 701 75 796 163 q 431 -12 607 -12 q 172 72 261 -12 q 88 315 83 157 l 89 444 l 85 894 l 274 894 l 264 340 q 307 190 263 239 q 442 142 351 142 q 621 331 622 142 l 611 894 l 803 894 l 796 440 m 650 1142 q 465 997 554 1076 l 428 997 q 242 1142 331 1081 l 275 1215 l 293 1215 l 329 1194 q 446 1128 388 1163 q 599 1215 499 1160 l 617 1215 l 650 1142 z "},"Û":{"ha":886,"x_min":85,"x_max":803,"o":"m 796 440 l 794 322 q 701 75 796 163 q 431 -12 607 -12 q 172 72 261 -12 q 88 315 83 157 l 89 444 l 85 894 l 274 894 l 264 340 q 307 190 263 239 q 442 142 351 142 q 621 331 622 142 l 611 894 l 803 894 l 796 440 m 243 1085 q 428 1229 339 1150 l 465 1229 q 651 1085 563 1146 l 618 1011 l 600 1011 l 564 1032 q 447 1099 506 1064 q 294 1011 394 1067 l 276 1011 l 243 1085 z "},"Ȕ":{"ha":886,"x_min":85,"x_max":803,"o":"m 796 440 l 794 322 q 701 75 796 163 q 431 -12 607 -12 q 172 72 261 -12 q 88 315 83 157 l 89 444 l 85 894 l 274 894 l 264 340 q 307 190 263 239 q 442 142 351 142 q 621 331 622 142 l 611 894 l 803 894 l 796 440 m 358 993 l 343 997 q 168 1158 239 1090 l 171 1174 l 257 1229 l 271 1226 q 363 1110 299 1189 l 417 1040 l 358 993 m 574 993 l 557 997 q 383 1158 467 1076 l 386 1174 l 471 1229 l 486 1226 q 632 1040 535 1158 l 574 993 z "},"Ü":{"ha":886,"x_min":85,"x_max":803,"o":"m 796 440 l 794 322 q 701 75 796 163 q 431 -12 607 -12 q 172 72 261 -12 q 88 315 83 157 l 89 444 l 85 894 l 274 894 l 264 340 q 307 190 263 239 q 442 142 351 142 q 621 331 622 142 l 611 894 l 803 894 l 796 440 m 331 1196 q 392 1174 369 1196 q 414 1111 414 1151 q 390 1043 414 1068 q 324 1018 365 1018 q 261 1040 283 1018 q 239 1104 239 1063 q 263 1171 239 1146 q 331 1196 288 1196 m 571 1196 q 632 1174 610 1196 q 654 1111 654 1151 q 630 1043 654 1068 q 565 1018 606 1018 q 503 1040 525 1018 q 481 1104 481 1063 q 505 1171 481 1146 q 571 1196 529 1196 z "},"Ǘ":{"ha":886,"x_min":85,"x_max":803,"o":"m 796 440 l 794 322 q 701 75 796 163 q 431 -12 607 -12 q 172 72 261 -12 q 88 315 83 157 l 89 444 l 85 894 l 274 894 l 264 340 q 307 190 263 239 q 442 142 351 142 q 621 331 622 142 l 611 894 l 803 894 l 796 440 m 590 1415 l 618 1300 l 608 1283 q 297 1231 407 1246 l 281 1238 l 264 1319 q 574 1424 449 1375 l 590 1415 m 328 1165 q 388 1144 367 1165 q 408 1082 408 1122 q 385 1017 408 1042 q 322 992 361 992 q 260 1014 282 992 q 239 1076 239 1036 q 263 1141 239 1117 q 328 1165 288 1165 m 569 1165 q 629 1144 608 1165 q 650 1082 650 1122 q 626 1017 650 1042 q 564 992 603 992 q 502 1014 524 992 q 481 1076 481 1036 q 505 1141 481 1117 q 569 1165 529 1165 z "},"Ǚ":{"ha":886,"x_min":85,"x_max":803,"o":"m 796 440 l 794 322 q 701 75 796 163 q 431 -12 607 -12 q 172 72 261 -12 q 88 315 83 157 l 89 444 l 85 894 l 274 894 l 264 340 q 307 190 263 239 q 442 142 351 142 q 621 331 622 142 l 611 894 l 803 894 l 796 440 m 649 1329 q 464 1185 554 1264 l 426 1185 q 240 1329 325 1269 l 274 1403 l 292 1403 l 444 1315 q 597 1403 544 1374 l 615 1403 l 649 1329 m 328 1165 q 388 1144 367 1165 q 408 1082 408 1122 q 385 1017 408 1042 q 322 992 361 992 q 260 1014 282 992 q 239 1076 239 1036 q 263 1141 239 1117 q 328 1165 288 1165 m 569 1165 q 629 1144 608 1165 q 650 1082 650 1122 q 626 1017 650 1042 q 564 992 603 992 q 502 1014 524 992 q 481 1076 481 1036 q 505 1141 481 1117 q 569 1165 529 1165 z "},"Ǜ":{"ha":886,"x_min":85,"x_max":803,"o":"m 796 440 l 794 322 q 701 75 796 163 q 431 -12 607 -12 q 172 72 261 -12 q 88 315 83 157 l 89 444 l 85 894 l 274 894 l 264 340 q 307 190 263 239 q 442 142 351 142 q 621 331 622 142 l 611 894 l 803 894 l 796 440 m 307 1424 q 618 1319 450 1369 l 603 1238 l 585 1231 q 272 1283 469 1246 l 264 1300 l 292 1415 l 307 1424 m 328 1165 q 388 1144 367 1165 q 408 1082 408 1122 q 385 1017 408 1042 q 322 992 361 992 q 260 1014 282 992 q 239 1076 239 1036 q 263 1141 239 1117 q 328 1165 288 1165 m 569 1165 q 629 1144 608 1165 q 650 1082 650 1122 q 626 1017 650 1042 q 564 992 603 992 q 502 1014 524 992 q 481 1076 481 1036 q 505 1141 481 1117 q 569 1165 529 1165 z "},"Ǖ":{"ha":886,"x_min":85,"x_max":803,"o":"m 796 440 l 794 322 q 701 75 796 163 q 431 -12 607 -12 q 172 72 261 -12 q 88 315 83 157 l 89 444 l 85 894 l 274 894 l 264 340 q 307 190 263 239 q 442 142 351 142 q 621 331 622 142 l 611 894 l 803 894 l 796 440 m 643 1349 l 632 1244 l 264 1244 l 251 1258 l 260 1363 l 629 1363 l 643 1349 m 328 1165 q 388 1144 367 1165 q 408 1082 408 1122 q 385 1017 408 1042 q 322 992 361 992 q 260 1014 282 992 q 239 1076 239 1036 q 263 1141 239 1117 q 328 1165 288 1165 m 569 1165 q 629 1144 608 1165 q 650 1082 650 1122 q 626 1017 650 1042 q 564 992 603 992 q 502 1014 524 992 q 481 1076 481 1036 q 505 1141 481 1117 q 569 1165 529 1165 z "},"Ụ":{"ha":886,"x_min":85,"x_max":803,"o":"m 796 440 l 794 322 q 701 75 796 163 q 431 -12 607 -12 q 172 72 261 -12 q 88 315 83 157 l 89 444 l 85 894 l 274 894 l 264 340 q 307 190 263 239 q 442 142 351 142 q 621 331 622 142 l 611 894 l 803 894 l 796 440 m 443 -72 q 510 -97 486 -72 q 535 -167 535 -122 q 508 -242 535 -214 q 436 -269 482 -269 q 366 -244 390 -269 q 342 -174 342 -219 q 369 -100 342 -128 q 443 -72 396 -72 z "},"Ù":{"ha":886,"x_min":85,"x_max":803,"o":"m 796 440 l 794 322 q 701 75 796 163 q 431 -12 607 -12 q 172 72 261 -12 q 88 315 83 157 l 89 444 l 85 894 l 274 894 l 264 340 q 307 190 263 239 q 442 142 351 142 q 621 331 622 142 l 611 894 l 803 894 l 796 440 m 335 1235 q 622 1078 449 1167 l 593 1001 l 575 996 q 276 1104 407 1053 l 271 1121 l 317 1231 l 335 1235 z "},"Ủ":{"ha":886,"x_min":85,"x_max":803,"o":"m 796 440 l 794 322 q 701 75 796 163 q 431 -12 607 -12 q 172 72 261 -12 q 88 315 83 157 l 89 444 l 85 894 l 274 894 l 264 340 q 307 190 263 239 q 442 142 351 142 q 621 331 622 142 l 611 894 l 803 894 l 796 440 m 389 1044 q 443 1097 424 1069 q 463 1144 463 1124 q 452 1167 463 1160 q 424 1175 442 1175 q 378 1166 403 1175 q 332 1140 353 1157 l 301 1190 q 372 1243 333 1224 q 450 1263 411 1263 q 533 1234 500 1263 q 565 1161 565 1206 q 548 1109 565 1135 q 486 1046 531 1083 l 518 992 l 450 951 l 389 1044 z "},"Ư":{"ha":900,"x_min":83,"x_max":929,"o":"m 929 979 q 895 884 929 926 q 801 819 861 842 l 796 440 l 794 322 q 701 75 796 163 q 431 -12 607 -12 q 172 72 261 -12 q 88 315 83 157 l 89 444 l 85 894 l 274 894 l 264 340 q 307 190 263 239 q 442 142 351 142 q 621 331 622 142 l 611 894 l 700 894 q 786 963 786 894 q 742 1046 786 1007 l 746 1060 q 836 1096 796 1096 q 901 1062 872 1096 q 929 979 929 1028 z "},"Ứ":{"ha":900,"x_min":85,"x_max":929,"o":"m 929 979 q 895 884 929 926 q 801 819 861 842 l 796 440 l 794 322 q 701 75 796 163 q 431 -12 607 -12 q 172 72 261 -12 q 88 315 83 157 l 89 444 l 85 894 l 274 894 l 264 340 q 307 190 263 239 q 442 142 351 142 q 621 331 622 142 l 611 894 l 700 894 q 786 963 786 894 q 742 1046 786 1007 l 746 1060 q 836 1096 796 1096 q 901 1062 872 1096 q 929 979 929 1028 m 601 1231 l 649 1121 l 643 1104 q 343 996 508 1051 l 326 1001 l 296 1078 q 583 1235 467 1164 l 601 1231 z "},"Ự":{"ha":900,"x_min":85,"x_max":929,"o":"m 929 979 q 895 884 929 926 q 801 819 861 842 l 796 440 l 794 322 q 701 75 796 163 q 431 -12 607 -12 q 172 72 261 -12 q 88 315 83 157 l 89 444 l 85 894 l 274 894 l 264 340 q 307 190 263 239 q 442 142 351 142 q 621 331 622 142 l 611 894 l 700 894 q 786 963 786 894 q 742 1046 786 1007 l 746 1060 q 836 1096 796 1096 q 901 1062 872 1096 q 929 979 929 1028 m 446 -72 q 513 -97 489 -72 q 538 -167 538 -122 q 511 -242 538 -214 q 439 -269 485 -269 q 369 -244 393 -269 q 344 -174 344 -219 q 372 -100 344 -128 q 446 -72 399 -72 z "},"Ừ":{"ha":900,"x_min":85,"x_max":929,"o":"m 929 979 q 895 884 929 926 q 801 819 861 842 l 796 440 l 794 322 q 701 75 796 163 q 431 -12 607 -12 q 172 72 261 -12 q 88 315 83 157 l 89 444 l 85 894 l 274 894 l 264 340 q 307 190 263 239 q 442 142 351 142 q 621 331 622 142 l 611 894 l 700 894 q 786 963 786 894 q 742 1046 786 1007 l 746 1060 q 836 1096 796 1096 q 901 1062 872 1096 q 929 979 929 1028 m 335 1235 q 622 1078 449 1167 l 593 1001 l 575 996 q 276 1104 407 1053 l 271 1121 l 317 1231 l 335 1235 z "},"Ử":{"ha":900,"x_min":85,"x_max":929,"o":"m 929 979 q 895 884 929 926 q 801 819 861 842 l 796 440 l 794 322 q 701 75 796 163 q 431 -12 607 -12 q 172 72 261 -12 q 88 315 83 157 l 89 444 l 85 894 l 274 894 l 264 340 q 307 190 263 239 q 442 142 351 142 q 621 331 622 142 l 611 894 l 700 894 q 786 963 786 894 q 742 1046 786 1007 l 746 1060 q 836 1096 796 1096 q 901 1062 872 1096 q 929 979 929 1028 m 389 1044 q 443 1097 424 1069 q 463 1144 463 1124 q 452 1167 463 1160 q 424 1175 442 1175 q 378 1166 403 1175 q 332 1140 353 1157 l 301 1190 q 372 1243 333 1224 q 450 1263 411 1263 q 533 1234 500 1263 q 565 1161 565 1206 q 548 1109 565 1135 q 486 1046 531 1083 l 518 992 l 450 951 l 389 1044 z "},"Ữ":{"ha":900,"x_min":85,"x_max":929,"o":"m 929 979 q 895 884 929 926 q 801 819 861 842 l 796 440 l 794 322 q 701 75 796 163 q 431 -12 607 -12 q 172 72 261 -12 q 88 315 83 157 l 89 444 l 85 894 l 274 894 l 264 340 q 307 190 263 239 q 442 142 351 142 q 621 331 622 142 l 611 894 l 700 894 q 786 963 786 894 q 742 1046 786 1007 l 746 1060 q 836 1096 796 1096 q 901 1062 872 1096 q 929 979 929 1028 m 688 1168 l 688 1153 l 590 1029 l 572 1022 q 457 1049 535 1026 q 412 1060 450 1050 q 358 1071 374 1071 q 328 1058 343 1071 q 297 1028 314 1046 q 272 1000 281 1010 l 256 1000 l 200 1054 l 200 1069 l 299 1193 l 315 1200 q 433 1172 349 1196 q 529 1151 511 1151 q 562 1165 546 1151 q 594 1197 578 1179 q 617 1222 611 1215 l 633 1222 l 688 1168 z "},"Ű":{"ha":886,"x_min":85,"x_max":803,"o":"m 796 440 l 794 322 q 701 75 796 163 q 431 -12 607 -12 q 172 72 261 -12 q 88 315 83 157 l 89 444 l 85 894 l 274 894 l 264 340 q 307 190 263 239 q 442 142 351 142 q 621 331 622 142 l 611 894 l 803 894 l 796 440 m 282 1068 q 406 1226 349 1150 l 421 1229 l 504 1174 l 507 1158 q 335 997 431 1082 l 318 993 l 260 1040 l 282 1068 m 493 1063 q 619 1226 579 1171 l 635 1229 l 721 1174 l 722 1158 q 549 997 639 1076 l 533 993 l 475 1040 l 493 1063 z "},"Ȗ":{"ha":886,"x_min":85,"x_max":803,"o":"m 796 440 l 794 322 q 701 75 796 163 q 431 -12 607 -12 q 172 72 261 -12 q 88 315 83 157 l 89 444 l 85 894 l 274 894 l 264 340 q 307 190 263 239 q 442 142 351 142 q 621 331 622 142 l 611 894 l 803 894 l 796 440 m 236 1069 q 310 1196 257 1149 q 450 1243 364 1243 q 584 1194 533 1243 q 654 1069 635 1146 l 608 1007 l 583 1007 q 530 1085 565 1058 q 444 1113 494 1113 q 359 1085 394 1113 q 307 1007 324 1058 l 282 1007 l 236 1069 z "},"Ū":{"ha":886,"x_min":85,"x_max":803,"o":"m 796 440 l 794 322 q 701 75 796 163 q 431 -12 607 -12 q 172 72 261 -12 q 88 315 83 157 l 89 444 l 85 894 l 274 894 l 264 340 q 307 190 263 239 q 442 142 351 142 q 621 331 622 142 l 611 894 l 803 894 l 796 440 m 650 1153 l 642 1050 l 253 1050 l 240 1063 l 249 1165 l 638 1165 l 650 1153 z "},"Ṻ":{"ha":886,"x_min":85,"x_max":803,"o":"m 796 440 l 794 322 q 701 75 796 163 q 431 -12 607 -12 q 172 72 261 -12 q 88 315 83 157 l 89 444 l 85 894 l 274 894 l 264 340 q 307 190 263 239 q 442 142 351 142 q 621 331 622 142 l 611 894 l 803 894 l 796 440 m 650 1153 l 642 1050 l 253 1050 l 240 1063 l 249 1165 l 638 1165 l 650 1153 m 331 1438 q 392 1415 369 1438 q 414 1353 414 1393 q 390 1285 414 1310 q 324 1260 365 1260 q 261 1282 283 1260 q 239 1346 239 1304 q 263 1413 239 1388 q 331 1438 288 1438 m 571 1438 q 632 1415 610 1438 q 654 1353 654 1393 q 630 1285 654 1310 q 565 1260 606 1260 q 503 1282 525 1260 q 481 1346 481 1304 q 505 1413 481 1388 q 571 1438 529 1438 z "},"Ų":{"ha":886,"x_min":85,"x_max":803,"o":"m 796 440 l 794 322 q 701 75 796 163 q 431 -12 607 -12 q 172 72 261 -12 q 88 315 83 157 l 89 444 l 85 894 l 274 894 l 264 340 q 307 190 263 239 q 442 142 351 142 q 621 331 622 142 l 611 894 l 803 894 l 796 440 m 553 -267 q 449 -235 488 -267 q 410 -149 410 -203 q 444 -58 410 -103 q 574 57 478 -12 l 674 57 q 553 -70 581 -36 q 526 -125 526 -104 q 567 -160 526 -160 q 668 -118 610 -160 l 678 -121 l 700 -207 q 553 -267 626 -267 z "},"Ů":{"ha":886,"x_min":85,"x_max":803,"o":"m 796 440 l 794 322 q 701 75 796 163 q 431 -12 607 -12 q 172 72 261 -12 q 88 315 83 157 l 89 444 l 85 894 l 274 894 l 264 340 q 307 190 263 239 q 442 142 351 142 q 621 331 622 142 l 611 894 l 803 894 l 796 440 m 447 1254 q 544 1221 511 1254 q 578 1128 578 1188 q 541 1027 578 1063 q 440 992 504 992 q 345 1025 379 992 q 311 1122 311 1058 q 347 1219 311 1185 q 447 1254 382 1254 m 443 1175 q 388 1124 388 1175 q 444 1068 388 1068 q 501 1121 501 1068 q 443 1175 501 1175 z "},"Ũ":{"ha":886,"x_min":85,"x_max":803,"o":"m 796 440 l 794 322 q 701 75 796 163 q 431 -12 607 -12 q 172 72 261 -12 q 88 315 83 157 l 89 444 l 85 894 l 274 894 l 264 340 q 307 190 263 239 q 442 142 351 142 q 621 331 622 142 l 611 894 l 803 894 l 796 440 m 688 1168 l 688 1153 l 590 1029 l 572 1022 q 457 1049 535 1026 q 412 1060 450 1050 q 358 1071 374 1071 q 328 1058 343 1071 q 297 1028 314 1046 q 272 1000 281 1010 l 256 1000 l 200 1054 l 200 1069 l 299 1193 l 315 1200 q 433 1172 349 1196 q 529 1151 511 1151 q 562 1165 546 1151 q 594 1197 578 1179 q 617 1222 611 1215 l 633 1222 l 688 1168 z "},"Ṹ":{"ha":886,"x_min":85,"x_max":803,"o":"m 796 440 l 794 322 q 701 75 796 163 q 431 -12 607 -12 q 172 72 261 -12 q 88 315 83 157 l 89 444 l 85 894 l 274 894 l 264 340 q 307 190 263 239 q 442 142 351 142 q 621 331 622 142 l 611 894 l 803 894 l 796 440 m 590 1411 l 617 1294 l 608 1279 q 296 1225 417 1243 l 279 1233 l 264 1315 q 574 1418 406 1358 l 590 1411 m 660 1146 l 660 1129 l 572 1007 l 556 1001 q 458 1028 522 1007 q 378 1049 393 1049 q 348 1035 363 1049 q 319 1003 333 1021 q 301 979 306 985 l 286 979 l 232 1033 l 232 1049 l 318 1171 l 336 1178 q 433 1151 369 1172 q 514 1131 499 1131 q 542 1143 529 1131 q 569 1174 556 1156 q 590 1200 583 1192 l 606 1200 l 660 1146 z "},"V":{"ha":815,"x_min":14,"x_max":814,"o":"m 513 0 l 288 0 l 14 894 l 206 894 l 228 776 l 397 175 l 410 175 l 604 767 l 628 894 l 814 894 l 513 0 z "},"W":{"ha":1254,"x_min":26,"x_max":1247,"o":"m 953 0 l 756 0 l 622 428 l 610 428 l 475 0 l 276 0 l 26 894 l 211 894 l 225 785 l 383 194 l 396 194 l 547 676 l 483 894 l 675 894 l 696 765 l 857 194 l 869 194 l 1050 772 l 1072 894 l 1247 894 l 953 0 z "},"Ẃ":{"ha":1254,"x_min":26,"x_max":1247,"o":"m 953 0 l 756 0 l 622 428 l 610 428 l 475 0 l 276 0 l 26 894 l 211 894 l 225 785 l 383 194 l 396 194 l 547 676 l 483 894 l 675 894 l 696 765 l 857 194 l 869 194 l 1050 772 l 1072 894 l 1247 894 l 953 0 m 774 1231 l 821 1121 l 815 1104 q 515 996 681 1051 l 499 1001 l 468 1078 q 756 1235 639 1164 l 774 1231 z "},"Ŵ":{"ha":1254,"x_min":26,"x_max":1247,"o":"m 953 0 l 756 0 l 622 428 l 610 428 l 475 0 l 276 0 l 26 894 l 211 894 l 225 785 l 383 194 l 396 194 l 547 676 l 483 894 l 675 894 l 696 765 l 857 194 l 869 194 l 1050 772 l 1072 894 l 1247 894 l 953 0 m 415 1085 q 600 1229 511 1150 l 638 1229 q 824 1085 735 1146 l 790 1011 l 772 1011 l 736 1032 q 619 1099 678 1064 q 467 1011 567 1067 l 449 1011 l 415 1085 z "},"Ẅ":{"ha":1254,"x_min":26,"x_max":1247,"o":"m 953 0 l 756 0 l 622 428 l 610 428 l 475 0 l 276 0 l 26 894 l 211 894 l 225 785 l 383 194 l 396 194 l 547 676 l 483 894 l 675 894 l 696 765 l 857 194 l 869 194 l 1050 772 l 1072 894 l 1247 894 l 953 0 m 503 1196 q 564 1174 542 1196 q 586 1111 586 1151 q 562 1043 586 1068 q 496 1018 538 1018 q 433 1040 456 1018 q 411 1104 411 1063 q 435 1171 411 1146 q 503 1196 460 1196 m 743 1196 q 804 1174 782 1196 q 826 1111 826 1151 q 802 1043 826 1068 q 738 1018 778 1018 q 675 1040 697 1018 q 653 1104 653 1063 q 677 1171 653 1146 q 743 1196 701 1196 z "},"Ẁ":{"ha":1254,"x_min":26,"x_max":1247,"o":"m 953 0 l 756 0 l 622 428 l 610 428 l 475 0 l 276 0 l 26 894 l 211 894 l 225 785 l 383 194 l 396 194 l 547 676 l 483 894 l 675 894 l 696 765 l 857 194 l 869 194 l 1050 772 l 1072 894 l 1247 894 l 953 0 m 507 1235 q 794 1078 621 1167 l 765 1001 l 747 996 q 449 1104 579 1053 l 443 1121 l 489 1231 l 507 1235 z "},"X":{"ha":865,"x_min":29,"x_max":842,"o":"m 553 468 l 842 0 l 615 0 l 574 89 l 425 321 l 264 79 l 224 0 l 29 0 l 315 442 l 32 894 l 258 894 l 300 804 l 440 586 l 586 811 l 624 894 l 824 894 l 553 468 z "},"Y":{"ha":775,"x_min":6,"x_max":778,"o":"m 463 249 l 471 0 l 283 0 l 292 249 l 290 301 l 6 894 l 206 894 l 225 832 l 376 492 l 389 492 l 558 826 l 585 894 l 778 894 l 465 308 l 463 249 z "},"Ý":{"ha":775,"x_min":6,"x_max":778,"o":"m 463 249 l 471 0 l 283 0 l 292 249 l 290 301 l 6 894 l 206 894 l 225 832 l 376 492 l 389 492 l 558 826 l 585 894 l 778 894 l 465 308 l 463 249 m 539 1231 l 586 1121 l 581 1104 q 281 996 446 1051 l 264 1001 l 233 1078 q 521 1235 404 1164 l 539 1231 z "},"Ŷ":{"ha":775,"x_min":6,"x_max":778,"o":"m 463 249 l 471 0 l 283 0 l 292 249 l 290 301 l 6 894 l 206 894 l 225 832 l 376 492 l 389 492 l 558 826 l 585 894 l 778 894 l 465 308 l 463 249 m 181 1085 q 365 1229 276 1150 l 403 1229 q 589 1085 500 1146 l 556 1011 l 538 1011 l 501 1032 q 385 1099 443 1064 q 232 1011 332 1067 l 214 1011 l 181 1085 z "},"Ÿ":{"ha":775,"x_min":6,"x_max":778,"o":"m 463 249 l 471 0 l 283 0 l 292 249 l 290 301 l 6 894 l 206 894 l 225 832 l 376 492 l 389 492 l 558 826 l 585 894 l 778 894 l 465 308 l 463 249 m 268 1196 q 329 1174 307 1196 q 351 1111 351 1151 q 327 1043 351 1068 q 261 1018 303 1018 q 199 1040 221 1018 q 176 1104 176 1063 q 201 1171 176 1146 q 268 1196 225 1196 m 508 1196 q 569 1174 547 1196 q 592 1111 592 1151 q 567 1043 592 1068 q 503 1018 543 1018 q 440 1040 463 1018 q 418 1104 418 1063 q 442 1171 418 1146 q 508 1196 467 1196 z "},"Ẏ":{"ha":775,"x_min":6,"x_max":778,"o":"m 463 249 l 471 0 l 283 0 l 292 249 l 290 301 l 6 894 l 206 894 l 225 832 l 376 492 l 389 492 l 558 826 l 585 894 l 778 894 l 465 308 l 463 249 m 388 1211 q 455 1186 431 1211 q 479 1117 479 1161 q 453 1042 479 1069 q 381 1014 426 1014 q 310 1039 335 1014 q 286 1110 286 1064 q 313 1183 286 1156 q 388 1211 340 1211 z "},"Ỵ":{"ha":775,"x_min":6,"x_max":778,"o":"m 463 249 l 471 0 l 283 0 l 292 249 l 290 301 l 6 894 l 206 894 l 225 832 l 376 492 l 389 492 l 558 826 l 585 894 l 778 894 l 465 308 l 463 249 m 381 -72 q 448 -97 424 -72 q 472 -167 472 -122 q 446 -242 472 -214 q 374 -269 419 -269 q 303 -244 328 -269 q 279 -174 279 -219 q 306 -100 279 -128 q 381 -72 333 -72 z "},"Ỳ":{"ha":775,"x_min":6,"x_max":778,"o":"m 463 249 l 471 0 l 283 0 l 292 249 l 290 301 l 6 894 l 206 894 l 225 832 l 376 492 l 389 492 l 558 826 l 585 894 l 778 894 l 465 308 l 463 249 m 272 1235 q 560 1078 386 1167 l 531 1001 l 513 996 q 214 1104 344 1053 l 208 1121 l 254 1231 l 272 1235 z "},"Ỷ":{"ha":775,"x_min":6,"x_max":778,"o":"m 463 249 l 471 0 l 283 0 l 292 249 l 290 301 l 6 894 l 206 894 l 225 832 l 376 492 l 389 492 l 558 826 l 585 894 l 778 894 l 465 308 l 463 249 m 326 1044 q 381 1097 361 1069 q 400 1144 400 1124 q 390 1167 400 1160 q 361 1175 379 1175 q 315 1166 340 1175 q 269 1140 290 1157 l 239 1190 q 310 1243 271 1224 q 388 1263 349 1263 q 470 1234 438 1263 q 503 1161 503 1206 q 485 1109 503 1135 q 424 1046 468 1083 l 456 992 l 388 951 l 326 1044 z "},"Ȳ":{"ha":775,"x_min":6,"x_max":778,"o":"m 463 249 l 471 0 l 283 0 l 292 249 l 290 301 l 6 894 l 206 894 l 225 832 l 376 492 l 389 492 l 558 826 l 585 894 l 778 894 l 465 308 l 463 249 m 588 1153 l 579 1050 l 190 1050 l 178 1063 l 186 1165 l 575 1165 l 588 1153 z "},"Ỹ":{"ha":775,"x_min":6,"x_max":778,"o":"m 463 249 l 471 0 l 283 0 l 292 249 l 290 301 l 6 894 l 206 894 l 225 832 l 376 492 l 389 492 l 558 826 l 585 894 l 778 894 l 465 308 l 463 249 m 625 1168 l 625 1153 l 528 1029 l 510 1022 q 394 1049 472 1026 q 349 1060 388 1050 q 296 1071 311 1071 q 266 1058 281 1071 q 235 1028 251 1046 q 210 1000 218 1010 l 193 1000 l 138 1054 l 138 1069 l 236 1193 l 253 1200 q 371 1172 286 1196 q 467 1151 449 1151 q 499 1165 483 1151 q 532 1197 515 1179 q 554 1222 549 1215 l 571 1222 l 625 1168 z "},"Z":{"ha":760,"x_min":42,"x_max":722,"o":"m 708 758 l 264 143 l 564 143 l 715 156 l 722 144 l 707 -4 l 506 0 l 149 0 l 42 -6 l 42 129 l 490 750 l 207 750 l 56 738 l 47 747 l 61 896 l 622 894 l 708 896 l 708 758 z "},"Ź":{"ha":760,"x_min":42,"x_max":722,"o":"m 708 758 l 264 143 l 564 143 l 715 156 l 722 144 l 707 -4 l 506 0 l 149 0 l 42 -6 l 42 129 l 490 750 l 207 750 l 56 738 l 47 747 l 61 896 l 622 894 l 708 896 l 708 758 m 536 1231 l 583 1121 l 578 1104 q 278 996 443 1051 l 261 1001 l 231 1078 q 518 1235 401 1164 l 536 1231 z "},"Ž":{"ha":760,"x_min":42,"x_max":722,"o":"m 708 758 l 264 143 l 564 143 l 715 156 l 722 144 l 707 -4 l 506 0 l 149 0 l 42 -6 l 42 129 l 490 750 l 207 750 l 56 738 l 47 747 l 61 896 l 622 894 l 708 896 l 708 758 m 585 1142 q 400 997 489 1076 l 363 997 q 176 1142 265 1081 l 210 1215 l 228 1215 l 264 1194 q 381 1128 322 1163 q 533 1215 433 1160 l 551 1215 l 585 1142 z "},"Ż":{"ha":760,"x_min":42,"x_max":722,"o":"m 708 758 l 264 143 l 564 143 l 715 156 l 722 144 l 707 -4 l 506 0 l 149 0 l 42 -6 l 42 129 l 490 750 l 207 750 l 56 738 l 47 747 l 61 896 l 622 894 l 708 896 l 708 758 m 385 1211 q 452 1186 428 1211 q 476 1117 476 1161 q 450 1042 476 1069 q 378 1014 424 1014 q 308 1039 332 1014 q 283 1110 283 1064 q 310 1183 283 1156 q 385 1211 338 1211 z "},"Ẓ":{"ha":760,"x_min":42,"x_max":722,"o":"m 708 758 l 264 143 l 564 143 l 715 156 l 722 144 l 707 -4 l 506 0 l 149 0 l 42 -6 l 42 129 l 490 750 l 207 750 l 56 738 l 47 747 l 61 896 l 622 894 l 708 896 l 708 758 m 385 -72 q 452 -97 428 -72 q 476 -167 476 -122 q 450 -242 476 -214 q 378 -269 424 -269 q 308 -244 332 -269 q 283 -174 283 -219 q 310 -100 283 -128 q 385 -72 338 -72 z "},"a":{"ha":668,"x_min":42,"x_max":633,"o":"m 339 658 q 506 610 446 658 q 567 476 567 563 q 558 318 567 451 q 554 238 557 279 q 551 168 551 197 q 558 135 551 144 q 583 126 565 126 q 619 132 597 126 l 633 121 l 617 24 q 515 -11 572 -6 q 446 19 474 -7 q 408 90 418 44 l 399 90 q 256 -12 329 17 q 99 40 156 -11 q 42 181 42 92 q 77 290 42 250 q 185 343 113 329 l 397 383 l 397 440 q 308 531 397 531 q 217 511 265 531 q 110 450 169 492 l 96 458 l 75 581 q 203 638 135 618 q 339 658 271 658 m 249 258 q 216 240 226 253 q 206 200 206 226 q 225 144 206 164 q 279 124 244 124 q 393 188 333 124 l 396 290 l 249 258 z "},"á":{"ha":668,"x_min":42,"x_max":633,"o":"m 339 658 q 506 610 446 658 q 567 476 567 563 q 558 318 567 451 q 554 238 557 279 q 551 168 551 197 q 558 135 551 144 q 583 126 565 126 q 619 132 597 126 l 633 121 l 617 24 q 515 -11 572 -6 q 446 19 474 -7 q 408 90 418 44 l 399 90 q 256 -12 329 17 q 99 40 156 -11 q 42 181 42 92 q 77 290 42 250 q 185 343 113 329 l 397 383 l 397 440 q 308 531 397 531 q 217 511 265 531 q 110 450 169 492 l 96 458 l 75 581 q 203 638 135 618 q 339 658 271 658 m 249 258 q 216 240 226 253 q 206 200 206 226 q 225 144 206 164 q 279 124 244 124 q 393 188 333 124 l 396 290 l 249 258 m 460 1004 l 526 904 l 524 886 q 478 858 493 867 q 253 722 304 751 l 235 724 l 190 793 q 442 1006 351 922 l 460 1004 z "},"ă":{"ha":668,"x_min":42,"x_max":633,"o":"m 339 658 q 506 610 446 658 q 567 476 567 563 q 558 318 567 451 q 554 238 557 279 q 551 168 551 197 q 558 135 551 144 q 583 126 565 126 q 619 132 597 126 l 633 121 l 617 24 q 515 -11 572 -6 q 446 19 474 -7 q 408 90 418 44 l 399 90 q 256 -12 329 17 q 99 40 156 -11 q 42 181 42 92 q 77 290 42 250 q 185 343 113 329 l 397 383 l 397 440 q 308 531 397 531 q 217 511 265 531 q 110 450 169 492 l 96 458 l 75 581 q 203 638 135 618 q 339 658 271 658 m 249 258 q 216 240 226 253 q 206 200 206 226 q 225 144 206 164 q 279 124 244 124 q 393 188 333 124 l 396 290 l 249 258 m 535 910 q 460 783 514 831 q 321 736 407 736 q 187 785 238 736 q 117 910 136 833 l 163 972 l 188 972 q 241 894 206 921 q 326 867 276 867 q 412 894 376 867 q 464 972 447 921 l 489 972 l 535 910 z "},"ắ":{"ha":668,"x_min":42,"x_max":633,"o":"m 339 658 q 506 610 446 658 q 567 476 567 563 q 558 318 567 451 q 554 238 557 279 q 551 168 551 197 q 558 135 551 144 q 583 126 565 126 q 619 132 597 126 l 633 121 l 617 24 q 515 -11 572 -6 q 446 19 474 -7 q 408 90 418 44 l 399 90 q 256 -12 329 17 q 99 40 156 -11 q 42 181 42 92 q 77 290 42 250 q 185 343 113 329 l 397 383 l 397 440 q 308 531 397 531 q 217 511 265 531 q 110 450 169 492 l 96 458 l 75 581 q 203 638 135 618 q 339 658 271 658 m 249 258 q 216 240 226 253 q 206 200 206 226 q 225 144 206 164 q 279 124 244 124 q 393 188 333 124 l 396 290 l 249 258 m 476 1079 l 479 1063 l 331 918 l 314 914 l 256 960 q 383 1135 324 1049 l 397 1138 l 476 1079 m 532 871 q 453 763 507 800 q 321 725 399 725 q 192 763 246 725 q 115 871 139 800 l 158 931 l 185 931 q 240 874 203 894 q 326 853 276 853 q 410 873 375 853 q 464 931 446 893 l 490 931 l 532 871 z "},"ặ":{"ha":668,"x_min":42,"x_max":633,"o":"m 539 910 q 465 783 518 831 q 325 736 411 736 q 191 785 242 736 q 121 910 140 833 l 167 972 l 192 972 q 245 894 210 921 q 331 867 281 867 q 416 894 381 867 q 468 972 451 921 l 493 972 l 539 910 m 339 658 q 506 610 446 658 q 567 476 567 563 q 558 318 567 451 q 554 238 557 279 q 551 168 551 197 q 558 135 551 144 q 583 126 565 126 q 619 132 597 126 l 633 121 l 617 24 q 515 -11 572 -6 q 446 19 474 -7 q 408 90 418 44 l 399 90 q 256 -12 329 17 q 99 40 156 -11 q 42 181 42 92 q 77 290 42 250 q 185 343 113 329 l 397 383 l 397 440 q 308 531 397 531 q 217 511 265 531 q 110 450 169 492 l 96 458 l 75 581 q 203 638 135 618 q 339 658 271 658 m 249 258 q 216 240 226 253 q 206 200 206 226 q 225 144 206 164 q 279 124 244 124 q 393 188 333 124 l 396 290 l 249 258 m 328 -72 q 395 -97 371 -72 q 419 -167 419 -122 q 393 -242 419 -214 q 321 -269 367 -269 q 251 -244 275 -269 q 226 -174 226 -219 q 253 -100 226 -128 q 328 -72 281 -72 z "},"ằ":{"ha":668,"x_min":42,"x_max":633,"o":"m 339 658 q 506 610 446 658 q 567 476 567 563 q 558 318 567 451 q 554 238 557 279 q 551 168 551 197 q 558 135 551 144 q 583 126 565 126 q 619 132 597 126 l 633 121 l 617 24 q 515 -11 572 -6 q 446 19 474 -7 q 408 90 418 44 l 399 90 q 256 -12 329 17 q 99 40 156 -11 q 42 181 42 92 q 77 290 42 250 q 185 343 113 329 l 397 383 l 397 440 q 308 531 397 531 q 217 511 265 531 q 110 450 169 492 l 96 458 l 75 581 q 203 638 135 618 q 339 658 271 658 m 249 258 q 216 240 226 253 q 206 200 206 226 q 225 144 206 164 q 279 124 244 124 q 393 188 333 124 l 396 290 l 249 258 m 319 918 l 169 1063 l 172 1079 l 251 1138 l 265 1135 q 393 960 325 1049 l 336 914 l 319 918 m 532 871 q 453 763 507 800 q 321 725 399 725 q 192 763 246 725 q 115 871 139 800 l 158 931 l 185 931 q 240 874 203 894 q 326 853 276 853 q 410 873 375 853 q 464 931 446 893 l 490 931 l 532 871 z "},"ẳ":{"ha":668,"x_min":42,"x_max":633,"o":"m 339 658 q 506 610 446 658 q 567 476 567 563 q 558 318 567 451 q 554 238 557 279 q 551 168 551 197 q 558 135 551 144 q 583 126 565 126 q 619 132 597 126 l 633 121 l 617 24 q 515 -11 572 -6 q 446 19 474 -7 q 408 90 418 44 l 399 90 q 256 -12 329 17 q 99 40 156 -11 q 42 181 42 92 q 77 290 42 250 q 185 343 113 329 l 397 383 l 397 440 q 308 531 397 531 q 217 511 265 531 q 110 450 169 492 l 96 458 l 75 581 q 203 638 135 618 q 339 658 271 658 m 249 258 q 216 240 226 253 q 206 200 206 226 q 225 144 206 164 q 279 124 244 124 q 393 188 333 124 l 396 290 l 249 258 m 532 871 q 453 763 507 800 q 321 725 399 725 q 192 763 246 725 q 115 871 139 800 l 158 931 l 185 931 q 240 874 203 894 q 326 853 276 853 q 410 873 375 853 q 464 931 446 893 l 490 931 l 532 871 m 270 1000 q 322 1049 303 1023 q 340 1094 340 1074 q 330 1115 340 1108 q 303 1123 320 1123 q 260 1114 284 1123 q 217 1090 236 1106 l 188 1137 q 255 1187 218 1168 q 328 1205 291 1205 q 406 1178 375 1205 q 437 1110 437 1151 q 420 1060 437 1085 q 362 1001 404 1036 l 392 950 l 328 912 l 270 1000 z "},"ẵ":{"ha":668,"x_min":42,"x_max":633,"o":"m 339 658 q 506 610 446 658 q 567 476 567 563 q 558 318 567 451 q 554 238 557 279 q 551 168 551 197 q 558 135 551 144 q 583 126 565 126 q 619 132 597 126 l 633 121 l 617 24 q 515 -11 572 -6 q 446 19 474 -7 q 408 90 418 44 l 399 90 q 256 -12 329 17 q 99 40 156 -11 q 42 181 42 92 q 77 290 42 250 q 185 343 113 329 l 397 383 l 397 440 q 308 531 397 531 q 217 511 265 531 q 110 450 169 492 l 96 458 l 75 581 q 203 638 135 618 q 339 658 271 658 m 249 258 q 216 240 226 253 q 206 200 206 226 q 225 144 206 164 q 279 124 244 124 q 393 188 333 124 l 396 290 l 249 258 m 526 864 q 451 760 503 796 q 325 725 399 725 q 202 760 253 725 q 128 864 151 796 l 170 921 l 195 921 q 247 867 212 887 q 330 847 282 847 q 410 866 376 847 q 461 921 444 885 l 487 921 l 526 864 m 543 1109 l 543 1093 l 455 980 l 440 975 q 336 1001 413 979 q 249 1020 267 1020 q 223 1009 236 1020 q 190 975 211 998 l 171 955 l 156 955 l 108 1004 l 108 1018 l 196 1131 l 211 1138 q 316 1112 236 1134 q 355 1102 322 1111 q 402 1092 388 1092 q 428 1104 415 1092 q 456 1132 442 1115 q 480 1158 471 1149 l 494 1158 l 543 1109 z "},"ǎ":{"ha":668,"x_min":42,"x_max":633,"o":"m 339 658 q 506 610 446 658 q 567 476 567 563 q 558 318 567 451 q 554 238 557 279 q 551 168 551 197 q 558 135 551 144 q 583 126 565 126 q 619 132 597 126 l 633 121 l 617 24 q 515 -11 572 -6 q 446 19 474 -7 q 408 90 418 44 l 399 90 q 256 -12 329 17 q 99 40 156 -11 q 42 181 42 92 q 77 290 42 250 q 185 343 113 329 l 397 383 l 397 440 q 308 531 397 531 q 217 511 265 531 q 110 450 169 492 l 96 458 l 75 581 q 203 638 135 618 q 339 658 271 658 m 249 258 q 216 240 226 253 q 206 200 206 226 q 225 144 206 164 q 279 124 244 124 q 393 188 333 124 l 396 290 l 249 258 m 540 924 q 344 728 461 851 l 304 728 q 110 924 196 847 l 156 994 l 174 994 q 325 867 265 922 q 475 994 379 918 l 493 994 l 540 924 z "},"â":{"ha":668,"x_min":42,"x_max":633,"o":"m 339 658 q 506 610 446 658 q 567 476 567 563 q 558 318 567 451 q 554 238 557 279 q 551 168 551 197 q 558 135 551 144 q 583 126 565 126 q 619 132 597 126 l 633 121 l 617 24 q 515 -11 572 -6 q 446 19 474 -7 q 408 90 418 44 l 399 90 q 256 -12 329 17 q 99 40 156 -11 q 42 181 42 92 q 77 290 42 250 q 185 343 113 329 l 397 383 l 397 440 q 308 531 397 531 q 217 511 265 531 q 110 450 169 492 l 96 458 l 75 581 q 203 638 135 618 q 339 658 271 658 m 249 258 q 216 240 226 253 q 206 200 206 226 q 225 144 206 164 q 279 124 244 124 q 393 188 333 124 l 396 290 l 249 258 m 110 801 q 306 997 189 874 l 346 997 q 540 801 454 878 l 494 731 l 476 731 q 325 858 385 803 q 175 731 271 807 l 157 731 l 110 801 z "},"ấ":{"ha":668,"x_min":42,"x_max":633,"o":"m 339 658 q 506 610 446 658 q 567 476 567 563 q 558 318 567 451 q 554 238 557 279 q 551 168 551 197 q 558 135 551 144 q 583 126 565 126 q 619 132 597 126 l 633 121 l 617 24 q 515 -11 572 -6 q 446 19 474 -7 q 408 90 418 44 l 399 90 q 256 -12 329 17 q 99 40 156 -11 q 42 181 42 92 q 77 290 42 250 q 185 343 113 329 l 397 383 l 397 440 q 308 531 397 531 q 217 511 265 531 q 110 450 169 492 l 96 458 l 75 581 q 203 638 135 618 q 339 658 271 658 m 249 258 q 216 240 226 253 q 206 200 206 226 q 225 144 206 164 q 279 124 244 124 q 393 188 333 124 l 396 290 l 249 258 m 588 1069 l 593 1056 l 479 913 l 465 913 l 401 960 l 485 1107 l 499 1114 l 588 1069 m 121 808 q 306 953 235 889 l 343 953 q 529 808 426 879 l 496 735 l 478 735 l 325 822 l 172 735 l 154 735 l 121 808 z "},"ậ":{"ha":668,"x_min":42,"x_max":633,"o":"m 339 658 q 506 610 446 658 q 567 476 567 563 q 558 318 567 451 q 554 238 557 279 q 551 168 551 197 q 558 135 551 144 q 583 126 565 126 q 619 132 597 126 l 633 121 l 617 24 q 515 -11 572 -6 q 446 19 474 -7 q 408 90 418 44 l 399 90 q 256 -12 329 17 q 99 40 156 -11 q 42 181 42 92 q 77 290 42 250 q 185 343 113 329 l 397 383 l 397 440 q 308 531 397 531 q 217 511 265 531 q 110 450 169 492 l 96 458 l 75 581 q 203 638 135 618 q 339 658 271 658 m 249 258 q 216 240 226 253 q 206 200 206 226 q 225 144 206 164 q 279 124 244 124 q 393 188 333 124 l 396 290 l 249 258 m 328 -72 q 395 -97 371 -72 q 419 -167 419 -122 q 393 -242 419 -214 q 321 -269 367 -269 q 251 -244 275 -269 q 226 -174 226 -219 q 253 -100 226 -128 q 328 -72 281 -72 m 110 801 q 306 997 189 874 l 346 997 q 540 801 454 878 l 494 731 l 476 731 q 325 858 385 803 q 175 731 271 807 l 157 731 l 110 801 z "},"ầ":{"ha":668,"x_min":42,"x_max":633,"o":"m 339 658 q 506 610 446 658 q 567 476 567 563 q 558 318 567 451 q 554 238 557 279 q 551 168 551 197 q 558 135 551 144 q 583 126 565 126 q 619 132 597 126 l 633 121 l 617 24 q 515 -11 572 -6 q 446 19 474 -7 q 408 90 418 44 l 399 90 q 256 -12 329 17 q 99 40 156 -11 q 42 181 42 92 q 77 290 42 250 q 185 343 113 329 l 397 383 l 397 440 q 308 531 397 531 q 217 511 265 531 q 110 450 169 492 l 96 458 l 75 581 q 203 638 135 618 q 339 658 271 658 m 249 258 q 216 240 226 253 q 206 200 206 226 q 225 144 206 164 q 279 124 244 124 q 393 188 333 124 l 396 290 l 249 258 m 360 1056 l 364 1069 l 453 1114 l 467 1107 l 551 960 l 488 913 l 474 913 l 360 1056 m 121 808 q 306 953 235 889 l 343 953 q 529 808 426 879 l 496 735 l 478 735 l 325 822 l 172 735 l 154 735 l 121 808 z "},"ẩ":{"ha":668,"x_min":42,"x_max":633,"o":"m 339 658 q 506 610 446 658 q 567 476 567 563 q 558 318 567 451 q 554 238 557 279 q 551 168 551 197 q 558 135 551 144 q 583 126 565 126 q 619 132 597 126 l 633 121 l 617 24 q 515 -11 572 -6 q 446 19 474 -7 q 408 90 418 44 l 399 90 q 256 -12 329 17 q 99 40 156 -11 q 42 181 42 92 q 77 290 42 250 q 185 343 113 329 l 397 383 l 397 440 q 308 531 397 531 q 217 511 265 531 q 110 450 169 492 l 96 458 l 75 581 q 203 638 135 618 q 339 658 271 658 m 249 258 q 216 240 226 253 q 206 200 206 226 q 225 144 206 164 q 279 124 244 124 q 393 188 333 124 l 396 290 l 249 258 m 121 836 q 306 981 217 901 l 343 981 q 529 836 440 897 l 496 763 l 478 763 l 442 783 q 325 850 383 815 q 172 763 272 818 l 154 763 l 121 836 m 438 1015 q 489 1064 471 1038 q 508 1110 508 1090 q 498 1132 508 1124 q 471 1139 488 1139 q 427 1130 451 1139 q 383 1106 403 1122 l 354 1153 q 422 1204 385 1185 q 496 1222 459 1222 q 574 1195 543 1222 q 606 1126 606 1168 q 589 1076 606 1100 q 530 1016 572 1052 l 561 964 l 496 926 l 438 1015 z "},"ẫ":{"ha":668,"x_min":42,"x_max":633,"o":"m 339 658 q 506 610 446 658 q 567 476 567 563 q 558 318 567 451 q 554 238 557 279 q 551 168 551 197 q 558 135 551 144 q 583 126 565 126 q 619 132 597 126 l 633 121 l 617 24 q 515 -11 572 -6 q 446 19 474 -7 q 408 90 418 44 l 399 90 q 256 -12 329 17 q 99 40 156 -11 q 42 181 42 92 q 77 290 42 250 q 185 343 113 329 l 397 383 l 397 440 q 308 531 397 531 q 217 511 265 531 q 110 450 169 492 l 96 458 l 75 581 q 203 638 135 618 q 339 658 271 658 m 249 258 q 216 240 226 253 q 206 200 206 226 q 225 144 206 164 q 279 124 244 124 q 393 188 333 124 l 396 290 l 249 258 m 124 836 q 308 981 219 901 l 346 981 q 532 836 443 897 l 499 763 l 481 763 l 444 783 q 328 850 386 815 q 175 763 275 818 l 157 763 l 124 836 m 569 1163 l 569 1146 l 471 1022 l 454 1017 q 338 1044 424 1021 q 240 1065 260 1065 q 211 1053 225 1065 q 174 1017 197 1042 l 153 994 l 136 994 l 82 1049 l 82 1064 l 181 1188 l 197 1194 q 315 1167 225 1190 q 359 1155 322 1165 q 411 1144 396 1144 q 441 1157 426 1144 q 472 1188 456 1169 q 499 1217 489 1207 l 514 1217 l 569 1163 z "},"ȁ":{"ha":668,"x_min":42,"x_max":633,"o":"m 339 658 q 506 610 446 658 q 567 476 567 563 q 558 318 567 451 q 554 238 557 279 q 551 168 551 197 q 558 135 551 144 q 583 126 565 126 q 619 132 597 126 l 633 121 l 617 24 q 515 -11 572 -6 q 446 19 474 -7 q 408 90 418 44 l 399 90 q 256 -12 329 17 q 99 40 156 -11 q 42 181 42 92 q 77 290 42 250 q 185 343 113 329 l 397 383 l 397 440 q 308 531 397 531 q 217 511 265 531 q 110 450 169 492 l 96 458 l 75 581 q 203 638 135 618 q 339 658 271 658 m 249 258 q 216 240 226 253 q 206 200 206 226 q 225 144 206 164 q 279 124 244 124 q 393 188 333 124 l 396 290 l 249 258 m 335 769 q 163 1008 233 904 l 149 1011 l 63 950 l 61 936 q 263 726 126 863 l 278 722 l 335 769 m 546 769 q 374 1008 444 904 l 360 1011 l 274 950 l 272 936 q 474 726 338 863 l 489 722 l 546 769 z "},"ä":{"ha":668,"x_min":42,"x_max":633,"o":"m 339 658 q 506 610 446 658 q 567 476 567 563 q 558 318 567 451 q 554 238 557 279 q 551 168 551 197 q 558 135 551 144 q 583 126 565 126 q 619 132 597 126 l 633 121 l 617 24 q 515 -11 572 -6 q 446 19 474 -7 q 408 90 418 44 l 399 90 q 256 -12 329 17 q 99 40 156 -11 q 42 181 42 92 q 77 290 42 250 q 185 343 113 329 l 397 383 l 397 440 q 308 531 397 531 q 217 511 265 531 q 110 450 169 492 l 96 458 l 75 581 q 203 638 135 618 q 339 658 271 658 m 249 258 q 216 240 226 253 q 206 200 206 226 q 225 144 206 164 q 279 124 244 124 q 393 188 333 124 l 396 290 l 249 258 m 210 947 q 271 925 249 947 q 293 863 293 903 q 269 794 293 819 q 203 769 244 769 q 140 792 163 769 q 118 856 118 814 q 142 922 118 897 q 210 947 167 947 m 450 947 q 511 925 489 947 q 533 863 533 903 q 509 794 533 819 q 444 769 485 769 q 382 792 404 769 q 360 856 360 814 q 384 922 360 897 q 450 947 408 947 z "},"ạ":{"ha":668,"x_min":42,"x_max":633,"o":"m 339 658 q 506 610 446 658 q 567 476 567 563 q 558 318 567 451 q 554 238 557 279 q 551 168 551 197 q 558 135 551 144 q 583 126 565 126 q 619 132 597 126 l 633 121 l 617 24 q 515 -11 572 -6 q 446 19 474 -7 q 408 90 418 44 l 399 90 q 256 -12 329 17 q 99 40 156 -11 q 42 181 42 92 q 77 290 42 250 q 185 343 113 329 l 397 383 l 397 440 q 308 531 397 531 q 217 511 265 531 q 110 450 169 492 l 96 458 l 75 581 q 203 638 135 618 q 339 658 271 658 m 249 258 q 216 240 226 253 q 206 200 206 226 q 225 144 206 164 q 279 124 244 124 q 393 188 333 124 l 396 290 l 249 258 m 328 -72 q 395 -97 371 -72 q 419 -167 419 -122 q 393 -242 419 -214 q 321 -269 367 -269 q 251 -244 275 -269 q 226 -174 226 -219 q 253 -100 226 -128 q 328 -72 281 -72 z "},"à":{"ha":668,"x_min":42,"x_max":633,"o":"m 339 658 q 506 610 446 658 q 567 476 567 563 q 558 318 567 451 q 554 238 557 279 q 551 168 551 197 q 558 135 551 144 q 583 126 565 126 q 619 132 597 126 l 633 121 l 617 24 q 515 -11 572 -6 q 446 19 474 -7 q 408 90 418 44 l 399 90 q 256 -12 329 17 q 99 40 156 -11 q 42 181 42 92 q 77 290 42 250 q 185 343 113 329 l 397 383 l 397 440 q 308 531 397 531 q 217 511 265 531 q 110 450 169 492 l 96 458 l 75 581 q 203 638 135 618 q 339 658 271 658 m 249 258 q 216 240 226 253 q 206 200 206 226 q 225 144 206 164 q 279 124 244 124 q 393 188 333 124 l 396 290 l 249 258 m 240 1006 q 492 793 342 913 l 447 724 l 431 722 q 160 886 322 785 l 157 904 l 224 1004 l 240 1006 z "},"ả":{"ha":668,"x_min":42,"x_max":633,"o":"m 339 658 q 506 610 446 658 q 567 476 567 563 q 558 318 567 451 q 554 238 557 279 q 551 168 551 197 q 558 135 551 144 q 583 126 565 126 q 619 132 597 126 l 633 121 l 617 24 q 515 -11 572 -6 q 446 19 474 -7 q 408 90 418 44 l 399 90 q 256 -12 329 17 q 99 40 156 -11 q 42 181 42 92 q 77 290 42 250 q 185 343 113 329 l 397 383 l 397 440 q 308 531 397 531 q 217 511 265 531 q 110 450 169 492 l 96 458 l 75 581 q 203 638 135 618 q 339 658 271 658 m 249 258 q 216 240 226 253 q 206 200 206 226 q 225 144 206 164 q 279 124 244 124 q 393 188 333 124 l 396 290 l 249 258 m 268 796 q 322 848 303 821 q 342 896 342 875 q 331 919 342 911 q 303 926 321 926 q 257 917 282 926 q 211 892 232 908 l 181 942 q 251 994 213 975 q 329 1014 290 1014 q 412 985 379 1014 q 444 913 444 957 q 427 860 444 886 q 365 797 410 835 l 397 743 l 329 703 l 268 796 z "},"ȃ":{"ha":668,"x_min":42,"x_max":633,"o":"m 339 658 q 506 610 446 658 q 567 476 567 563 q 558 318 567 451 q 554 238 557 279 q 551 168 551 197 q 558 135 551 144 q 583 126 565 126 q 619 132 597 126 l 633 121 l 617 24 q 515 -11 572 -6 q 446 19 474 -7 q 408 90 418 44 l 399 90 q 256 -12 329 17 q 99 40 156 -11 q 42 181 42 92 q 77 290 42 250 q 185 343 113 329 l 397 383 l 397 440 q 308 531 397 531 q 217 511 265 531 q 110 450 169 492 l 96 458 l 75 581 q 203 638 135 618 q 339 658 271 658 m 249 258 q 216 240 226 253 q 206 200 206 226 q 225 144 206 164 q 279 124 244 124 q 393 188 333 124 l 396 290 l 249 258 m 115 821 q 190 947 136 900 q 329 994 243 994 q 463 946 413 994 q 533 821 514 897 l 488 758 l 463 758 q 409 837 444 810 q 324 864 374 864 q 238 837 274 864 q 186 758 203 810 l 161 758 l 115 821 z "},"ā":{"ha":668,"x_min":42,"x_max":633,"o":"m 339 658 q 506 610 446 658 q 567 476 567 563 q 558 318 567 451 q 554 238 557 279 q 551 168 551 197 q 558 135 551 144 q 583 126 565 126 q 619 132 597 126 l 633 121 l 617 24 q 515 -11 572 -6 q 446 19 474 -7 q 408 90 418 44 l 399 90 q 256 -12 329 17 q 99 40 156 -11 q 42 181 42 92 q 77 290 42 250 q 185 343 113 329 l 397 383 l 397 440 q 308 531 397 531 q 217 511 265 531 q 110 450 169 492 l 96 458 l 75 581 q 203 638 135 618 q 339 658 271 658 m 249 258 q 216 240 226 253 q 206 200 206 226 q 225 144 206 164 q 279 124 244 124 q 393 188 333 124 l 396 290 l 249 258 m 529 904 l 521 801 l 132 801 l 119 814 l 128 917 l 517 917 l 529 904 z "},"ą":{"ha":668,"x_min":42,"x_max":643,"o":"m 339 658 q 506 610 446 658 q 567 476 567 563 q 558 318 567 451 q 554 238 557 279 q 551 168 551 197 q 558 135 551 144 q 583 126 565 126 q 619 132 597 126 l 633 121 l 617 24 q 515 -11 572 -6 q 446 19 474 -7 q 408 90 418 44 l 399 90 q 256 -12 329 17 q 99 40 156 -11 q 42 181 42 92 q 77 290 42 250 q 185 343 113 329 l 397 383 l 397 440 q 308 531 397 531 q 217 511 265 531 q 110 450 169 492 l 96 458 l 75 581 q 203 638 135 618 q 339 658 271 658 m 249 258 q 216 240 226 253 q 206 200 206 226 q 225 144 206 164 q 279 124 244 124 q 393 188 333 124 l 396 290 l 249 258 m 496 -300 q 392 -268 431 -300 q 353 -182 353 -236 q 387 -91 353 -136 q 517 24 421 -46 l 617 24 q 497 -103 524 -69 q 469 -158 469 -137 q 510 -193 469 -193 q 611 -151 553 -193 l 621 -154 l 643 -240 q 496 -300 569 -300 z "},"å":{"ha":668,"x_min":42,"x_max":633,"o":"m 339 658 q 506 610 446 658 q 567 476 567 563 q 558 318 567 451 q 554 238 557 279 q 551 168 551 197 q 558 135 551 144 q 583 126 565 126 q 619 132 597 126 l 633 121 l 617 24 q 515 -11 572 -6 q 446 19 474 -7 q 408 90 418 44 l 399 90 q 256 -12 329 17 q 99 40 156 -11 q 42 181 42 92 q 77 290 42 250 q 185 343 113 329 l 397 383 l 397 440 q 308 531 397 531 q 217 511 265 531 q 110 450 169 492 l 96 458 l 75 581 q 203 638 135 618 q 339 658 271 658 m 249 258 q 216 240 226 253 q 206 200 206 226 q 225 144 206 164 q 279 124 244 124 q 393 188 333 124 l 396 290 l 249 258 m 326 1006 q 424 972 390 1006 q 457 879 457 939 q 420 778 457 814 q 319 743 383 743 q 224 776 258 743 q 190 874 190 810 q 226 971 190 936 q 326 1006 261 1006 m 322 926 q 267 875 267 926 q 324 819 267 819 q 381 872 381 819 q 322 926 381 926 z "},"ǻ":{"ha":668,"x_min":42,"x_max":633,"o":"m 339 658 q 506 610 446 658 q 567 476 567 563 q 558 318 567 451 q 554 238 557 279 q 551 168 551 197 q 558 135 551 144 q 583 126 565 126 q 619 132 597 126 l 633 121 l 617 24 q 515 -11 572 -6 q 446 19 474 -7 q 408 90 418 44 l 399 90 q 256 -12 329 17 q 99 40 156 -11 q 42 181 42 92 q 77 290 42 250 q 185 343 113 329 l 397 383 l 397 440 q 308 531 397 531 q 217 511 265 531 q 110 450 169 492 l 96 458 l 75 581 q 203 638 135 618 q 339 658 271 658 m 249 258 q 216 240 226 253 q 206 200 206 226 q 225 144 206 164 q 279 124 244 124 q 393 188 333 124 l 396 290 l 249 258 m 326 1006 q 424 972 390 1006 q 457 879 457 939 q 420 778 457 814 q 319 743 383 743 q 224 776 258 743 q 190 874 190 810 q 226 971 190 936 q 326 1006 261 1006 m 322 926 q 267 875 267 926 q 324 819 267 819 q 381 872 381 819 q 322 926 381 926 m 206 1174 l 269 1072 l 266 1055 q -14 903 141 983 l -31 906 l -73 976 q 187 1175 83 1087 l 206 1174 z "},"ã":{"ha":668,"x_min":42,"x_max":633,"o":"m 339 658 q 506 610 446 658 q 567 476 567 563 q 558 318 567 451 q 554 238 557 279 q 551 168 551 197 q 558 135 551 144 q 583 126 565 126 q 619 132 597 126 l 633 121 l 617 24 q 515 -11 572 -6 q 446 19 474 -7 q 408 90 418 44 l 399 90 q 256 -12 329 17 q 99 40 156 -11 q 42 181 42 92 q 77 290 42 250 q 185 343 113 329 l 397 383 l 397 440 q 308 531 397 531 q 217 511 265 531 q 110 450 169 492 l 96 458 l 75 581 q 203 638 135 618 q 339 658 271 658 m 249 258 q 216 240 226 253 q 206 200 206 226 q 225 144 206 164 q 279 124 244 124 q 393 188 333 124 l 396 290 l 249 258 m 567 919 l 567 904 l 469 781 l 451 774 q 336 800 414 778 q 291 812 329 801 q 238 822 253 822 q 208 810 222 822 q 176 779 193 797 q 151 751 160 761 l 135 751 l 79 806 l 79 821 l 178 944 l 194 951 q 313 924 228 947 q 408 903 390 903 q 441 917 425 903 q 474 949 457 931 q 496 974 490 967 l 513 974 l 567 919 z "},"æ":{"ha":964,"x_min":39,"x_max":928,"o":"m 685 657 q 863 588 797 657 q 928 393 928 519 q 926 361 928 372 l 908 339 l 539 296 q 585 165 546 207 q 703 122 624 122 q 792 135 744 122 q 885 172 840 147 l 900 163 l 874 28 q 781 -3 832 8 q 688 -14 731 -14 q 546 16 607 -14 q 447 106 485 46 q 274 -12 371 25 q 103 38 167 -11 q 39 178 39 88 q 76 291 39 246 q 182 344 113 336 l 390 367 l 390 440 q 369 508 390 486 q 303 531 347 531 q 106 449 221 531 l 93 457 l 71 582 q 195 639 129 619 q 325 658 261 658 q 494 585 444 658 q 580 638 531 619 q 685 657 629 657 m 667 536 q 575 492 613 535 q 538 388 538 450 l 538 386 l 764 418 q 740 507 765 478 q 667 536 714 536 m 279 125 q 333 140 307 125 q 403 193 360 154 q 392 275 393 246 l 258 256 q 217 236 229 250 q 204 197 204 222 q 224 144 204 163 q 279 125 244 125 z "},"ǽ":{"ha":964,"x_min":39,"x_max":928,"o":"m 685 657 q 863 588 797 657 q 928 393 928 519 q 926 361 928 372 l 908 339 l 539 296 q 585 165 546 207 q 703 122 624 122 q 792 135 744 122 q 885 172 840 147 l 900 163 l 874 28 q 781 -3 832 8 q 688 -14 731 -14 q 546 16 607 -14 q 447 106 485 46 q 274 -12 371 25 q 103 38 167 -11 q 39 178 39 88 q 76 291 39 246 q 182 344 113 336 l 390 367 l 390 440 q 369 508 390 486 q 303 531 347 531 q 106 449 221 531 l 93 457 l 71 582 q 195 639 129 619 q 325 658 261 658 q 494 585 444 658 q 580 638 531 619 q 685 657 629 657 m 667 536 q 575 492 613 535 q 538 388 538 450 l 538 386 l 764 418 q 740 507 765 478 q 667 536 714 536 m 279 125 q 333 140 307 125 q 403 193 360 154 q 392 275 393 246 l 258 256 q 217 236 229 250 q 204 197 204 222 q 224 144 204 163 q 279 125 244 125 m 621 1004 l 688 904 l 685 886 q 639 858 654 867 q 414 722 465 751 l 396 724 l 351 793 q 603 1006 513 922 l 621 1004 z "},"b":{"ha":726,"x_min":90,"x_max":685,"o":"m 433 654 q 620 572 556 654 q 685 342 685 489 q 600 78 685 171 q 365 -14 515 -14 q 210 18 294 -14 l 113 -17 l 90 1 l 100 265 l 92 961 l 275 975 l 269 554 l 278 554 q 353 615 317 592 q 433 654 389 638 m 365 107 q 474 157 435 107 q 513 310 513 207 q 481 456 513 406 q 388 506 450 506 q 268 447 331 506 l 265 289 l 268 132 q 365 107 319 107 z "},"c":{"ha":535,"x_min":40,"x_max":521,"o":"m 350 658 q 441 649 396 658 q 521 624 486 640 l 490 476 l 475 469 q 349 508 404 508 q 250 463 285 508 q 215 332 215 417 q 253 183 215 235 q 360 132 290 132 q 499 167 422 132 l 513 156 l 494 13 q 324 -14 411 -14 q 115 73 190 -14 q 40 315 40 160 q 122 567 40 476 q 350 658 204 658 z "},"ć":{"ha":535,"x_min":40,"x_max":532,"o":"m 350 658 q 441 649 396 658 q 521 624 486 640 l 490 476 l 475 469 q 349 508 404 508 q 250 463 285 508 q 215 332 215 417 q 253 183 215 235 q 360 132 290 132 q 499 167 422 132 l 513 156 l 494 13 q 324 -14 411 -14 q 115 73 190 -14 q 40 315 40 160 q 122 567 40 476 q 350 658 204 658 m 465 1004 l 532 904 l 529 886 q 483 858 499 867 q 258 722 310 751 l 240 724 l 196 793 q 447 1006 357 922 l 465 1004 z "},"č":{"ha":535,"x_min":40,"x_max":546,"o":"m 350 658 q 441 649 396 658 q 521 624 486 640 l 490 476 l 475 469 q 349 508 404 508 q 250 463 285 508 q 215 332 215 417 q 253 183 215 235 q 360 132 290 132 q 499 167 422 132 l 513 156 l 494 13 q 324 -14 411 -14 q 115 73 190 -14 q 40 315 40 160 q 122 567 40 476 q 350 658 204 658 m 546 924 q 350 728 467 851 l 310 728 q 115 924 201 847 l 161 994 l 179 994 q 331 867 271 922 q 481 994 385 918 l 499 994 l 546 924 z "},"ç":{"ha":535,"x_min":40,"x_max":521,"o":"m 350 658 q 441 649 396 658 q 521 624 486 640 l 490 476 l 475 469 q 349 508 404 508 q 250 463 285 508 q 215 332 215 417 q 253 183 215 235 q 360 132 290 132 q 499 167 422 132 l 513 156 l 494 13 q 324 -14 411 -14 q 115 73 190 -14 q 40 315 40 160 q 122 567 40 476 q 350 658 204 658 m 349 -67 l 396 -93 q 440 -130 426 -110 q 453 -175 453 -150 q 417 -250 453 -221 q 322 -279 381 -279 q 208 -240 260 -279 l 221 -162 l 229 -158 q 311 -200 271 -200 q 344 -171 344 -200 q 339 -155 344 -161 q 321 -143 333 -149 l 253 -104 l 285 36 l 374 36 l 349 -67 z "},"ḉ":{"ha":535,"x_min":40,"x_max":532,"o":"m 350 658 q 441 649 396 658 q 521 624 486 640 l 490 476 l 475 469 q 349 508 404 508 q 250 463 285 508 q 215 332 215 417 q 253 183 215 235 q 360 132 290 132 q 499 167 422 132 l 513 156 l 494 13 q 324 -14 411 -14 q 115 73 190 -14 q 40 315 40 160 q 122 567 40 476 q 350 658 204 658 m 349 -67 l 396 -93 q 440 -130 426 -110 q 453 -175 453 -150 q 417 -250 453 -221 q 322 -279 381 -279 q 208 -240 260 -279 l 221 -162 l 229 -158 q 311 -200 271 -200 q 344 -171 344 -200 q 339 -155 344 -161 q 321 -143 333 -149 l 253 -104 l 285 36 l 374 36 l 349 -67 m 465 1004 l 532 904 l 529 886 q 483 858 499 867 q 258 722 310 751 l 240 724 l 196 793 q 447 1006 357 922 l 465 1004 z "},"ĉ":{"ha":535,"x_min":40,"x_max":546,"o":"m 350 658 q 441 649 396 658 q 521 624 486 640 l 490 476 l 475 469 q 349 508 404 508 q 250 463 285 508 q 215 332 215 417 q 253 183 215 235 q 360 132 290 132 q 499 167 422 132 l 513 156 l 494 13 q 324 -14 411 -14 q 115 73 190 -14 q 40 315 40 160 q 122 567 40 476 q 350 658 204 658 m 115 801 q 311 997 194 874 l 351 997 q 546 801 460 878 l 500 731 l 482 731 q 331 858 390 803 q 181 731 276 807 l 163 731 l 115 801 z "},"ċ":{"ha":535,"x_min":40,"x_max":521,"o":"m 350 658 q 441 649 396 658 q 521 624 486 640 l 490 476 l 475 469 q 349 508 404 508 q 250 463 285 508 q 215 332 215 417 q 253 183 215 235 q 360 132 290 132 q 499 167 422 132 l 513 156 l 494 13 q 324 -14 411 -14 q 115 73 190 -14 q 40 315 40 160 q 122 567 40 476 q 350 658 204 658 m 335 963 q 402 938 378 963 q 426 868 426 913 q 400 793 426 821 q 328 765 374 765 q 258 790 282 765 q 233 861 233 815 q 260 935 233 907 q 335 963 288 963 z "},"d":{"ha":731,"x_min":40,"x_max":707,"o":"m 624 285 l 628 168 q 634 135 628 144 q 657 126 640 126 q 694 132 672 126 l 707 121 l 692 24 q 589 -11 644 -6 q 517 18 546 -7 q 476 86 488 43 l 465 86 q 326 -10 397 24 q 115 77 190 -10 q 40 318 40 164 q 126 569 40 482 q 365 657 213 657 q 454 649 406 657 l 451 961 l 635 975 l 624 285 m 353 532 q 214 356 214 532 q 247 190 214 246 q 344 135 281 135 q 457 192 406 135 l 460 268 l 456 507 q 353 532 401 532 z "},"ð":{"ha":690,"x_min":46,"x_max":642,"o":"m 432 825 q 589 605 536 726 q 642 344 642 483 q 563 79 642 172 q 336 -14 483 -14 q 122 69 199 -14 q 46 311 46 153 q 122 553 46 468 q 340 638 197 638 q 403 632 376 638 q 297 747 364 694 l 136 656 l 121 661 l 83 735 l 210 807 q 72 876 144 844 l 72 899 l 188 985 l 199 985 q 354 890 294 936 l 506 976 l 521 972 l 558 897 l 432 825 m 347 106 q 447 157 417 106 q 476 326 476 208 q 464 471 476 407 q 350 513 417 513 q 244 465 278 513 q 211 311 211 417 q 245 154 211 203 q 347 106 279 106 z "},"ď":{"ha":831,"x_min":40,"x_max":856,"o":"m 624 285 l 628 168 q 634 135 628 144 q 657 126 640 126 q 694 132 672 126 l 707 121 l 692 24 q 589 -11 644 -6 q 517 18 546 -7 q 476 86 488 43 l 465 86 q 326 -10 397 24 q 115 77 190 -10 q 40 318 40 164 q 126 569 40 482 q 365 657 213 657 q 454 649 406 657 l 451 961 l 635 975 l 624 285 m 856 882 l 810 606 l 729 593 l 715 603 l 713 886 l 844 894 l 856 882 m 353 532 q 214 356 214 532 q 247 190 214 246 q 344 135 281 135 q 457 192 406 135 l 460 268 l 456 507 q 353 532 401 532 z "},"đ":{"ha":738,"x_min":40,"x_max":736,"o":"m 631 753 l 624 285 l 628 168 q 634 135 628 144 q 657 126 640 126 q 694 132 672 126 l 707 121 l 692 24 q 589 -11 644 -6 q 517 18 546 -7 q 476 86 488 43 l 465 86 q 326 -10 397 24 q 115 77 190 -10 q 40 318 40 164 q 126 569 40 482 q 365 657 213 657 q 454 649 406 657 l 453 753 l 299 753 l 288 765 l 296 854 l 453 854 l 451 961 l 635 975 l 633 854 l 724 854 l 736 840 l 728 753 l 631 753 m 460 268 l 456 507 q 353 532 401 532 q 214 356 214 532 q 247 190 214 246 q 344 135 281 135 q 457 192 406 135 l 460 268 z "},"ḍ":{"ha":731,"x_min":40,"x_max":707,"o":"m 624 285 l 628 168 q 634 135 628 144 q 657 126 640 126 q 694 132 672 126 l 707 121 l 692 24 q 589 -11 644 -6 q 517 18 546 -7 q 476 86 488 43 l 465 86 q 326 -10 397 24 q 115 77 190 -10 q 40 318 40 164 q 126 569 40 482 q 365 657 213 657 q 454 649 406 657 l 451 961 l 635 975 l 624 285 m 353 532 q 214 356 214 532 q 247 190 214 246 q 344 135 281 135 q 457 192 406 135 l 460 268 l 456 507 q 353 532 401 532 m 371 -72 q 438 -97 414 -72 q 463 -167 463 -122 q 436 -242 463 -214 q 364 -269 410 -269 q 294 -244 318 -269 q 269 -174 269 -219 q 297 -100 269 -128 q 371 -72 324 -72 z "},"ḏ":{"ha":731,"x_min":40,"x_max":707,"o":"m 624 285 l 628 168 q 634 135 628 144 q 657 126 640 126 q 694 132 672 126 l 707 121 l 692 24 q 589 -11 644 -6 q 517 18 546 -7 q 476 86 488 43 l 465 86 q 326 -10 397 24 q 115 77 190 -10 q 40 318 40 164 q 126 569 40 482 q 365 657 213 657 q 454 649 406 657 l 451 961 l 635 975 l 624 285 m 353 532 q 214 356 214 532 q 247 190 214 246 q 344 135 281 135 q 457 192 406 135 l 460 268 l 456 507 q 353 532 401 532 m 547 -133 l 539 -237 l 197 -237 l 185 -224 l 193 -121 l 535 -121 l 547 -133 z "},"ǆ":{"ha":1319,"x_min":40,"x_max":1286,"o":"m 624 285 l 628 168 q 634 135 628 144 q 657 126 640 126 q 694 132 672 126 l 707 121 l 692 24 q 589 -11 644 -6 q 517 18 546 -7 q 476 86 488 43 l 465 86 q 326 -10 397 24 q 115 77 190 -10 q 40 318 40 164 q 126 569 40 482 q 365 657 213 657 q 454 649 406 657 l 451 961 l 635 975 l 624 285 m 353 532 q 214 356 214 532 q 247 190 214 246 q 344 135 281 135 q 457 192 406 135 l 460 268 l 456 507 q 353 532 401 532 m 922 646 l 1203 646 l 1274 647 l 1275 538 l 963 118 l 1158 118 l 1276 129 l 1286 117 l 1274 -3 l 1113 0 l 857 0 l 768 -4 l 768 104 l 1083 526 l 897 526 l 782 517 l 771 529 l 785 649 l 922 646 m 1240 924 q 1044 728 1161 851 l 1004 728 q 810 924 896 847 l 856 994 l 874 994 q 1025 867 965 922 q 1175 994 1079 918 l 1193 994 l 1240 924 z "},"e":{"ha":656,"x_min":40,"x_max":613,"o":"m 585 300 l 210 297 q 386 124 222 124 q 578 172 472 124 l 593 163 l 565 25 q 367 -14 460 -14 q 127 75 214 -14 q 40 321 40 164 q 125 567 40 476 q 354 658 210 658 q 545 591 478 658 q 613 403 613 524 q 606 322 613 371 l 585 300 m 451 424 q 426 508 451 479 q 353 536 401 536 q 263 501 299 536 q 214 399 226 465 l 449 404 l 451 424 z "},"é":{"ha":656,"x_min":40,"x_max":613,"o":"m 585 300 l 210 297 q 386 124 222 124 q 578 172 472 124 l 593 163 l 565 25 q 367 -14 460 -14 q 127 75 214 -14 q 40 321 40 164 q 125 567 40 476 q 354 658 210 658 q 545 591 478 658 q 613 403 613 524 q 606 322 613 371 l 585 300 m 451 424 q 426 508 451 479 q 353 536 401 536 q 263 501 299 536 q 214 399 226 465 l 449 404 l 451 424 m 475 1003 l 542 903 l 539 885 q 493 857 508 865 q 268 721 319 750 l 250 722 l 206 792 q 457 1004 367 921 l 475 1003 z "},"ĕ":{"ha":656,"x_min":40,"x_max":613,"o":"m 585 300 l 210 297 q 386 124 222 124 q 578 172 472 124 l 593 163 l 565 25 q 367 -14 460 -14 q 127 75 214 -14 q 40 321 40 164 q 125 567 40 476 q 354 658 210 658 q 545 591 478 658 q 613 403 613 524 q 606 322 613 371 l 585 300 m 451 424 q 426 508 451 479 q 353 536 401 536 q 263 501 299 536 q 214 399 226 465 l 449 404 l 451 424 m 550 908 q 476 782 529 829 q 336 735 422 735 q 202 783 253 735 q 132 908 151 832 l 178 971 l 203 971 q 256 892 221 919 q 342 865 292 865 q 427 892 392 865 q 479 971 463 919 l 504 971 l 550 908 z "},"ě":{"ha":656,"x_min":40,"x_max":613,"o":"m 585 300 l 210 297 q 386 124 222 124 q 578 172 472 124 l 593 163 l 565 25 q 367 -14 460 -14 q 127 75 214 -14 q 40 321 40 164 q 125 567 40 476 q 354 658 210 658 q 545 591 478 658 q 613 403 613 524 q 606 322 613 371 l 585 300 m 451 424 q 426 508 451 479 q 353 536 401 536 q 263 501 299 536 q 214 399 226 465 l 449 404 l 451 424 m 556 922 q 360 726 476 850 l 319 726 q 125 922 211 846 l 171 993 l 189 993 q 340 865 281 921 q 490 993 394 917 l 508 993 l 556 922 z "},"ḝ":{"ha":656,"x_min":40,"x_max":613,"o":"m 585 300 l 210 297 q 386 124 222 124 q 578 172 472 124 l 593 163 l 565 25 q 367 -14 460 -14 q 127 75 214 -14 q 40 321 40 164 q 125 567 40 476 q 354 658 210 658 q 545 591 478 658 q 613 403 613 524 q 606 322 613 371 l 585 300 m 451 424 q 426 508 451 479 q 353 536 401 536 q 263 501 299 536 q 214 399 226 465 l 449 404 l 451 424 m 389 -67 l 436 -93 q 480 -130 467 -110 q 493 -175 493 -150 q 457 -250 493 -221 q 363 -279 421 -279 q 249 -240 300 -279 l 261 -162 l 269 -158 q 351 -200 311 -200 q 385 -171 385 -200 q 379 -155 385 -161 q 361 -143 374 -149 l 293 -104 l 325 36 l 414 36 l 389 -67 m 550 908 q 476 782 529 829 q 336 735 422 735 q 202 783 253 735 q 132 908 151 832 l 178 971 l 203 971 q 256 892 221 919 q 342 865 292 865 q 427 892 392 865 q 479 971 463 919 l 504 971 l 550 908 z "},"ê":{"ha":656,"x_min":40,"x_max":613,"o":"m 585 300 l 210 297 q 386 124 222 124 q 578 172 472 124 l 593 163 l 565 25 q 367 -14 460 -14 q 127 75 214 -14 q 40 321 40 164 q 125 567 40 476 q 354 658 210 658 q 545 591 478 658 q 613 403 613 524 q 606 322 613 371 l 585 300 m 451 424 q 426 508 451 479 q 353 536 401 536 q 263 501 299 536 q 214 399 226 465 l 449 404 l 451 424 m 125 800 q 321 996 204 872 l 361 996 q 556 800 469 876 l 510 729 l 492 729 q 340 857 400 801 q 190 729 286 806 l 172 729 l 125 800 z "},"ế":{"ha":656,"x_min":40,"x_max":613,"o":"m 585 300 l 210 297 q 386 124 222 124 q 578 172 472 124 l 593 163 l 565 25 q 367 -14 460 -14 q 127 75 214 -14 q 40 321 40 164 q 125 567 40 476 q 354 658 210 658 q 545 591 478 658 q 613 403 613 524 q 606 322 613 371 l 585 300 m 451 424 q 426 508 451 479 q 353 536 401 536 q 263 501 299 536 q 214 399 226 465 l 449 404 l 451 424 m 603 1068 l 608 1054 l 494 911 l 481 911 l 417 958 l 500 1106 l 514 1113 l 603 1068 m 136 807 q 321 951 250 888 l 358 951 q 544 807 442 878 l 511 733 l 493 733 l 340 821 l 188 733 l 169 733 l 136 807 z "},"ệ":{"ha":656,"x_min":40,"x_max":613,"o":"m 585 300 l 210 297 q 386 124 222 124 q 578 172 472 124 l 593 163 l 565 25 q 367 -14 460 -14 q 127 75 214 -14 q 40 321 40 164 q 125 567 40 476 q 354 658 210 658 q 545 591 478 658 q 613 403 613 524 q 606 322 613 371 l 585 300 m 451 424 q 426 508 451 479 q 353 536 401 536 q 263 501 299 536 q 214 399 226 465 l 449 404 l 451 424 m 365 -72 q 433 -97 408 -72 q 457 -167 457 -122 q 431 -242 457 -214 q 358 -269 404 -269 q 288 -244 313 -269 q 264 -174 264 -219 q 291 -100 264 -128 q 365 -72 318 -72 m 125 800 q 321 996 204 872 l 361 996 q 556 800 469 876 l 510 729 l 492 729 q 340 857 400 801 q 190 729 286 806 l 172 729 l 125 800 z "},"ề":{"ha":656,"x_min":40,"x_max":613,"o":"m 585 300 l 210 297 q 386 124 222 124 q 578 172 472 124 l 593 163 l 565 25 q 367 -14 460 -14 q 127 75 214 -14 q 40 321 40 164 q 125 567 40 476 q 354 658 210 658 q 545 591 478 658 q 613 403 613 524 q 606 322 613 371 l 585 300 m 451 424 q 426 508 451 479 q 353 536 401 536 q 263 501 299 536 q 214 399 226 465 l 449 404 l 451 424 m 375 1054 l 379 1068 l 468 1113 l 482 1106 l 567 958 l 503 911 l 489 911 l 375 1054 m 136 807 q 321 951 250 888 l 358 951 q 544 807 442 878 l 511 733 l 493 733 l 340 821 l 188 733 l 169 733 l 136 807 z "},"ể":{"ha":656,"x_min":40,"x_max":621,"o":"m 585 300 l 210 297 q 386 124 222 124 q 578 172 472 124 l 593 163 l 565 25 q 367 -14 460 -14 q 127 75 214 -14 q 40 321 40 164 q 125 567 40 476 q 354 658 210 658 q 545 591 478 658 q 613 403 613 524 q 606 322 613 371 l 585 300 m 451 424 q 426 508 451 479 q 353 536 401 536 q 263 501 299 536 q 214 399 226 465 l 449 404 l 451 424 m 136 835 q 321 979 232 900 l 358 979 q 544 835 456 896 l 511 761 l 493 761 l 457 782 q 340 849 399 814 q 188 761 288 817 l 169 761 l 136 835 m 453 1013 q 504 1063 486 1037 q 523 1108 523 1089 q 513 1130 523 1123 q 486 1137 503 1137 q 442 1129 466 1137 q 399 1104 418 1120 l 370 1152 q 437 1202 400 1184 q 511 1221 474 1221 q 590 1194 559 1221 q 621 1124 621 1167 q 604 1075 621 1099 q 545 1014 588 1050 l 576 963 l 511 925 l 453 1013 z "},"ễ":{"ha":656,"x_min":40,"x_max":613,"o":"m 585 300 l 210 297 q 386 124 222 124 q 578 172 472 124 l 593 163 l 565 25 q 367 -14 460 -14 q 127 75 214 -14 q 40 321 40 164 q 125 567 40 476 q 354 658 210 658 q 545 591 478 658 q 613 403 613 524 q 606 322 613 371 l 585 300 m 451 424 q 426 508 451 479 q 353 536 401 536 q 263 501 299 536 q 214 399 226 465 l 449 404 l 451 424 m 139 835 q 324 979 235 900 l 361 979 q 547 835 458 896 l 514 761 l 496 761 l 460 782 q 343 849 401 814 q 190 761 290 817 l 172 761 l 139 835 m 585 1161 l 585 1144 l 486 1021 l 469 1015 q 353 1043 439 1019 q 256 1064 275 1064 q 226 1052 240 1064 q 189 1015 213 1040 l 168 993 l 151 993 l 97 1047 l 97 1063 l 196 1186 l 213 1193 q 331 1165 240 1189 q 374 1153 338 1164 q 426 1143 411 1143 q 456 1156 442 1143 q 488 1187 471 1168 q 514 1215 504 1206 l 529 1215 l 585 1161 z "},"ȅ":{"ha":656,"x_min":40,"x_max":613,"o":"m 585 300 l 210 297 q 386 124 222 124 q 578 172 472 124 l 593 163 l 565 25 q 367 -14 460 -14 q 127 75 214 -14 q 40 321 40 164 q 125 567 40 476 q 354 658 210 658 q 545 591 478 658 q 613 403 613 524 q 606 322 613 371 l 585 300 m 451 424 q 426 508 451 479 q 353 536 401 536 q 263 501 299 536 q 214 399 226 465 l 449 404 l 451 424 m 350 768 q 178 1007 249 903 l 164 1010 l 78 949 l 76 935 q 278 725 142 861 l 293 721 l 350 768 m 561 768 q 389 1007 460 903 l 375 1010 l 289 949 l 288 935 q 489 725 353 861 l 504 721 l 561 768 z "},"ë":{"ha":656,"x_min":40,"x_max":613,"o":"m 585 300 l 210 297 q 386 124 222 124 q 578 172 472 124 l 593 163 l 565 25 q 367 -14 460 -14 q 127 75 214 -14 q 40 321 40 164 q 125 567 40 476 q 354 658 210 658 q 545 591 478 658 q 613 403 613 524 q 606 322 613 371 l 585 300 m 451 424 q 426 508 451 479 q 353 536 401 536 q 263 501 299 536 q 214 399 226 465 l 449 404 l 451 424 m 225 946 q 286 924 264 946 q 308 861 308 901 q 284 793 308 818 q 218 768 260 768 q 156 790 178 768 q 133 854 133 813 q 158 921 133 896 q 225 946 182 946 m 465 946 q 526 924 504 946 q 549 861 549 901 q 524 793 549 818 q 460 768 500 768 q 397 790 419 768 q 375 854 375 813 q 399 921 375 896 q 465 946 424 946 z "},"ė":{"ha":656,"x_min":40,"x_max":613,"o":"m 585 300 l 210 297 q 386 124 222 124 q 578 172 472 124 l 593 163 l 565 25 q 367 -14 460 -14 q 127 75 214 -14 q 40 321 40 164 q 125 567 40 476 q 354 658 210 658 q 545 591 478 658 q 613 403 613 524 q 606 322 613 371 l 585 300 m 451 424 q 426 508 451 479 q 353 536 401 536 q 263 501 299 536 q 214 399 226 465 l 449 404 l 451 424 m 344 961 q 412 936 388 961 q 436 867 436 911 q 410 792 436 819 q 338 764 383 764 q 267 789 292 764 q 243 860 243 814 q 270 933 243 906 q 344 961 297 961 z "},"ẹ":{"ha":656,"x_min":40,"x_max":613,"o":"m 585 300 l 210 297 q 386 124 222 124 q 578 172 472 124 l 593 163 l 565 25 q 367 -14 460 -14 q 127 75 214 -14 q 40 321 40 164 q 125 567 40 476 q 354 658 210 658 q 545 591 478 658 q 613 403 613 524 q 606 322 613 371 l 585 300 m 451 424 q 426 508 451 479 q 353 536 401 536 q 263 501 299 536 q 214 399 226 465 l 449 404 l 451 424 m 365 -72 q 433 -97 408 -72 q 457 -167 457 -122 q 431 -242 457 -214 q 358 -269 404 -269 q 288 -244 313 -269 q 264 -174 264 -219 q 291 -100 264 -128 q 365 -72 318 -72 z "},"è":{"ha":656,"x_min":40,"x_max":613,"o":"m 585 300 l 210 297 q 386 124 222 124 q 578 172 472 124 l 593 163 l 565 25 q 367 -14 460 -14 q 127 75 214 -14 q 40 321 40 164 q 125 567 40 476 q 354 658 210 658 q 545 591 478 658 q 613 403 613 524 q 606 322 613 371 l 585 300 m 451 424 q 426 508 451 479 q 353 536 401 536 q 263 501 299 536 q 214 399 226 465 l 449 404 l 451 424 m 256 1004 q 507 792 357 911 l 463 722 l 446 721 q 175 885 338 783 l 172 903 l 239 1003 l 256 1004 z "},"ẻ":{"ha":656,"x_min":40,"x_max":613,"o":"m 585 300 l 210 297 q 386 124 222 124 q 578 172 472 124 l 593 163 l 565 25 q 367 -14 460 -14 q 127 75 214 -14 q 40 321 40 164 q 125 567 40 476 q 354 658 210 658 q 545 591 478 658 q 613 403 613 524 q 606 322 613 371 l 585 300 m 451 424 q 426 508 451 479 q 353 536 401 536 q 263 501 299 536 q 214 399 226 465 l 449 404 l 451 424 m 283 794 q 338 847 318 819 q 357 894 357 874 q 347 917 357 910 q 318 925 336 925 q 272 916 297 925 q 226 890 247 907 l 196 940 q 267 993 228 974 q 344 1013 306 1013 q 427 984 394 1013 q 460 911 460 956 q 442 859 460 885 q 381 796 425 833 l 413 742 l 344 701 l 283 794 z "},"ȇ":{"ha":656,"x_min":40,"x_max":613,"o":"m 585 300 l 210 297 q 386 124 222 124 q 578 172 472 124 l 593 163 l 565 25 q 367 -14 460 -14 q 127 75 214 -14 q 40 321 40 164 q 125 567 40 476 q 354 658 210 658 q 545 591 478 658 q 613 403 613 524 q 606 322 613 371 l 585 300 m 451 424 q 426 508 451 479 q 353 536 401 536 q 263 501 299 536 q 214 399 226 465 l 449 404 l 451 424 m 131 819 q 205 946 151 899 q 344 993 258 993 q 478 944 428 993 q 549 819 529 896 l 503 757 l 478 757 q 424 835 460 808 q 339 863 389 863 q 253 835 289 863 q 201 757 218 808 l 176 757 l 131 819 z "},"ē":{"ha":656,"x_min":40,"x_max":613,"o":"m 585 300 l 210 297 q 386 124 222 124 q 578 172 472 124 l 593 163 l 565 25 q 367 -14 460 -14 q 127 75 214 -14 q 40 321 40 164 q 125 567 40 476 q 354 658 210 658 q 545 591 478 658 q 613 403 613 524 q 606 322 613 371 l 585 300 m 451 424 q 426 508 451 479 q 353 536 401 536 q 263 501 299 536 q 214 399 226 465 l 449 404 l 451 424 m 544 903 l 536 800 l 147 800 l 135 813 l 143 915 l 532 915 l 544 903 z "},"ḗ":{"ha":656,"x_min":40,"x_max":613,"o":"m 585 300 l 210 297 q 386 124 222 124 q 578 172 472 124 l 593 163 l 565 25 q 367 -14 460 -14 q 127 75 214 -14 q 40 321 40 164 q 125 567 40 476 q 354 658 210 658 q 545 591 478 658 q 613 403 613 524 q 606 322 613 371 l 585 300 m 451 424 q 426 508 451 479 q 353 536 401 536 q 263 501 299 536 q 214 399 226 465 l 449 404 l 451 424 m 489 1138 l 515 1022 l 507 1006 q 193 953 310 968 l 176 960 l 161 1042 q 472 1146 329 1092 l 489 1138 m 507 871 l 497 767 l 185 767 l 172 781 l 182 883 l 494 883 l 507 871 z "},"ḕ":{"ha":656,"x_min":40,"x_max":613,"o":"m 585 300 l 210 297 q 386 124 222 124 q 578 172 472 124 l 593 163 l 565 25 q 367 -14 460 -14 q 127 75 214 -14 q 40 321 40 164 q 125 567 40 476 q 354 658 210 658 q 545 591 478 658 q 613 403 613 524 q 606 322 613 371 l 585 300 m 451 424 q 426 508 451 479 q 353 536 401 536 q 263 501 299 536 q 214 399 226 465 l 449 404 l 451 424 m 486 953 q 174 1006 375 968 l 164 1022 l 190 1138 l 207 1146 q 518 1042 350 1092 l 503 960 l 486 953 m 507 871 l 497 767 l 185 767 l 172 781 l 182 883 l 494 883 l 507 871 z "},"ę":{"ha":656,"x_min":40,"x_max":613,"o":"m 585 300 l 210 297 q 386 124 222 124 q 578 172 472 124 l 593 163 l 565 25 q 367 -14 460 -14 q 127 75 214 -14 q 40 321 40 164 q 125 567 40 476 q 354 658 210 658 q 545 591 478 658 q 613 403 613 524 q 606 322 613 371 l 585 300 m 451 424 q 426 508 451 479 q 353 536 401 536 q 263 501 299 536 q 214 399 226 465 l 449 404 l 451 424 m 444 -299 q 340 -267 379 -299 q 301 -181 301 -235 q 335 -90 301 -135 q 465 25 369 -44 l 565 25 q 445 -102 472 -68 q 418 -157 418 -136 q 458 -192 418 -192 q 560 -150 501 -192 l 569 -153 l 592 -239 q 444 -299 518 -299 z "},"ẽ":{"ha":656,"x_min":40,"x_max":613,"o":"m 585 300 l 210 297 q 386 124 222 124 q 578 172 472 124 l 593 163 l 565 25 q 367 -14 460 -14 q 127 75 214 -14 q 40 321 40 164 q 125 567 40 476 q 354 658 210 658 q 545 591 478 658 q 613 403 613 524 q 606 322 613 371 l 585 300 m 451 424 q 426 508 451 479 q 353 536 401 536 q 263 501 299 536 q 214 399 226 465 l 449 404 l 451 424 m 582 918 l 582 903 l 485 779 l 467 772 q 351 799 429 776 q 306 810 344 800 q 253 821 268 821 q 223 808 238 821 q 192 778 208 796 q 167 750 175 760 l 150 750 l 94 804 l 94 819 l 193 943 l 210 950 q 328 922 243 946 q 424 901 406 901 q 456 915 440 901 q 489 947 472 929 q 511 972 506 965 l 528 972 l 582 918 z "},"ə":{"ha":656,"x_min":43,"x_max":615,"o":"m 289 660 q 528 571 442 660 q 615 325 615 482 q 531 78 615 169 q 301 -12 446 -12 q 110 55 178 -12 q 43 243 43 122 q 50 324 43 275 l 71 346 l 446 349 q 269 522 433 522 q 78 474 183 522 l 63 483 l 90 621 q 289 660 196 660 m 303 110 q 394 145 358 110 q 442 247 429 181 l 207 242 l 204 222 q 229 138 204 167 q 303 110 254 110 z "},"f":{"ha":457,"x_min":36,"x_max":542,"o":"m 421 978 q 542 965 478 978 l 529 828 l 517 819 q 403 847 451 847 q 315 749 317 847 l 314 640 l 471 640 l 476 631 l 468 529 l 311 529 l 307 285 l 317 0 l 132 0 l 143 268 l 140 529 l 43 529 l 36 539 l 46 640 l 139 640 l 138 717 q 212 910 138 842 q 421 978 286 978 z "},"g":{"ha":694,"x_min":64,"x_max":706,"o":"m 706 558 q 599 538 668 549 l 596 532 q 617 439 617 490 q 541 273 617 335 q 336 211 465 211 q 256 218 297 211 q 239 199 243 206 q 235 182 235 192 q 268 147 235 157 q 374 128 301 138 q 510 104 456 118 q 605 56 565 90 q 644 -43 644 21 q 603 -160 644 -108 q 490 -242 563 -212 q 326 -271 418 -271 q 132 -219 200 -271 q 64 -83 64 -168 q 179 21 107 -24 l 179 28 q 106 74 132 44 q 79 154 79 104 q 174 239 117 200 l 174 246 q 98 319 124 274 q 72 425 72 364 q 147 594 72 533 q 351 656 222 656 q 488 631 426 656 q 692 686 588 649 l 706 674 l 706 558 m 342 322 q 428 351 399 322 q 457 436 457 381 q 349 542 457 542 q 232 435 232 542 q 260 351 232 379 q 342 322 288 322 m 489 -76 q 449 -25 489 -39 q 328 -1 410 -11 l 281 6 q 231 -37 247 -17 q 214 -82 214 -58 q 247 -140 214 -118 q 344 -162 281 -162 q 449 -140 410 -162 q 489 -76 489 -117 z "},"ğ":{"ha":694,"x_min":64,"x_max":706,"o":"m 706 558 q 599 538 668 549 l 596 532 q 617 439 617 490 q 541 273 617 335 q 336 211 465 211 q 256 218 297 211 q 239 199 243 206 q 235 182 235 192 q 268 147 235 157 q 374 128 301 138 q 510 104 456 118 q 605 56 565 90 q 644 -43 644 21 q 603 -160 644 -108 q 490 -242 563 -212 q 326 -271 418 -271 q 132 -219 200 -271 q 64 -83 64 -168 q 179 21 107 -24 l 179 28 q 106 74 132 44 q 79 154 79 104 q 174 239 117 200 l 174 246 q 98 319 124 274 q 72 425 72 364 q 147 594 72 533 q 351 656 222 656 q 488 631 426 656 q 692 686 588 649 l 706 674 l 706 558 m 342 322 q 428 351 399 322 q 457 436 457 381 q 349 542 457 542 q 232 435 232 542 q 260 351 232 379 q 342 322 288 322 m 489 -76 q 449 -25 489 -39 q 328 -1 410 -11 l 281 6 q 231 -37 247 -17 q 214 -82 214 -58 q 247 -140 214 -118 q 344 -162 281 -162 q 449 -140 410 -162 q 489 -76 489 -117 m 561 897 q 487 771 540 818 q 347 724 433 724 q 213 772 264 724 q 143 897 163 821 l 189 960 l 214 960 q 267 881 232 908 q 353 854 303 854 q 438 881 403 854 q 490 960 474 908 l 515 960 l 561 897 z "},"ǧ":{"ha":694,"x_min":64,"x_max":706,"o":"m 706 558 q 599 538 668 549 l 596 532 q 617 439 617 490 q 541 273 617 335 q 336 211 465 211 q 256 218 297 211 q 239 199 243 206 q 235 182 235 192 q 268 147 235 157 q 374 128 301 138 q 510 104 456 118 q 605 56 565 90 q 644 -43 644 21 q 603 -160 644 -108 q 490 -242 563 -212 q 326 -271 418 -271 q 132 -219 200 -271 q 64 -83 64 -168 q 179 21 107 -24 l 179 28 q 106 74 132 44 q 79 154 79 104 q 174 239 117 200 l 174 246 q 98 319 124 274 q 72 425 72 364 q 147 594 72 533 q 351 656 222 656 q 488 631 426 656 q 692 686 588 649 l 706 674 l 706 558 m 342 322 q 428 351 399 322 q 457 436 457 381 q 349 542 457 542 q 232 435 232 542 q 260 351 232 379 q 342 322 288 322 m 489 -76 q 449 -25 489 -39 q 328 -1 410 -11 l 281 6 q 231 -37 247 -17 q 214 -82 214 -58 q 247 -140 214 -118 q 344 -162 281 -162 q 449 -140 410 -162 q 489 -76 489 -117 m 567 911 q 371 715 488 839 l 331 715 q 136 911 222 835 l 182 982 l 200 982 q 351 854 292 910 q 501 982 406 906 l 519 982 l 567 911 z "},"ĝ":{"ha":694,"x_min":64,"x_max":706,"o":"m 706 558 q 599 538 668 549 l 596 532 q 617 439 617 490 q 541 273 617 335 q 336 211 465 211 q 256 218 297 211 q 239 199 243 206 q 235 182 235 192 q 268 147 235 157 q 374 128 301 138 q 510 104 456 118 q 605 56 565 90 q 644 -43 644 21 q 603 -160 644 -108 q 490 -242 563 -212 q 326 -271 418 -271 q 132 -219 200 -271 q 64 -83 64 -168 q 179 21 107 -24 l 179 28 q 106 74 132 44 q 79 154 79 104 q 174 239 117 200 l 174 246 q 98 319 124 274 q 72 425 72 364 q 147 594 72 533 q 351 656 222 656 q 488 631 426 656 q 692 686 588 649 l 706 674 l 706 558 m 342 322 q 428 351 399 322 q 457 436 457 381 q 349 542 457 542 q 232 435 232 542 q 260 351 232 379 q 342 322 288 322 m 489 -76 q 449 -25 489 -39 q 328 -1 410 -11 l 281 6 q 231 -37 247 -17 q 214 -82 214 -58 q 247 -140 214 -118 q 344 -162 281 -162 q 449 -140 410 -162 q 489 -76 489 -117 m 136 789 q 332 985 215 861 l 372 985 q 567 789 481 865 l 521 718 l 503 718 q 351 846 411 790 q 201 718 297 794 l 183 718 l 136 789 z "},"ģ":{"ha":694,"x_min":64,"x_max":706,"o":"m 333 717 q 278 765 296 736 q 260 838 260 794 q 379 1049 260 935 l 438 1010 l 440 997 q 389 888 389 940 q 401 834 389 856 q 440 796 413 813 l 440 782 q 333 717 383 740 m 706 558 q 599 538 668 549 l 596 532 q 617 439 617 490 q 541 273 617 335 q 336 211 465 211 q 256 218 297 211 q 239 199 243 206 q 235 182 235 192 q 268 147 235 157 q 374 128 301 138 q 510 104 456 118 q 605 56 565 90 q 644 -43 644 21 q 603 -160 644 -108 q 490 -242 563 -212 q 326 -271 418 -271 q 132 -219 200 -271 q 64 -83 64 -168 q 179 21 107 -24 l 179 28 q 106 74 132 44 q 79 154 79 104 q 174 239 117 200 l 174 246 q 98 319 124 274 q 72 425 72 364 q 147 594 72 533 q 351 656 222 656 q 488 631 426 656 q 692 686 588 649 l 706 674 l 706 558 m 342 322 q 428 351 399 322 q 457 436 457 381 q 349 542 457 542 q 232 435 232 542 q 260 351 232 379 q 342 322 288 322 m 489 -76 q 449 -25 489 -39 q 328 -1 410 -11 l 281 6 q 231 -37 247 -17 q 214 -82 214 -58 q 247 -140 214 -118 q 344 -162 281 -162 q 449 -140 410 -162 q 489 -76 489 -117 z "},"ġ":{"ha":694,"x_min":64,"x_max":706,"o":"m 706 558 q 599 538 668 549 l 596 532 q 617 439 617 490 q 541 273 617 335 q 336 211 465 211 q 256 218 297 211 q 239 199 243 206 q 235 182 235 192 q 268 147 235 157 q 374 128 301 138 q 510 104 456 118 q 605 56 565 90 q 644 -43 644 21 q 603 -160 644 -108 q 490 -242 563 -212 q 326 -271 418 -271 q 132 -219 200 -271 q 64 -83 64 -168 q 179 21 107 -24 l 179 28 q 106 74 132 44 q 79 154 79 104 q 174 239 117 200 l 174 246 q 98 319 124 274 q 72 425 72 364 q 147 594 72 533 q 351 656 222 656 q 488 631 426 656 q 692 686 588 649 l 706 674 l 706 558 m 342 322 q 428 351 399 322 q 457 436 457 381 q 349 542 457 542 q 232 435 232 542 q 260 351 232 379 q 342 322 288 322 m 489 -76 q 449 -25 489 -39 q 328 -1 410 -11 l 281 6 q 231 -37 247 -17 q 214 -82 214 -58 q 247 -140 214 -118 q 344 -162 281 -162 q 449 -140 410 -162 q 489 -76 489 -117 m 356 950 q 423 925 399 950 q 447 856 447 900 q 421 781 447 808 q 349 753 394 753 q 278 778 303 753 q 254 849 254 803 q 281 922 254 894 q 356 950 308 950 z "},"ḡ":{"ha":694,"x_min":64,"x_max":706,"o":"m 706 558 q 599 538 668 549 l 596 532 q 617 439 617 490 q 541 273 617 335 q 336 211 465 211 q 256 218 297 211 q 239 199 243 206 q 235 182 235 192 q 268 147 235 157 q 374 128 301 138 q 510 104 456 118 q 605 56 565 90 q 644 -43 644 21 q 603 -160 644 -108 q 490 -242 563 -212 q 326 -271 418 -271 q 132 -219 200 -271 q 64 -83 64 -168 q 179 21 107 -24 l 179 28 q 106 74 132 44 q 79 154 79 104 q 174 239 117 200 l 174 246 q 98 319 124 274 q 72 425 72 364 q 147 594 72 533 q 351 656 222 656 q 488 631 426 656 q 692 686 588 649 l 706 674 l 706 558 m 342 322 q 428 351 399 322 q 457 436 457 381 q 349 542 457 542 q 232 435 232 542 q 260 351 232 379 q 342 322 288 322 m 489 -76 q 449 -25 489 -39 q 328 -1 410 -11 l 281 6 q 231 -37 247 -17 q 214 -82 214 -58 q 247 -140 214 -118 q 344 -162 281 -162 q 449 -140 410 -162 q 489 -76 489 -117 m 556 892 l 547 789 l 158 789 l 146 801 l 154 904 l 543 904 l 556 892 z "},"h":{"ha":740,"x_min":90,"x_max":663,"o":"m 488 403 q 467 479 489 453 q 401 506 444 506 q 268 446 339 506 l 265 285 l 275 0 l 90 0 l 100 268 l 92 961 l 276 975 l 269 554 l 278 554 q 446 654 354 624 q 606 606 551 654 q 660 468 661 558 l 656 283 l 663 0 l 478 0 l 488 403 z "},"ħ":{"ha":739,"x_min":-6,"x_max":664,"o":"m 479 0 l 490 403 q 468 479 490 453 q 403 506 446 506 q 269 446 340 506 l 267 285 l 276 0 l 92 0 l 103 268 l 97 732 l 8 732 l -6 744 l 3 832 l 96 832 l 94 961 l 278 975 l 275 832 l 449 832 l 460 818 l 454 732 l 274 732 l 271 554 l 279 554 q 447 654 358 625 q 608 606 553 654 q 661 468 663 558 l 657 283 l 664 0 l 479 0 z "},"ḫ":{"ha":740,"x_min":90,"x_max":663,"o":"m 488 403 q 467 479 489 453 q 401 506 444 506 q 268 446 339 506 l 265 285 l 275 0 l 90 0 l 100 268 l 92 961 l 276 975 l 269 554 l 278 554 q 446 654 354 624 q 606 606 551 654 q 660 468 661 558 l 656 283 l 663 0 l 478 0 l 488 403 m 579 -136 q 505 -262 558 -215 q 365 -310 451 -310 q 231 -261 282 -310 q 161 -136 181 -212 l 207 -74 l 232 -74 q 285 -152 250 -125 q 371 -179 321 -179 q 456 -152 421 -179 q 508 -74 492 -125 l 533 -74 l 579 -136 z "},"ĥ":{"ha":740,"x_min":-22,"x_max":663,"o":"m 488 403 q 467 479 489 453 q 401 506 444 506 q 268 446 339 506 l 265 285 l 275 0 l 90 0 l 100 268 l 92 961 l 276 975 l 269 554 l 278 554 q 446 654 354 624 q 606 606 551 654 q 660 468 661 558 l 656 283 l 663 0 l 478 0 l 488 403 m -22 1097 q 163 1242 74 1163 l 200 1242 q 386 1097 297 1158 l 353 1024 l 335 1024 l 299 1044 q 182 1111 240 1076 q 29 1024 129 1079 l 11 1024 l -22 1097 z "},"ḥ":{"ha":740,"x_min":90,"x_max":663,"o":"m 488 403 q 467 479 489 453 q 401 506 444 506 q 268 446 339 506 l 265 285 l 275 0 l 90 0 l 100 268 l 92 961 l 276 975 l 269 554 l 278 554 q 446 654 354 624 q 606 606 551 654 q 660 468 661 558 l 656 283 l 663 0 l 478 0 l 488 403 m 375 -72 q 442 -97 418 -72 q 467 -167 467 -122 q 440 -242 467 -214 q 368 -269 414 -269 q 298 -244 322 -269 q 274 -174 274 -219 q 301 -100 274 -128 q 375 -72 328 -72 z "},"i":{"ha":363,"x_min":83,"x_max":276,"o":"m 97 267 l 90 633 l 272 649 l 264 285 l 272 0 l 88 0 l 97 267 m 185 963 q 252 938 228 963 q 276 868 276 913 q 250 793 276 821 q 178 765 224 765 q 108 790 132 765 q 83 861 83 815 q 110 935 83 907 q 185 963 138 963 z "},"ı":{"ha":363,"x_min":88,"x_max":272,"o":"m 97 267 l 90 633 l 272 649 l 264 285 l 272 0 l 88 0 l 97 267 z "},"í":{"ha":363,"x_min":46,"x_max":382,"o":"m 97 267 l 90 633 l 272 649 l 264 285 l 272 0 l 88 0 l 97 267 m 315 1004 l 382 904 l 379 886 q 333 858 349 867 q 108 722 160 751 l 90 724 l 46 793 q 297 1006 207 922 l 315 1004 z "},"ĭ":{"ha":363,"x_min":-28,"x_max":390,"o":"m 97 267 l 90 633 l 272 649 l 264 285 l 272 0 l 88 0 l 97 267 m 390 910 q 316 783 369 831 q 176 736 263 736 q 42 785 93 736 q -28 910 -8 833 l 18 972 l 43 972 q 97 894 61 921 q 182 867 132 867 q 267 894 232 867 q 319 972 303 921 l 344 972 l 390 910 z "},"ǐ":{"ha":363,"x_min":-35,"x_max":396,"o":"m 97 267 l 90 633 l 272 649 l 264 285 l 272 0 l 88 0 l 97 267 m 396 924 q 200 728 317 851 l 160 728 q -35 924 51 847 l 11 994 l 29 994 q 181 867 121 922 q 331 994 235 918 l 349 994 l 396 924 z "},"î":{"ha":363,"x_min":-35,"x_max":396,"o":"m 97 267 l 90 633 l 272 649 l 264 285 l 272 0 l 88 0 l 97 267 m -35 801 q 161 997 44 874 l 201 997 q 396 801 310 878 l 350 731 l 332 731 q 181 858 240 803 q 31 731 126 807 l 13 731 l -35 801 z "},"ȉ":{"ha":363,"x_min":-83,"x_max":401,"o":"m 97 267 l 90 633 l 272 649 l 264 285 l 272 0 l 88 0 l 97 267 m 190 769 q 18 1008 89 904 l 4 1011 l -82 950 l -83 936 q 118 726 -18 863 l 133 722 l 190 769 m 401 769 q 229 1008 300 904 l 215 1011 l 129 950 l 128 936 q 329 726 193 863 l 344 722 l 401 769 z "},"ï":{"ha":363,"x_min":6,"x_max":357,"o":"m 97 267 l 90 633 l 272 649 l 264 285 l 272 0 l 88 0 l 97 267 m 92 942 q 149 921 129 942 q 169 861 169 900 q 147 797 169 821 q 86 774 125 774 q 26 794 47 774 q 6 856 6 815 q 28 919 6 896 q 92 942 51 942 m 279 942 q 336 921 315 942 q 357 861 357 900 q 334 797 357 821 q 272 774 311 774 q 213 795 233 774 q 192 856 192 817 q 215 919 192 896 q 279 942 239 942 z "},"ḯ":{"ha":363,"x_min":-28,"x_max":385,"o":"m 97 267 l 90 633 l 272 649 l 264 285 l 272 0 l 88 0 l 97 267 m 325 1163 l 353 1046 l 343 1031 q 31 976 193 1000 l 14 983 l -3 1067 q 310 1169 165 1117 l 325 1163 m 61 917 q 122 894 100 917 q 143 833 143 872 q 119 768 143 793 q 56 743 96 743 q -6 765 15 743 q -28 828 -28 788 q -3 892 -28 868 q 61 917 21 917 m 303 917 q 363 895 342 917 q 385 833 385 874 q 361 768 385 793 q 297 743 338 743 q 237 765 258 743 q 215 828 215 788 q 239 892 215 868 q 303 917 263 917 z "},"ị":{"ha":363,"x_min":83,"x_max":276,"o":"m 97 267 l 90 633 l 272 649 l 264 285 l 272 0 l 88 0 l 97 267 m 185 963 q 252 938 228 963 q 276 868 276 913 q 250 793 276 821 q 178 765 224 765 q 108 790 132 765 q 83 861 83 815 q 110 935 83 907 q 185 963 138 963 m 185 -72 q 252 -97 228 -72 q 276 -167 276 -122 q 250 -242 276 -214 q 178 -269 224 -269 q 108 -244 132 -269 q 83 -174 83 -219 q 110 -100 83 -128 q 185 -72 138 -72 z "},"ì":{"ha":363,"x_min":13,"x_max":347,"o":"m 97 267 l 90 633 l 272 649 l 264 285 l 272 0 l 88 0 l 97 267 m 96 1006 q 347 793 197 913 l 303 724 l 286 722 q 15 886 178 785 l 13 904 l 79 1004 l 96 1006 z "},"ỉ":{"ha":363,"x_min":36,"x_max":300,"o":"m 97 267 l 90 633 l 272 649 l 264 285 l 272 0 l 88 0 l 97 267 m 124 796 q 178 848 158 821 q 197 896 197 875 q 187 919 197 911 q 158 926 176 926 q 113 917 138 926 q 67 892 88 908 l 36 942 q 107 994 68 975 q 185 1014 146 1014 q 267 985 235 1014 q 300 913 300 957 q 283 860 300 886 q 221 797 265 835 l 253 743 l 185 703 l 124 796 z "},"ȋ":{"ha":363,"x_min":-29,"x_max":389,"o":"m 97 267 l 90 633 l 272 649 l 264 285 l 272 0 l 88 0 l 97 267 m -29 821 q 45 947 -8 900 q 185 994 99 994 q 319 946 268 994 q 389 821 369 897 l 343 758 l 318 758 q 265 837 300 810 q 179 864 229 864 q 94 837 129 864 q 42 758 58 810 l 17 758 l -29 821 z "},"ĳ":{"ha":758,"x_min":83,"x_max":668,"o":"m 97 267 l 90 633 l 272 649 l 264 285 l 272 0 l 88 0 l 97 267 m 185 963 q 252 938 228 963 q 276 868 276 913 q 250 793 276 821 q 178 765 224 765 q 108 790 132 765 q 83 861 83 815 q 110 935 83 907 q 185 963 138 963 m 668 646 l 657 285 l 665 38 q 613 -144 665 -72 q 439 -271 560 -217 l 375 -189 l 375 -172 q 464 -90 438 -137 q 490 32 490 -43 l 493 267 l 488 529 l 375 529 l 364 540 l 374 640 l 490 640 l 663 650 l 668 646 m 561 963 q 628 938 604 963 q 653 868 653 913 q 626 793 653 821 q 554 765 600 765 q 484 790 508 765 q 460 861 460 815 q 487 935 460 907 q 561 963 514 963 z "},"ī":{"ha":363,"x_min":13,"x_max":347,"o":"m 97 267 l 90 633 l 272 649 l 264 285 l 272 0 l 88 0 l 97 267 m 347 904 l 338 801 l 25 801 l 13 814 l 22 917 l 335 917 l 347 904 z "},"į":{"ha":363,"x_min":32,"x_max":297,"o":"m 97 267 l 90 633 l 272 649 l 264 285 l 272 0 l 88 0 l 97 267 m 185 963 q 252 938 228 963 q 276 868 276 913 q 250 793 276 821 q 178 765 224 765 q 108 790 132 765 q 83 861 83 815 q 110 935 83 907 q 185 963 138 963 m 272 0 q 167 -93 192 -68 q 142 -137 142 -118 q 175 -165 142 -165 q 263 -125 213 -165 l 272 -126 l 297 -208 q 151 -269 232 -269 q 65 -241 97 -269 q 32 -165 32 -212 q 63 -82 32 -121 q 161 0 94 -43 l 272 0 z "},"ĩ":{"ha":363,"x_min":-33,"x_max":394,"o":"m 97 267 l 90 633 l 272 649 l 264 285 l 272 0 l 88 0 l 97 267 m 394 915 l 394 900 l 307 776 l 290 771 q 193 797 257 776 q 113 818 128 818 q 83 804 97 818 q 54 772 68 790 q 36 749 40 754 l 21 749 l -33 803 l -33 819 l 53 940 l 71 947 q 168 921 104 942 q 249 900 233 900 q 277 913 264 900 q 304 943 290 925 q 325 969 318 961 l 340 969 l 394 915 z "},"j":{"ha":396,"x_min":1,"x_max":306,"o":"m 306 646 l 294 285 l 303 38 q 250 -144 303 -72 q 76 -271 197 -217 l 13 -189 l 13 -172 q 101 -90 75 -137 q 128 32 128 -43 l 131 267 l 125 529 l 13 529 l 1 540 l 11 640 l 128 640 l 300 650 l 306 646 m 199 963 q 266 938 242 963 q 290 868 290 913 q 264 793 290 821 q 192 765 238 765 q 122 790 146 765 q 97 861 97 815 q 124 935 97 907 q 199 963 151 963 z "},"ȷ":{"ha":396,"x_min":1,"x_max":306,"o":"m 306 646 l 294 285 l 303 38 q 250 -144 303 -72 q 76 -271 197 -217 l 13 -189 l 13 -172 q 101 -90 75 -137 q 128 32 128 -43 l 131 267 l 125 529 l 13 529 l 1 540 l 11 640 l 128 640 l 300 650 l 306 646 z "},"ĵ":{"ha":396,"x_min":-21,"x_max":410,"o":"m 306 646 l 294 285 l 303 38 q 250 -144 303 -72 q 76 -271 197 -217 l 13 -189 l 13 -172 q 101 -90 75 -137 q 128 32 128 -43 l 131 267 l 125 529 l 13 529 l 1 540 l 11 640 l 128 640 l 300 650 l 306 646 m -21 801 q 175 997 58 874 l 215 997 q 410 801 324 878 l 364 731 l 346 731 q 194 858 254 803 q 44 731 140 807 l 26 731 l -21 801 z "},"k":{"ha":688,"x_min":90,"x_max":678,"o":"m 265 285 l 275 0 l 90 0 l 100 268 l 92 961 l 276 975 l 265 285 m 453 354 q 678 31 528 233 l 676 11 q 573 -6 628 0 q 506 -14 518 -12 l 486 -6 q 275 338 364 167 l 275 350 l 436 579 l 469 646 l 664 646 l 453 354 z "},"ķ":{"ha":688,"x_min":90,"x_max":678,"o":"m 265 285 l 275 0 l 90 0 l 100 268 l 92 961 l 276 975 l 265 285 m 453 354 q 678 31 528 233 l 676 11 q 573 -6 628 0 q 506 -14 518 -12 l 486 -6 q 275 338 364 167 l 275 350 l 436 579 l 469 646 l 664 646 l 453 354 m 415 -56 q 471 -162 471 -99 q 434 -271 471 -218 q 321 -378 397 -324 l 268 -331 l 267 -318 q 335 -196 335 -260 q 294 -121 335 -153 l 296 -107 q 415 -56 351 -74 z "},"ĸ":{"ha":683,"x_min":85,"x_max":674,"o":"m 93 267 l 88 633 l 269 649 l 263 285 l 268 0 l 85 0 l 93 267 m 447 354 q 674 31 525 232 l 674 11 q 570 -6 625 0 q 503 -14 515 -12 l 483 -6 q 271 338 358 172 l 271 350 l 435 579 l 468 646 l 660 646 l 447 354 z "},"l":{"ha":365,"x_min":90,"x_max":276,"o":"m 265 285 l 275 0 l 90 0 l 100 268 l 92 961 l 276 975 l 265 285 z "},"ĺ":{"ha":365,"x_min":32,"x_max":385,"o":"m 265 285 l 275 0 l 90 0 l 100 268 l 92 961 l 276 975 l 265 285 m 338 1281 l 385 1171 l 379 1154 q 79 1046 244 1101 l 63 1051 l 32 1128 q 319 1285 203 1214 l 338 1281 z "},"ľ":{"ha":463,"x_min":90,"x_max":493,"o":"m 265 285 l 275 0 l 90 0 l 100 268 l 92 961 l 276 975 l 265 285 m 493 885 l 447 607 l 367 594 l 353 606 l 350 889 l 482 897 l 493 885 z "},"ļ":{"ha":365,"x_min":81,"x_max":285,"o":"m 265 285 l 275 0 l 90 0 l 100 268 l 92 961 l 276 975 l 265 285 m 229 -56 q 285 -162 285 -99 q 248 -271 285 -218 q 135 -378 211 -324 l 82 -331 l 81 -318 q 149 -196 149 -260 q 108 -121 149 -153 l 110 -107 q 229 -56 165 -74 z "},"ŀ":{"ha":436,"x_min":90,"x_max":494,"o":"m 265 285 l 275 0 l 90 0 l 100 268 l 92 961 l 276 975 l 265 285 m 403 504 q 470 479 446 504 q 494 410 494 454 q 467 335 494 363 q 394 307 440 307 q 326 332 350 307 q 301 403 301 357 q 328 476 301 449 q 403 504 356 504 z "},"ḷ":{"ha":365,"x_min":85,"x_max":278,"o":"m 265 285 l 275 0 l 90 0 l 100 268 l 92 961 l 276 975 l 265 285 m 186 -72 q 253 -97 229 -72 q 278 -167 278 -122 q 251 -242 278 -214 q 179 -269 225 -269 q 109 -244 133 -269 q 85 -174 85 -219 q 112 -100 85 -128 q 186 -72 139 -72 z "},"ǉ":{"ha":761,"x_min":90,"x_max":671,"o":"m 265 285 l 275 0 l 90 0 l 100 268 l 92 961 l 276 975 l 265 285 m 671 646 l 660 285 l 668 38 q 615 -144 668 -72 q 442 -271 563 -217 l 378 -189 l 378 -172 q 467 -90 440 -137 q 493 32 493 -43 l 496 267 l 490 529 l 378 529 l 367 540 l 376 640 l 493 640 l 665 650 l 671 646 m 564 963 q 631 938 607 963 q 656 868 656 913 q 629 793 656 821 q 557 765 603 765 q 487 790 511 765 q 463 861 463 815 q 490 935 463 907 q 564 963 517 963 z "},"ḻ":{"ha":365,"x_min":0,"x_max":363,"o":"m 265 285 l 275 0 l 90 0 l 100 268 l 92 961 l 276 975 l 265 285 m 363 -133 l 354 -237 l 13 -237 l 0 -224 l 8 -121 l 350 -121 l 363 -133 z "},"ł":{"ha":400,"x_min":-11,"x_max":413,"o":"m 283 285 l 292 0 l 108 0 l 118 268 l 117 408 l 35 367 l 25 369 l -11 476 l 115 540 l 110 961 l 293 975 l 288 614 l 367 654 l 375 650 l 413 543 l 286 478 l 283 285 z "},"m":{"ha":1121,"x_min":85,"x_max":1043,"o":"m 858 0 l 869 403 q 782 506 869 506 q 651 450 719 506 l 647 283 l 656 0 l 471 0 l 482 403 q 460 479 483 453 q 394 506 438 506 q 260 447 333 506 l 260 285 l 268 0 l 85 0 l 94 267 l 88 633 l 261 649 l 261 554 l 271 554 q 439 654 347 624 q 638 550 594 654 l 646 550 q 826 654 725 624 q 987 606 932 654 q 1039 468 1042 558 l 1035 283 l 1043 0 l 858 0 z "},"ṃ":{"ha":1121,"x_min":85,"x_max":1043,"o":"m 858 0 l 869 403 q 782 506 869 506 q 651 450 719 506 l 647 283 l 656 0 l 471 0 l 482 403 q 460 479 483 453 q 394 506 438 506 q 260 447 333 506 l 260 285 l 268 0 l 85 0 l 94 267 l 88 633 l 261 649 l 261 554 l 271 554 q 439 654 347 624 q 638 550 594 654 l 646 550 q 826 654 725 624 q 987 606 932 654 q 1039 468 1042 558 l 1035 283 l 1043 0 l 858 0 m 564 -72 q 631 -97 607 -72 q 656 -167 656 -122 q 629 -242 656 -214 q 557 -269 603 -269 q 487 -244 511 -269 q 463 -174 463 -219 q 490 -100 463 -128 q 564 -72 517 -72 z "},"n":{"ha":735,"x_min":85,"x_max":657,"o":"m 482 403 q 460 478 483 451 q 394 506 438 506 q 261 446 332 506 l 261 285 l 269 0 l 85 0 l 94 267 l 88 633 l 263 649 l 263 554 l 272 554 q 439 654 349 624 q 600 606 544 654 q 653 468 656 558 l 649 283 l 657 0 l 471 0 l 482 403 z "},"ń":{"ha":735,"x_min":85,"x_max":657,"o":"m 482 403 q 460 478 483 451 q 394 506 438 506 q 261 446 332 506 l 261 285 l 269 0 l 85 0 l 94 267 l 88 633 l 263 649 l 263 554 l 272 554 q 439 654 349 624 q 600 606 544 654 q 653 468 656 558 l 649 283 l 657 0 l 471 0 l 482 403 m 526 1004 l 593 904 l 590 886 q 544 858 560 867 q 319 722 371 751 l 301 724 l 257 793 q 508 1006 418 922 l 526 1004 z "},"ň":{"ha":735,"x_min":85,"x_max":657,"o":"m 482 403 q 460 478 483 451 q 394 506 438 506 q 261 446 332 506 l 261 285 l 269 0 l 85 0 l 94 267 l 88 633 l 263 649 l 263 554 l 272 554 q 439 654 349 624 q 600 606 544 654 q 653 468 656 558 l 649 283 l 657 0 l 471 0 l 482 403 m 607 924 q 411 728 528 851 l 371 728 q 176 924 263 847 l 222 994 l 240 994 q 392 867 332 922 q 542 994 446 918 l 560 994 l 607 924 z "},"ņ":{"ha":735,"x_min":85,"x_max":657,"o":"m 482 403 q 460 478 483 451 q 394 506 438 506 q 261 446 332 506 l 261 285 l 269 0 l 85 0 l 94 267 l 88 633 l 263 649 l 263 554 l 272 554 q 439 654 349 624 q 600 606 544 654 q 653 468 656 558 l 649 283 l 657 0 l 471 0 l 482 403 m 421 -56 q 476 -162 476 -99 q 440 -271 476 -218 q 326 -378 403 -324 l 274 -331 l 272 -318 q 340 -196 340 -260 q 300 -121 340 -153 l 301 -107 q 421 -56 357 -74 z "},"ṅ":{"ha":735,"x_min":85,"x_max":657,"o":"m 482 403 q 460 478 483 451 q 394 506 438 506 q 261 446 332 506 l 261 285 l 269 0 l 85 0 l 94 267 l 88 633 l 263 649 l 263 554 l 272 554 q 439 654 349 624 q 600 606 544 654 q 653 468 656 558 l 649 283 l 657 0 l 471 0 l 482 403 m 396 963 q 463 938 439 963 q 488 868 488 913 q 461 793 488 821 q 389 765 435 765 q 319 790 343 765 q 294 861 294 815 q 322 935 294 907 q 396 963 349 963 z "},"ṇ":{"ha":735,"x_min":85,"x_max":657,"o":"m 482 403 q 460 478 483 451 q 394 506 438 506 q 261 446 332 506 l 261 285 l 269 0 l 85 0 l 94 267 l 88 633 l 263 649 l 263 554 l 272 554 q 439 654 349 624 q 600 606 544 654 q 653 468 656 558 l 649 283 l 657 0 l 471 0 l 482 403 m 378 -72 q 445 -97 421 -72 q 469 -167 469 -122 q 443 -242 469 -214 q 371 -269 417 -269 q 301 -244 325 -269 q 276 -174 276 -219 q 303 -100 276 -128 q 378 -72 331 -72 z "},"ŋ":{"ha":747,"x_min":85,"x_max":657,"o":"m 657 38 q 605 -144 657 -72 q 433 -271 553 -217 l 368 -189 l 368 -172 q 457 -90 431 -137 q 483 32 483 -43 l 482 403 q 460 479 482 453 q 394 506 438 506 q 261 446 332 506 l 261 285 l 269 0 l 85 0 l 94 267 l 88 633 l 263 649 l 263 554 l 272 554 q 439 654 349 624 q 600 606 544 654 q 653 468 656 558 l 649 283 l 657 38 z "},"ǌ":{"ha":1131,"x_min":85,"x_max":1040,"o":"m 482 403 q 460 478 483 451 q 394 506 438 506 q 261 446 332 506 l 261 285 l 269 0 l 85 0 l 94 267 l 88 633 l 263 649 l 263 554 l 272 554 q 439 654 349 624 q 600 606 544 654 q 653 468 656 558 l 649 283 l 657 0 l 471 0 l 482 403 m 1040 646 l 1029 285 l 1038 38 q 985 -144 1038 -72 q 811 -271 932 -217 l 747 -189 l 747 -172 q 836 -90 810 -137 q 863 32 863 -43 l 865 267 l 860 529 l 747 529 l 736 540 l 746 640 l 863 640 l 1035 650 l 1040 646 m 933 963 q 1001 938 976 963 q 1025 868 1025 913 q 999 793 1025 821 q 926 765 972 765 q 856 790 881 765 q 832 861 832 815 q 859 935 832 907 q 933 963 886 963 z "},"ṉ":{"ha":735,"x_min":85,"x_max":657,"o":"m 482 403 q 460 478 483 451 q 394 506 438 506 q 261 446 332 506 l 261 285 l 269 0 l 85 0 l 94 267 l 88 633 l 263 649 l 263 554 l 272 554 q 439 654 349 624 q 600 606 544 654 q 653 468 656 558 l 649 283 l 657 0 l 471 0 l 482 403 m 554 -133 l 546 -237 l 204 -237 l 192 -224 l 200 -121 l 542 -121 l 554 -133 z "},"ñ":{"ha":735,"x_min":85,"x_max":657,"o":"m 482 403 q 460 478 483 451 q 394 506 438 506 q 261 446 332 506 l 261 285 l 269 0 l 85 0 l 94 267 l 88 633 l 263 649 l 263 554 l 272 554 q 439 654 349 624 q 600 606 544 654 q 653 468 656 558 l 649 283 l 657 0 l 471 0 l 482 403 m 633 919 l 633 904 l 536 781 l 518 774 q 403 800 481 778 q 358 812 396 801 q 304 822 319 822 q 274 810 289 822 q 243 779 260 797 q 218 751 226 761 l 201 751 l 146 806 l 146 821 l 244 944 l 261 951 q 379 924 294 947 q 475 903 457 903 q 508 917 492 903 q 540 949 524 931 q 563 974 557 967 l 579 974 l 633 919 z "},"o":{"ha":686,"x_min":40,"x_max":644,"o":"m 353 658 q 569 575 494 658 q 644 335 644 492 q 564 76 644 165 q 332 -14 483 -14 q 115 69 190 -14 q 40 310 40 153 q 121 569 40 479 q 353 658 201 658 m 340 533 q 244 489 274 533 q 214 346 214 444 q 244 164 214 218 q 344 110 275 110 q 441 153 411 110 q 471 297 471 197 q 440 478 471 424 q 340 533 408 533 z "},"ó":{"ha":686,"x_min":40,"x_max":644,"o":"m 353 658 q 569 575 494 658 q 644 335 644 492 q 564 76 644 165 q 332 -14 483 -14 q 115 69 190 -14 q 40 310 40 153 q 121 569 40 479 q 353 658 201 658 m 340 533 q 244 489 274 533 q 214 346 214 444 q 244 164 214 218 q 344 110 275 110 q 441 153 411 110 q 471 297 471 197 q 440 478 471 424 q 340 533 408 533 m 479 1004 l 546 904 l 543 886 q 497 858 513 867 q 272 722 324 751 l 254 724 l 210 793 q 461 1006 371 922 l 479 1004 z "},"ŏ":{"ha":686,"x_min":40,"x_max":644,"o":"m 353 658 q 569 575 494 658 q 644 335 644 492 q 564 76 644 165 q 332 -14 483 -14 q 115 69 190 -14 q 40 310 40 153 q 121 569 40 479 q 353 658 201 658 m 340 533 q 244 489 274 533 q 214 346 214 444 q 244 164 214 218 q 344 110 275 110 q 441 153 411 110 q 471 297 471 197 q 440 478 471 424 q 340 533 408 533 m 554 910 q 480 783 533 831 q 340 736 426 736 q 206 785 257 736 q 136 910 156 833 l 182 972 l 207 972 q 260 894 225 921 q 346 867 296 867 q 431 894 396 867 q 483 972 467 921 l 508 972 l 554 910 z "},"ǒ":{"ha":686,"x_min":40,"x_max":644,"o":"m 353 658 q 569 575 494 658 q 644 335 644 492 q 564 76 644 165 q 332 -14 483 -14 q 115 69 190 -14 q 40 310 40 153 q 121 569 40 479 q 353 658 201 658 m 340 533 q 244 489 274 533 q 214 346 214 444 q 244 164 214 218 q 344 110 275 110 q 441 153 411 110 q 471 297 471 197 q 440 478 471 424 q 340 533 408 533 m 560 924 q 364 728 481 851 l 324 728 q 129 924 215 847 l 175 994 l 193 994 q 344 867 285 922 q 494 994 399 918 l 513 994 l 560 924 z "},"ô":{"ha":686,"x_min":40,"x_max":644,"o":"m 353 658 q 569 575 494 658 q 644 335 644 492 q 564 76 644 165 q 332 -14 483 -14 q 115 69 190 -14 q 40 310 40 153 q 121 569 40 479 q 353 658 201 658 m 340 533 q 244 489 274 533 q 214 346 214 444 q 244 164 214 218 q 344 110 275 110 q 441 153 411 110 q 471 297 471 197 q 440 478 471 424 q 340 533 408 533 m 129 801 q 325 997 208 874 l 365 997 q 560 801 474 878 l 514 731 l 496 731 q 344 858 404 803 q 194 731 290 807 l 176 731 l 129 801 z "},"ố":{"ha":686,"x_min":40,"x_max":644,"o":"m 353 658 q 569 575 494 658 q 644 335 644 492 q 564 76 644 165 q 332 -14 483 -14 q 115 69 190 -14 q 40 310 40 153 q 121 569 40 479 q 353 658 201 658 m 340 533 q 244 489 274 533 q 214 346 214 444 q 244 164 214 218 q 344 110 275 110 q 441 153 411 110 q 471 297 471 197 q 440 478 471 424 q 340 533 408 533 m 607 1069 l 613 1056 l 499 913 l 485 913 l 421 960 l 504 1107 l 518 1114 l 607 1069 m 140 808 q 325 953 254 889 l 363 953 q 549 808 446 879 l 515 735 l 497 735 l 344 822 l 192 735 l 174 735 l 140 808 z "},"ộ":{"ha":686,"x_min":40,"x_max":644,"o":"m 353 658 q 569 575 494 658 q 644 335 644 492 q 564 76 644 165 q 332 -14 483 -14 q 115 69 190 -14 q 40 310 40 153 q 121 569 40 479 q 353 658 201 658 m 340 533 q 244 489 274 533 q 214 346 214 444 q 244 164 214 218 q 344 110 275 110 q 441 153 411 110 q 471 297 471 197 q 440 478 471 424 q 340 533 408 533 m 347 -72 q 415 -97 390 -72 q 439 -167 439 -122 q 413 -242 439 -214 q 340 -269 386 -269 q 270 -244 294 -269 q 246 -174 246 -219 q 273 -100 246 -128 q 347 -72 300 -72 m 129 801 q 325 997 208 874 l 365 997 q 560 801 474 878 l 514 731 l 496 731 q 344 858 404 803 q 194 731 290 807 l 176 731 l 129 801 z "},"ồ":{"ha":686,"x_min":40,"x_max":644,"o":"m 353 658 q 569 575 494 658 q 644 335 644 492 q 564 76 644 165 q 332 -14 483 -14 q 115 69 190 -14 q 40 310 40 153 q 121 569 40 479 q 353 658 201 658 m 340 533 q 244 489 274 533 q 214 346 214 444 q 244 164 214 218 q 344 110 275 110 q 441 153 411 110 q 471 297 471 197 q 440 478 471 424 q 340 533 408 533 m 379 1056 l 383 1069 l 472 1114 l 486 1107 l 571 960 l 507 913 l 493 913 l 379 1056 m 140 808 q 325 953 254 889 l 363 953 q 549 808 446 879 l 515 735 l 497 735 l 344 822 l 192 735 l 174 735 l 140 808 z "},"ổ":{"ha":686,"x_min":40,"x_max":644,"o":"m 353 658 q 569 575 494 658 q 644 335 644 492 q 564 76 644 165 q 332 -14 483 -14 q 115 69 190 -14 q 40 310 40 153 q 121 569 40 479 q 353 658 201 658 m 340 533 q 244 489 274 533 q 214 346 214 444 q 244 164 214 218 q 344 110 275 110 q 441 153 411 110 q 471 297 471 197 q 440 478 471 424 q 340 533 408 533 m 140 836 q 325 981 236 901 l 363 981 q 549 836 460 897 l 515 763 l 497 763 l 461 783 q 344 850 403 815 q 192 763 292 818 l 174 763 l 140 836 m 457 1015 q 509 1064 490 1038 q 527 1110 527 1090 q 517 1132 527 1124 q 490 1139 507 1139 q 446 1130 470 1139 q 403 1106 423 1122 l 374 1153 q 441 1204 404 1185 q 515 1222 478 1222 q 594 1195 563 1222 q 625 1126 625 1168 q 608 1076 625 1100 q 550 1016 592 1052 l 580 964 l 515 926 l 457 1015 z "},"ỗ":{"ha":686,"x_min":40,"x_max":644,"o":"m 353 658 q 569 575 494 658 q 644 335 644 492 q 564 76 644 165 q 332 -14 483 -14 q 115 69 190 -14 q 40 310 40 153 q 121 569 40 479 q 353 658 201 658 m 340 533 q 244 489 274 533 q 214 346 214 444 q 244 164 214 218 q 344 110 275 110 q 441 153 411 110 q 471 297 471 197 q 440 478 471 424 q 340 533 408 533 m 143 836 q 328 981 239 901 l 365 981 q 551 836 463 897 l 518 763 l 500 763 l 464 783 q 347 850 406 815 q 194 763 294 818 l 176 763 l 143 836 m 589 1163 l 589 1146 l 490 1022 l 474 1017 q 357 1044 443 1021 q 260 1065 279 1065 q 231 1053 244 1065 q 193 1017 217 1042 l 172 994 l 156 994 l 101 1049 l 101 1064 l 200 1188 l 217 1194 q 335 1167 244 1190 q 378 1155 342 1165 q 431 1144 415 1144 q 460 1157 446 1144 q 492 1188 475 1169 q 518 1217 508 1207 l 533 1217 l 589 1163 z "},"ȍ":{"ha":686,"x_min":40,"x_max":644,"o":"m 353 658 q 569 575 494 658 q 644 335 644 492 q 564 76 644 165 q 332 -14 483 -14 q 115 69 190 -14 q 40 310 40 153 q 121 569 40 479 q 353 658 201 658 m 340 533 q 244 489 274 533 q 214 346 214 444 q 244 164 214 218 q 344 110 275 110 q 441 153 411 110 q 471 297 471 197 q 440 478 471 424 q 340 533 408 533 m 354 769 q 182 1008 253 904 l 168 1011 l 82 950 l 81 936 q 282 726 146 863 l 297 722 l 354 769 m 565 769 q 393 1008 464 904 l 379 1011 l 293 950 l 292 936 q 493 726 357 863 l 508 722 l 565 769 z "},"ö":{"ha":686,"x_min":40,"x_max":644,"o":"m 353 658 q 569 575 494 658 q 644 335 644 492 q 564 76 644 165 q 332 -14 483 -14 q 115 69 190 -14 q 40 310 40 153 q 121 569 40 479 q 353 658 201 658 m 340 533 q 244 489 274 533 q 214 346 214 444 q 244 164 214 218 q 344 110 275 110 q 441 153 411 110 q 471 297 471 197 q 440 478 471 424 q 340 533 408 533 m 229 947 q 290 925 268 947 q 313 863 313 903 q 288 794 313 819 q 222 769 264 769 q 160 792 182 769 q 138 856 138 814 q 162 922 138 897 q 229 947 186 947 m 469 947 q 531 925 508 947 q 553 863 553 903 q 528 794 553 819 q 464 769 504 769 q 401 792 424 769 q 379 856 379 814 q 403 922 379 897 q 469 947 428 947 z "},"ȫ":{"ha":686,"x_min":40,"x_max":644,"o":"m 353 658 q 569 575 494 658 q 644 335 644 492 q 564 76 644 165 q 332 -14 483 -14 q 115 69 190 -14 q 40 310 40 153 q 121 569 40 479 q 353 658 201 658 m 340 533 q 244 489 274 533 q 214 346 214 444 q 244 164 214 218 q 344 110 275 110 q 441 153 411 110 q 471 297 471 197 q 440 478 471 424 q 340 533 408 533 m 542 1100 l 531 996 l 163 996 l 150 1010 l 158 1114 l 528 1114 l 542 1100 m 226 917 q 286 895 265 917 q 307 833 307 874 q 283 768 307 793 q 221 743 260 743 q 159 765 181 743 q 138 828 138 788 q 162 892 138 868 q 226 917 186 917 m 468 917 q 528 895 507 917 q 549 833 549 874 q 525 768 549 793 q 463 743 501 743 q 401 765 422 743 q 379 828 379 788 q 403 892 379 868 q 468 917 428 917 z "},"ȱ":{"ha":686,"x_min":40,"x_max":644,"o":"m 353 658 q 569 575 494 658 q 644 335 644 492 q 564 76 644 165 q 332 -14 483 -14 q 115 69 190 -14 q 40 310 40 153 q 121 569 40 479 q 353 658 201 658 m 340 533 q 244 489 274 533 q 214 346 214 444 q 244 164 214 218 q 344 110 275 110 q 441 153 411 110 q 471 297 471 197 q 440 478 471 424 q 340 533 408 533 m 349 938 q 416 913 392 938 q 440 843 440 888 q 414 768 440 796 q 342 740 388 740 q 272 765 296 740 q 247 836 247 790 q 274 910 247 882 q 349 938 301 938 m 511 1094 l 501 992 l 189 992 l 176 1004 l 186 1107 l 499 1107 l 511 1094 z "},"ọ":{"ha":686,"x_min":40,"x_max":644,"o":"m 353 658 q 569 575 494 658 q 644 335 644 492 q 564 76 644 165 q 332 -14 483 -14 q 115 69 190 -14 q 40 310 40 153 q 121 569 40 479 q 353 658 201 658 m 340 533 q 244 489 274 533 q 214 346 214 444 q 244 164 214 218 q 344 110 275 110 q 441 153 411 110 q 471 297 471 197 q 440 478 471 424 q 340 533 408 533 m 347 -72 q 415 -97 390 -72 q 439 -167 439 -122 q 413 -242 439 -214 q 340 -269 386 -269 q 270 -244 294 -269 q 246 -174 246 -219 q 273 -100 246 -128 q 347 -72 300 -72 z "},"ò":{"ha":686,"x_min":40,"x_max":644,"o":"m 353 658 q 569 575 494 658 q 644 335 644 492 q 564 76 644 165 q 332 -14 483 -14 q 115 69 190 -14 q 40 310 40 153 q 121 569 40 479 q 353 658 201 658 m 340 533 q 244 489 274 533 q 214 346 214 444 q 244 164 214 218 q 344 110 275 110 q 441 153 411 110 q 471 297 471 197 q 440 478 471 424 q 340 533 408 533 m 260 1006 q 511 793 361 913 l 467 724 l 450 722 q 179 886 342 785 l 176 904 l 243 1004 l 260 1006 z "},"ỏ":{"ha":686,"x_min":40,"x_max":644,"o":"m 353 658 q 569 575 494 658 q 644 335 644 492 q 564 76 644 165 q 332 -14 483 -14 q 115 69 190 -14 q 40 310 40 153 q 121 569 40 479 q 353 658 201 658 m 340 533 q 244 489 274 533 q 214 346 214 444 q 244 164 214 218 q 344 110 275 110 q 441 153 411 110 q 471 297 471 197 q 440 478 471 424 q 340 533 408 533 m 288 796 q 342 848 322 821 q 361 896 361 875 q 351 919 361 911 q 322 926 340 926 q 276 917 301 926 q 231 892 251 908 l 200 942 q 271 994 232 975 q 349 1014 310 1014 q 431 985 399 1014 q 464 913 464 957 q 447 860 464 886 q 385 797 429 835 l 417 743 l 349 703 l 288 796 z "},"ơ":{"ha":738,"x_min":40,"x_max":728,"o":"m 728 726 q 683 616 728 664 q 576 561 639 568 q 644 333 644 476 q 565 76 644 165 q 333 -14 485 -14 q 115 69 190 -14 q 40 314 40 153 q 120 569 40 481 q 351 658 200 658 q 454 646 389 658 q 518 636 496 636 q 567 654 549 636 q 585 703 585 672 q 540 786 585 746 l 544 801 q 635 843 593 843 q 700 808 672 843 q 728 726 728 772 m 346 108 q 442 154 411 108 q 472 303 472 200 q 441 481 472 428 q 339 533 410 533 q 242 488 272 533 q 211 340 211 442 q 242 161 211 214 q 346 108 274 108 z "},"ớ":{"ha":738,"x_min":40,"x_max":728,"o":"m 728 726 q 683 616 728 664 q 576 561 639 568 q 644 333 644 476 q 565 76 644 165 q 333 -14 485 -14 q 115 69 190 -14 q 40 314 40 153 q 120 569 40 481 q 351 658 200 658 q 454 646 389 658 q 518 636 496 636 q 567 654 549 636 q 585 703 585 672 q 540 786 585 746 l 544 801 q 635 843 593 843 q 700 808 672 843 q 728 726 728 772 m 346 108 q 442 154 411 108 q 472 303 472 200 q 441 481 472 428 q 339 533 410 533 q 242 488 272 533 q 211 340 211 442 q 242 161 211 214 q 346 108 274 108 m 476 1004 l 543 904 l 540 886 q 494 858 510 867 q 269 722 321 751 l 251 724 l 207 793 q 458 1006 368 922 l 476 1004 z "},"ợ":{"ha":688,"x_min":40,"x_max":728,"o":"m 728 726 q 683 616 728 664 q 576 561 639 568 q 644 333 644 476 q 565 76 644 165 q 333 -14 485 -14 q 115 69 190 -14 q 40 314 40 153 q 120 569 40 481 q 351 658 200 658 q 454 646 389 658 q 518 636 496 636 q 567 654 549 636 q 585 703 585 672 q 540 786 585 746 l 544 801 q 635 843 593 843 q 700 808 672 843 q 728 726 728 772 m 346 108 q 442 154 411 108 q 472 303 472 200 q 441 481 472 428 q 339 533 410 533 q 242 488 272 533 q 211 340 211 442 q 242 161 211 214 q 346 108 274 108 m 357 -72 q 424 -97 400 -72 q 449 -167 449 -122 q 422 -242 449 -214 q 350 -269 396 -269 q 280 -244 304 -269 q 256 -174 256 -219 q 283 -100 256 -128 q 357 -72 310 -72 z "},"ờ":{"ha":688,"x_min":40,"x_max":749,"o":"m 218 1006 q 469 793 321 910 l 425 724 l 407 722 q 138 886 318 774 l 133 904 l 200 1004 l 218 1006 m 657 831 q 721 797 693 831 q 749 714 749 764 q 726 628 749 668 q 667 565 704 589 q 589 542 631 542 q 644 333 644 464 q 565 76 644 165 q 335 -14 485 -14 q 115 69 190 -14 q 40 314 40 153 q 121 569 40 481 q 353 658 201 658 q 413 653 388 658 q 472 638 439 647 q 536 625 515 625 q 588 642 569 625 q 606 689 606 660 q 563 774 606 731 l 567 789 q 657 831 615 831 m 340 533 q 244 487 274 533 q 214 338 214 440 q 244 162 214 214 q 344 110 275 110 q 441 156 411 110 q 471 306 471 201 q 440 481 471 428 q 340 533 410 533 z "}}}
